<svg width="599" height="601" viewBox="0 0 599 601" fill="none" xmlns="http://www.w3.org/2000/svg">
<path fill-rule="evenodd" clip-rule="evenodd" d="M527.982 314.844C529.293 476.269 458.682 594.192 323.688 600.887C225.297 605.767 284.155 451.393 160.842 348.896C81.9097 283.288 29.8124 112.822 224.35 68.7462C418.888 24.6707 526.672 153.42 527.982 314.844Z" fill="#2E2E64"/>
<path d="M129.621 549.243C117.375 526.667 119.375 499.349 121.903 473.791C127.719 415.001 136.672 351.693 177.852 309.333C188.743 298.13 202.037 288.631 217.294 285.257C229.116 282.644 240.506 278.083 250.865 271.814C253.362 257.192 239.603 245.678 229.991 234.379C219.227 221.727 212.511 205.681 211.055 189.134C210.194 179.338 208.137 165.992 198.313 165.575C190.237 165.231 184.158 155.487 187.399 148.083C190.641 140.679 201.925 138.537 207.655 144.238C199.481 113.596 216.748 78.2424 245.939 65.849C241.179 59.0421 251.568 50.8844 259.816 51.8593C268.065 52.8342 276.049 57.8166 284.148 55.9758C281.373 51.0884 285.82 44.5949 291.299 43.3429C296.779 42.091 302.402 44.4698 307.317 47.1965C338.866 64.7001 359.716 99.9992 359.815 136.079C360.631 129.493 370.514 127.238 375.347 131.785C380.181 136.331 379.951 144.469 376.519 150.149C373.086 155.828 367.236 159.557 361.446 162.798C361.592 186.724 352.493 210.59 336.455 228.346C324.785 241.266 308.25 254.971 312.08 271.954C318.288 270.581 324.568 277.743 322.396 283.719C349.014 281.501 373.854 297.567 392.712 316.483C420.357 344.212 440.226 379.614 449.497 417.656C451.116 424.301 460.57 426.113 466.419 422.567C472.268 419.022 475.274 412.317 477.94 406.018L530.593 281.589C527.2 264.826 529.945 247.501 532.696 230.62L541.823 174.597C542.652 169.512 546.209 162.802 550.905 164.922C552.527 165.654 553.433 167.238 554.005 168.983C554.271 169.792 554.464 170.635 554.625 171.445C557.472 185.81 558.382 200.558 557.322 215.164L575.549 183.984C578.499 178.939 584.611 173.357 589.173 175.445C590.888 175.781 592.051 177.492 592.296 179.237C592.946 181.609 592.395 184.462 591.653 186.923C588.328 197.944 582.908 208.33 575.768 217.361C585.394 220.644 596.544 225.629 598.229 235.659C597.229 253.843 583.826 274.719 573.945 285.556C576.212 284.188 577.695 288.259 577.244 290.869C566.405 353.577 539.994 413.534 501.04 463.857C489.545 478.708 476.195 490.201 455.253 492.273C426.713 495.097 408 453 392.502 454.126C392.502 454.126 378 529 367.5 539C357 549 288 570 267.207 563C246.415 556 225.617 574.719 198.313 572.843C170.015 570.898 129.621 549.243 129.621 549.243Z" fill="white"/>
<path d="M563.267 299.109C563.019 298.779 562.85 298.389 562.778 297.983C562.506 296.448 563.88 294.843 565.438 294.874C566.997 294.906 568.304 296.566 567.97 298.088C567.637 299.61 565.755 300.571 564.326 299.947C563.909 299.765 563.54 299.473 563.267 299.109V299.109Z" fill="#00160A"/>
<path d="M308.925 138.998C307.866 138.759 307.351 137.431 307.643 136.386C307.936 135.34 308.796 134.557 309.684 133.931C315.728 129.671 324.924 130.773 329.79 136.342C330.177 136.786 330.558 137.306 330.539 137.895C330.52 138.484 329.875 139.055 329.353 138.782C326.614 137.354 323.821 135.906 320.781 135.355C317.741 134.803 314.36 135.275 312.046 137.322C311.123 138.139 310.128 139.27 308.925 138.998V138.998Z" fill="#00160A"/>
<path d="M257.036 138.792C256.704 139.813 255.374 140.186 254.34 139.897C253.306 139.609 252.475 138.863 251.599 138.242C248.717 136.204 245.063 135.425 241.541 135.654C238.018 135.882 234.612 137.062 231.456 138.644C230.733 139.007 229.873 138.165 229.917 137.358C229.962 136.55 230.569 135.894 231.182 135.366C234.464 132.54 238.925 131.249 243.25 131.472C247.576 131.695 251.757 133.356 255.32 135.819C256.332 136.519 257.416 137.621 257.036 138.792Z" fill="black"/>
<path d="M564.753 310.511C564.387 311.001 563.861 311.346 563.329 311.648C562.776 311.961 562.167 312.247 561.533 312.198C560.691 312.133 559.988 311.471 559.641 310.701C558.788 308.804 560.238 306.212 562.317 306.139C564.395 306.065 565.999 308.846 564.753 310.511V310.511Z" fill="#00160A"/>
<path d="M379.781 389.575C380.79 390.038 380.071 391.669 379.041 392.085C378.012 392.502 376.715 392.515 376.044 393.4C375.566 394.03 375.586 394.893 375.633 395.682C375.73 397.295 375.832 399.006 375.064 400.427C374.296 401.848 372.293 402.724 371.012 401.74C369.836 400.837 369.941 399.084 369.9 397.602C369.859 396.119 369.114 394.264 367.633 394.331C360.381 394.663 353.129 394.994 345.877 395.326C344.957 395.368 343.911 395.361 343.285 394.687C342.427 393.764 343.009 392.134 344.092 391.49C345.176 390.845 346.521 390.898 347.779 390.971C353.108 391.279 358.437 391.587 363.765 391.895C364.593 391.942 365.461 391.983 366.21 391.627C366.959 391.272 367.522 390.379 367.219 389.607C366.405 387.54 367.486 384.923 369.522 384.034C370.229 383.725 370.55 382.909 370.725 382.158C370.9 381.406 371.026 380.589 371.561 380.033C372.096 379.477 373.22 379.442 373.501 380.16C374.149 381.818 375.735 382.888 376.85 384.276C377.965 385.663 378.481 387.969 377.07 389.053C377.148 390.07 378.854 389.15 379.781 389.575Z" fill="#6DFA7B"/>
<path d="M237.95 202.395C236.938 202.333 236.518 200.712 237.372 200.167C238.447 200.09 238.92 201.931 237.941 202.382L237.95 202.395Z" fill="#6DFA7B"/>
<path d="M318.842 177.008C318.551 176.484 318.855 175.729 319.427 175.552C319.999 175.375 320.677 175.827 320.733 176.423C320.574 177.199 319.443 177.551 318.872 177.002L318.842 177.008Z" fill="#6DFA7B"/>
<path d="M315.448 167.015C315.021 167.861 313.475 167.625 313.319 166.69C313.632 166.264 314.081 165.94 314.583 165.777C315.009 166.09 315.337 166.535 315.51 167.035L315.448 167.015Z" fill="#6DFA7B"/>
<path d="M294.748 204.71C295.382 204.668 296.023 205.048 296.289 205.625C296.075 206.277 295.265 206.73 294.658 206.409C294.05 206.089 294.109 204.968 294.783 204.839L294.748 204.71Z" fill="#6DFA7B"/>
<path d="M313.742 205.655C314.054 204.876 315.506 205.173 315.487 206.012C315.049 206.447 314.48 206.748 313.875 206.867C313.387 206.7 313.266 205.931 313.678 205.622L313.742 205.655Z" fill="#6DFA7B"/>
<path d="M281.046 170.462C280.406 170.465 279.935 171.288 280.258 171.841C280.58 172.394 281.528 172.39 281.846 171.834C282.164 171.278 281.686 170.459 281.046 170.462Z" fill="#6DFA7B"/>
<path d="M242.442 180.218C241.926 179.831 241.049 180.207 240.972 180.847C240.896 181.487 241.66 182.059 242.252 181.806C242.845 181.552 242.958 180.604 242.442 180.218Z" fill="#6DFA7B"/>
<path d="M328.716 181.755C328.1 181.958 327.4 181.267 327.585 180.645C327.77 180.023 328.718 179.821 329.149 180.306C329.579 180.792 329.278 181.7 328.645 181.841L328.716 181.755Z" fill="#6DFA7B"/>
<path d="M277.369 200.795C277.13 200.196 276.185 200.058 275.785 200.564C275.385 201.07 275.738 201.958 276.377 202.051C277.015 202.144 277.607 201.395 277.369 200.795Z" fill="#6DFA7B"/>
<path d="M276.36 216.632C275.912 216.763 275.566 216.217 275.489 215.756C275.931 214.918 277.464 215.152 277.635 216.084C277.365 216.493 276.842 216.719 276.359 216.636L276.36 216.632Z" fill="#6DFA7B"/>
<path d="M282.481 215.882C281.786 216.054 280.807 215.714 280.877 215.001C281.292 214.573 281.94 214.265 282.479 214.517C283.019 214.769 283.049 215.762 282.461 215.86L282.481 215.882Z" fill="#6DFA7B"/>
<path d="M313.873 215.555C313.586 215.344 313.39 215.013 313.341 214.66C313.641 214.229 314.088 213.903 314.591 213.749C314.887 214.048 315.184 214.348 315.48 214.647C315.153 215.21 314.522 215.583 313.872 215.598L313.873 215.555Z" fill="#6DFA7B"/>
<path d="M286.448 172.259C285.94 172.949 284.617 172.613 284.5 171.764C284.932 170.846 286.652 171.256 286.624 172.27L286.448 172.259Z" fill="#6DFA7B"/>
<path d="M300.531 206.164C299.957 206.718 298.793 206.14 298.887 205.347C298.981 204.555 300.248 204.266 300.677 204.938C300.36 205.171 300.232 205.628 300.381 205.991L300.531 206.164Z" fill="#6DFA7B"/>
<path d="M265.479 170.724C266.095 170.521 266.795 171.211 266.61 171.833C266.425 172.455 265.477 172.658 265.046 172.172C264.615 171.687 264.917 170.779 265.55 170.637L265.479 170.724Z" fill="#6DFA7B"/>
<path d="M280.53 190.872C281.134 190.366 282.235 190.806 282.326 191.589C281.911 191.965 281.346 192.275 280.81 192.114C280.274 191.952 280.019 191.103 280.507 190.827L280.53 190.872Z" fill="#6DFA7B"/>
<path d="M294.26 195.926C294.675 195.083 296.213 195.305 296.372 196.231C295.911 197.074 294.373 196.848 294.175 195.908L294.26 195.926Z" fill="#6DFA7B"/>
<path d="M295.108 200.765C295.533 200.14 296.743 200.545 296.704 201.3C296.429 201.737 295.986 202.065 295.487 202.201C294.99 201.934 294.788 201.233 295.066 200.742L295.108 200.765Z" fill="#6DFA7B"/>
<path d="M315.135 171.368C314.74 170.852 313.785 170.977 313.536 171.578C313.287 172.179 313.872 172.943 314.517 172.858C315.162 172.774 315.531 171.884 315.135 171.368Z" fill="#6DFA7B"/>
<path d="M304.871 219.192C304.993 218.629 305.983 218.902 306.044 219.474C306.106 220.046 305.643 220.526 305.217 220.913C304.894 220.706 304.552 220.476 304.415 220.118C304.279 219.76 304.483 219.256 304.866 219.245L304.871 219.192Z" fill="#6DFA7B"/>
<path d="M257.169 166.528C256.93 165.929 255.985 165.791 255.585 166.297C255.186 166.803 255.539 167.691 256.177 167.784C256.815 167.877 257.407 167.128 257.169 166.528Z" fill="#6DFA7B"/>
<path d="M281.721 219.193C281.395 218.674 280.488 218.708 280.201 219.251C279.915 219.793 280.399 220.561 281.012 220.538C281.624 220.515 282.048 219.712 281.721 219.193Z" fill="#6DFA7B"/>
<path d="M241.531 199.881C241.876 199.491 242.581 199.965 242.565 200.485C242.55 201.005 242.131 201.411 241.742 201.757C240.904 201.623 240.762 200.188 241.557 199.893L241.531 199.881Z" fill="#6DFA7B"/>
<path d="M286.464 210.875C286.109 211.095 285.755 211.315 285.4 211.534C284.751 211.296 284.675 210.218 285.284 209.891C285.893 209.564 286.749 210.222 286.59 210.894L286.464 210.875Z" fill="#6DFA7B"/>
<path d="M327.823 200.39C327.625 199.776 328.824 199.578 329.06 200.179C329.296 200.779 328.819 201.427 328.287 201.792C327.762 201.558 327.421 200.966 327.484 200.395L327.823 200.39Z" fill="#6DFA7B"/>
<path d="M313.334 200.95C313.723 200.389 314.575 200.216 315.153 200.58C315.304 201.421 314.239 202.193 313.487 201.789C313.413 201.513 313.339 201.237 313.265 200.961L313.334 200.95Z" fill="#6DFA7B"/>
<path d="M256.101 195.252C256.717 195.049 257.417 195.739 257.231 196.361C257.046 196.983 256.098 197.186 255.668 196.701C255.237 196.215 255.538 195.307 256.171 195.166L256.101 195.252Z" fill="#6DFA7B"/>
<path d="M323.039 162.353C323.046 161.812 323.61 161.351 324.141 161.45C324.673 161.55 325.031 162.185 324.842 162.692C324.282 163.115 323.384 162.984 322.969 162.418L323.039 162.353Z" fill="#6DFA7B"/>
<path d="M309.359 190.846C309.879 190.428 310.807 190.901 310.775 191.567C310.318 192.277 309.1 192.278 308.642 191.568C308.882 191.328 309.122 191.088 309.362 190.848L309.359 190.846Z" fill="#6DFA7B"/>
<path d="M250.366 205.083C250.891 204.528 251.933 204.623 252.349 205.263C252.033 205.7 251.619 206.146 251.081 206.172C250.543 206.198 250.035 205.498 250.407 205.109L250.366 205.083Z" fill="#6DFA7B"/>
<path d="M328.839 210.684C328.625 210.97 328.297 211.167 327.944 211.222C327.302 210.855 327.304 209.712 327.993 209.447C328.683 209.182 329.428 210.252 328.875 210.743L328.839 210.684Z" fill="#6DFA7B"/>
<path d="M242.165 210.976C242.669 210.626 242.593 209.72 242.037 209.458C241.482 209.197 240.735 209.716 240.787 210.328C240.838 210.94 241.661 211.327 242.165 210.976Z" fill="#6DFA7B"/>
<path d="M328.557 192.344C328.053 192.859 327.203 191.789 327.691 191.259C328.178 190.729 329.123 191 329.558 191.574C329.259 191.873 328.959 192.172 328.66 192.471L328.557 192.344Z" fill="#6DFA7B"/>
<path d="M236.562 167.752C236.424 166.878 237.84 166.307 238.347 167.032C237.925 167.586 237.504 168.14 237.082 168.694C236.775 168.48 236.562 168.136 236.506 167.766L236.562 167.752Z" fill="#6DFA7B"/>
<path d="M241.987 192.344C241.483 192.859 240.633 191.789 241.121 191.259C241.608 190.729 242.553 191 242.988 191.574C242.689 191.873 242.389 192.172 242.089 192.471L241.987 192.344Z" fill="#6DFA7B"/>
<path d="M318.817 167.343C318.387 166.933 318.471 166.118 318.976 165.804C319.481 165.49 320.249 165.775 320.426 166.342C320.176 166.915 319.539 167.294 318.916 167.24L318.817 167.343Z" fill="#6DFA7B"/>
<path d="M255.282 171.754C255.679 171.042 256.871 171.001 257.317 171.683C257.177 172.68 255.392 172.734 255.191 171.747L255.282 171.754Z" fill="#6DFA7B"/>
<path d="M291.608 175.873C291.619 176.381 291.443 176.891 291.121 177.285C290.561 177.6 289.811 176.894 290.005 176.282C290.199 175.669 291.065 175.45 291.598 175.809L291.608 175.873Z" fill="#6DFA7B"/>
<path d="M276.898 210.202C276.717 209.624 275.842 209.427 275.432 209.873C275.021 210.318 275.289 211.175 275.88 211.308C276.471 211.44 277.079 210.781 276.898 210.202Z" fill="#6DFA7B"/>
<path d="M295.755 214.969C296.016 215.653 295.499 216.514 294.773 216.607C294.293 216.403 294.069 215.751 294.322 215.296C294.575 214.84 295.248 214.686 295.674 214.986L295.755 214.969Z" fill="#6DFA7B"/>
<path d="M264.955 220.063C264.955 219.407 265.343 218.765 265.925 218.459C266.345 218.88 266.647 219.529 266.39 220.066C266.132 220.603 265.138 220.619 265.051 220.03L264.955 220.063Z" fill="#6DFA7B"/>
<path d="M319.023 214.602C319.527 214.087 320.377 215.157 319.889 215.687C319.401 216.217 318.457 215.946 318.022 215.372C318.321 215.073 318.621 214.774 318.92 214.475L319.023 214.602Z" fill="#6DFA7B"/>
<path d="M276.098 171.317C276.602 170.802 277.453 171.871 276.965 172.401C276.477 172.932 275.533 172.66 275.097 172.087C275.397 171.788 275.696 171.489 275.996 171.189L276.098 171.317Z" fill="#6DFA7B"/>
<path d="M246.431 201.489C246.063 201.091 246.565 200.388 247.107 200.406C247.649 200.424 248.074 200.871 248.376 201.322C247.947 201.947 246.928 202.042 246.392 201.506L246.431 201.489Z" fill="#6DFA7B"/>
<path d="M256.868 184.86C257.381 184.82 257.587 185.624 257.235 186C256.882 186.375 256.297 186.393 255.786 186.334C255.319 185.698 256.132 184.65 256.864 184.943L256.868 184.86Z" fill="#6DFA7B"/>
<path d="M282.125 229.98C281.59 230.663 280.267 230.312 280.141 229.453C280.598 228.642 282.13 229.053 282.121 229.983L282.125 229.98Z" fill="#6DFA7B"/>
<path d="M255.561 201.763C255.274 201.204 255.651 200.407 256.272 200.314C256.893 200.221 257.494 200.932 257.262 201.516C257.029 202.099 256.049 202.168 255.769 201.605L255.561 201.763Z" fill="#6DFA7B"/>
<path d="M275.999 220.599C275.549 220.744 275.225 220.169 275.104 219.712C275.566 219.002 276.781 218.995 277.251 219.699C276.944 220.126 276.5 220.454 276.001 220.622L275.999 220.599Z" fill="#6DFA7B"/>
<path d="M280.074 181.465C280.247 180.537 281.749 180.273 282.229 181.086C282.004 181.955 280.643 182.218 280.109 181.497L280.074 181.465Z" fill="#6DFA7B"/>
<path d="M328.84 196.135C328.66 195.556 327.784 195.36 327.374 195.805C326.963 196.251 327.231 197.107 327.822 197.24C328.413 197.373 329.021 196.713 328.84 196.135Z" fill="#6DFA7B"/>
<path d="M287 201.672C286.48 202.089 285.552 201.617 285.584 200.951C286.041 200.24 287.259 200.24 287.717 200.95C287.477 201.19 287.237 201.43 286.998 201.669L287 201.672Z" fill="#6DFA7B"/>
<path d="M276.714 228.549C277.165 228.405 277.489 228.979 277.609 229.437C277.147 230.147 275.933 230.154 275.463 229.45C275.77 229.022 276.214 228.695 276.712 228.526L276.714 228.549Z" fill="#6DFA7B"/>
<path d="M334.25 161.631C334.486 161.867 334.723 162.103 334.959 162.34C334.54 162.98 333.457 163.203 333.035 162.565C332.613 161.927 333.8 161.021 334.148 161.702L334.25 161.631Z" fill="#6DFA7B"/>
<path d="M313.898 177.29C314.363 177.698 315.23 177.404 315.351 176.798C315.472 176.191 314.784 175.587 314.198 175.786C313.612 175.984 313.433 176.882 313.898 177.29Z" fill="#6DFA7B"/>
<path d="M285.039 215.577C285.225 215.145 285.905 215.046 286.207 215.408C286.546 215.953 286.238 216.833 285.6 216.906C284.962 216.98 284.525 215.945 285.085 215.63L285.039 215.577Z" fill="#6DFA7B"/>
<path d="M256.154 205.103C256.605 204.959 256.929 205.534 257.049 205.992C256.747 206.422 256.301 206.749 255.8 206.907C255.515 206.685 255.318 206.354 255.257 205.998C255.557 205.697 255.857 205.397 256.157 205.096L256.154 205.103Z" fill="#6DFA7B"/>
<path d="M320.493 191.725C320.619 192.566 319.388 193.212 318.767 192.631C318.502 191.79 319.893 191.01 320.363 191.756L320.493 191.725Z" fill="#6DFA7B"/>
<path d="M271.658 191.043C272.071 191.295 272.299 191.816 272.205 192.29C271.692 192.489 271.128 192.553 270.583 192.473C270.415 192.208 270.351 191.879 270.407 191.57C270.827 191.39 271.247 191.209 271.668 191.029L271.658 191.043Z" fill="#6DFA7B"/>
<path d="M295.499 210.133C295.686 210.518 295.731 210.97 295.622 211.384C295.132 211.81 294.213 211.415 294.184 210.767C294.156 210.118 295.037 209.644 295.562 210.026L295.499 210.133Z" fill="#6DFA7B"/>
<path d="M325.206 201.634C324.635 202.153 323.536 201.739 323.449 200.973C323.639 200.529 324.206 200.291 324.656 200.466C325.105 200.642 325.362 201.201 325.202 201.656L325.206 201.634Z" fill="#6DFA7B"/>
<path d="M276.892 167.035C277.222 167.256 277.369 167.715 277.23 168.087C276.733 168.557 275.737 168.399 275.566 167.737C275.395 167.076 276.494 166.515 276.828 167.111L276.892 167.035Z" fill="#6DFA7B"/>
<path d="M242.314 196.432C242.346 195.826 241.591 195.336 241.05 195.612C240.509 195.889 240.463 196.787 240.972 197.117C241.482 197.448 242.283 197.039 242.314 196.432Z" fill="#6DFA7B"/>
<path d="M290.408 192.955C289.811 192.765 289.767 191.775 290.319 191.479C290.871 191.182 291.637 191.661 291.68 192.286C291.422 192.695 290.901 192.919 290.426 192.825L290.408 192.955Z" fill="#6DFA7B"/>
<path d="M241.34 171.303C240.94 170.765 242.186 170.305 242.468 170.913C242.751 171.52 242.249 172.206 241.704 172.595C241.308 172.341 241.097 171.829 241.199 171.369L241.34 171.303Z" fill="#6DFA7B"/>
<path d="M281.585 210.686C281.37 210.972 281.04 211.169 280.686 211.223C280.4 211.014 280.204 210.685 280.157 210.333C280.444 209.902 280.89 209.58 281.39 209.444C281.881 209.612 282.013 210.381 281.605 210.702L281.585 210.686Z" fill="#6DFA7B"/>
<path d="M324.151 211.048C323.73 211.228 323.309 211.409 322.888 211.589C322.601 211.361 322.401 211.028 322.333 210.668C322.706 210.362 323.137 210.048 323.617 210.086C324.098 210.125 324.513 210.739 324.195 211.102L324.151 211.048Z" fill="#6DFA7B"/>
<path d="M290.506 214.32C290.917 214.533 291.327 214.747 291.738 214.96C291.291 215.433 290.698 215.767 290.062 215.905C289.775 215.696 289.577 215.367 289.528 215.015C289.741 214.728 290.072 214.532 290.426 214.482L290.506 214.32Z" fill="#6DFA7B"/>
<path d="M242.264 214.648C242.594 214.87 242.741 215.329 242.602 215.701C242.105 216.17 241.109 216.012 240.938 215.351C240.767 214.689 241.866 214.128 242.2 214.724L242.264 214.648Z" fill="#6DFA7B"/>
<path d="M275.872 196.971C276.017 197.832 277.661 197.556 277.517 196.695C277.372 195.834 275.728 196.11 275.872 196.971Z" fill="#6DFA7B"/>
<path d="M294.558 175.197C295.334 175.114 295.986 176.103 295.605 176.784C295.227 177.074 294.615 176.979 294.341 176.589C294.068 176.199 294.19 175.592 294.591 175.336L294.558 175.197Z" fill="#6DFA7B"/>
<path d="M237.146 196.201C237.569 195.778 238.377 196.417 238.189 196.985C238 197.553 237.216 197.733 236.682 197.464C236.323 197.053 236.54 196.297 237.062 196.139L237.146 196.201Z" fill="#6DFA7B"/>
<path d="M275.99 185.972C276.426 185.349 277.635 185.766 277.595 186.525C277.244 187.006 276.569 187.22 276.005 187.03C275.741 186.742 275.731 186.257 275.982 185.958L275.99 185.972Z" fill="#6DFA7B"/>
<path d="M319.275 170.834C319.569 171.026 319.762 171.364 319.781 171.715C319.473 172.489 318.034 172.209 318.039 171.376C318.285 170.962 318.81 170.736 319.28 170.84L319.275 170.834Z" fill="#6DFA7B"/>
<path d="M252.064 219.972C252.351 220.531 251.974 221.328 251.353 221.421C250.732 221.514 250.131 220.802 250.363 220.219C250.596 219.635 251.576 219.567 251.856 220.13L252.064 219.972Z" fill="#6DFA7B"/>
<path d="M265.174 210.164C265.774 210.099 266.542 210.127 266.771 210.686C266.5 211.116 266.057 211.434 265.563 211.553C265.279 211.397 264.975 211.221 264.844 210.924C264.712 210.628 264.875 210.19 265.2 210.181L265.174 210.164Z" fill="#6DFA7B"/>
<path d="M328.66 172.272C329.235 172.072 329.405 171.185 328.944 170.786C328.483 170.388 327.63 170.684 327.515 171.283C327.401 171.881 328.084 172.472 328.66 172.272Z" fill="#6DFA7B"/>
<path d="M305.384 176.062C306.026 176.453 305.62 177.684 304.872 177.616C304.445 177.471 304.187 176.952 304.33 176.524C304.473 176.097 304.991 175.837 305.419 175.977L305.384 176.062Z" fill="#6DFA7B"/>
<path d="M286.532 219.365C286.366 218.53 284.772 218.847 284.938 219.682C285.104 220.517 286.698 220.2 286.532 219.365Z" fill="#6DFA7B"/>
<path d="M245.621 172.07C245.787 172.905 247.381 172.588 247.215 171.753C247.05 170.919 245.455 171.236 245.621 172.07Z" fill="#6DFA7B"/>
<path d="M324.689 215.908C324.298 216.55 323.067 216.144 323.135 215.395C323.28 214.968 323.799 214.711 324.227 214.854C324.654 214.997 324.914 215.515 324.773 215.943L324.689 215.908Z" fill="#6DFA7B"/>
<path d="M241.884 165.894C242.507 165.658 243.233 166.422 242.965 167.032C242.415 167.326 241.719 167.328 241.168 167.036C241.24 166.595 241.529 166.195 241.925 165.987L241.884 165.894Z" fill="#6DFA7B"/>
<path d="M276.363 177.316C276.069 177.124 275.875 176.786 275.857 176.435C276.165 175.661 277.604 175.941 277.599 176.774C277.353 177.188 276.828 177.415 276.358 177.31L276.363 177.316Z" fill="#6DFA7B"/>
<path d="M304.329 206.718C304.051 206.214 304.524 205.489 305.097 205.533C305.671 205.576 306.032 206.351 305.701 206.822C305.371 207.293 304.528 207.226 304.27 206.712L304.329 206.718Z" fill="#6DFA7B"/>
<path d="M289.528 181.476C289.72 181.182 290.058 180.988 290.409 180.97C291.183 181.278 290.903 182.717 290.07 182.712C289.656 182.465 289.429 181.941 289.534 181.471L289.528 181.476Z" fill="#6DFA7B"/>
<path d="M329.455 166.128C329.497 166.431 329.539 166.734 329.58 167.038C329.022 167.322 328.329 167.324 327.769 167.043C327.749 166.249 328.753 165.635 329.451 166.015L329.455 166.128Z" fill="#6DFA7B"/>
<path d="M272.203 224.397C271.824 223.638 270.375 224.361 270.753 225.12C271.131 225.879 272.581 225.156 272.203 224.397Z" fill="#6DFA7B"/>
<path d="M305.775 185.777C305.175 185.181 304.036 186.327 304.637 186.923C305.237 187.52 306.376 186.373 305.775 185.777Z" fill="#6DFA7B"/>
<path d="M290.96 166.323C290.581 165.564 289.131 166.286 289.51 167.046C289.888 167.805 291.338 167.082 290.96 166.323Z" fill="#6DFA7B"/>
<path d="M324.193 206.339C323.827 205.549 322.318 206.249 322.685 207.039C323.051 207.829 324.56 207.129 324.193 206.339Z" fill="#6DFA7B"/>
<path d="M240.666 206.169C241.037 206.922 242.476 206.212 242.104 205.459C241.733 204.706 240.294 205.415 240.666 206.169Z" fill="#6DFA7B"/>
<path d="M300.339 220.42C300.146 220.714 299.809 220.908 299.458 220.926C298.683 220.618 298.963 219.179 299.797 219.184C300.21 219.43 300.437 219.955 300.333 220.425L300.339 220.42Z" fill="#6DFA7B"/>
<path d="M272.37 196.088C271.998 195.335 270.56 196.044 270.931 196.797C271.302 197.551 272.741 196.841 272.37 196.088Z" fill="#6DFA7B"/>
<path d="M319.263 180.934C319.72 181.41 319.236 182.371 318.581 182.288C318.106 182.15 317.844 181.531 318.076 181.094C318.308 180.657 318.968 180.527 319.348 180.844L319.263 180.934Z" fill="#6DFA7B"/>
<path d="M285.194 230.165C284.955 229.926 284.716 229.687 284.477 229.447C284.922 228.734 286.136 228.72 286.597 229.423C286.367 229.961 285.768 230.317 285.185 230.262L285.194 230.165Z" fill="#6DFA7B"/>
<path d="M329.742 176.961C329.502 177.2 329.263 177.439 329.023 177.678C328.31 177.233 328.296 176.019 328.999 175.557C329.537 175.787 329.894 176.386 329.838 176.97L329.742 176.961Z" fill="#6DFA7B"/>
<path d="M260.671 176.065C260.864 175.772 261.201 175.578 261.552 175.56C262.327 175.867 262.046 177.306 261.213 177.301C260.799 177.055 260.573 176.53 260.677 176.061L260.671 176.065Z" fill="#6DFA7B"/>
<path d="M243.118 177.33C242.671 177.571 242.038 177.339 241.851 176.867C241.664 176.394 241.969 175.793 242.46 175.663C243.117 175.771 243.477 176.681 243.071 177.209L243.118 177.33Z" fill="#6DFA7B"/>
<path d="M300.394 181.83C300.39 180.99 298.786 180.997 298.79 181.837C298.793 182.677 300.397 182.67 300.394 181.83Z" fill="#6DFA7B"/>
<path d="M291.32 210.69C290.942 209.931 289.492 210.654 289.871 211.413C290.249 212.172 291.699 211.449 291.32 210.69Z" fill="#6DFA7B"/>
<path d="M332.191 172.07C332.357 172.905 333.952 172.588 333.786 171.753C333.62 170.919 332.025 171.236 332.191 172.07Z" fill="#6DFA7B"/>
<path d="M284.634 196.063C285.164 195.509 286.21 195.609 286.624 196.254C286.328 196.683 285.883 197.008 285.384 197.159C285.007 196.913 284.722 196.529 284.595 196.096L284.634 196.063Z" fill="#6DFA7B"/>
<path d="M318.127 195.966C318.716 195.615 319.597 195.987 319.755 196.654C319.414 197.12 318.752 197.323 318.208 197.127C317.944 196.842 317.933 196.358 318.183 196.06L318.127 195.966Z" fill="#6DFA7B"/>
<path d="M285.264 191.186C285.052 190.799 285.532 190.321 285.969 190.382C286.407 190.442 286.723 190.826 286.937 191.213C286.607 191.892 285.459 191.916 285.101 191.252L285.264 191.186Z" fill="#6DFA7B"/>
<path d="M332.991 200.777C333.382 200.135 334.613 200.541 334.545 201.29C334.4 201.717 333.881 201.974 333.453 201.831C333.025 201.688 332.765 201.17 332.906 200.742L332.991 200.777Z" fill="#6DFA7B"/>
<path d="M280.687 195.735C281.191 195.457 281.915 195.929 281.872 196.503C281.829 197.077 281.053 197.437 280.582 197.107C280.111 196.776 280.178 195.934 280.692 195.675L280.687 195.735Z" fill="#6DFA7B"/>
<path d="M284.842 205.642C285.146 205.383 285.635 205.377 285.945 205.627C285.972 206.275 285.588 206.921 285.007 207.207C284.428 206.937 284.322 206.011 284.824 205.617L284.842 205.642Z" fill="#6DFA7B"/>
<path d="M327.376 206.38C327.976 206.976 329.115 205.829 328.515 205.233C327.915 204.637 326.776 205.783 327.376 206.38Z" fill="#6DFA7B"/>
<path d="M271.822 177.525C271.136 176.955 271.938 175.588 272.771 175.908C273.146 176.55 272.588 177.506 271.845 177.496L271.822 177.525Z" fill="#6DFA7B"/>
<path d="M272.009 171.56C271.637 170.806 270.199 171.516 270.57 172.269C270.942 173.022 272.38 172.313 272.009 171.56Z" fill="#6DFA7B"/>
<path d="M236.321 172.63C236.034 172.419 235.838 172.09 235.788 171.737C236.083 171.311 236.523 170.987 237.018 170.833C237.519 171.438 237.101 172.53 236.324 172.645L236.321 172.63Z" fill="#6DFA7B"/>
<path d="M318.58 211.686C318.013 211.684 317.581 210.972 317.85 210.472C318.119 209.973 318.962 209.948 319.253 210.436C319.543 210.923 319.106 211.658 318.54 211.629L318.58 211.686Z" fill="#6DFA7B"/>
<path d="M328.316 161.756C328.823 161.921 329.269 162.268 329.555 162.718C329.151 163.308 328.236 163.464 327.658 163.042C327.824 162.613 327.989 162.185 328.154 161.756L328.316 161.756Z" fill="#6DFA7B"/>
<path d="M280.686 205.639C280.694 205.141 281.227 204.723 281.713 204.833C282.199 204.943 282.5 205.55 282.293 206.003C281.731 206.385 280.866 206.201 280.509 205.622L280.686 205.639Z" fill="#6DFA7B"/>
<path d="M289.432 186.567C289.168 186.063 289.585 185.348 290.154 185.331C290.723 185.314 291.182 186.003 290.948 186.521C290.527 186.802 289.937 186.804 289.515 186.525L289.432 186.567Z" fill="#6DFA7B"/>
<path d="M251.92 166.879C251.746 167.557 250.767 167.855 250.244 167.389C250.047 166.972 250.26 166.402 250.694 166.244C251.128 166.085 251.675 166.417 251.708 166.878L251.92 166.879Z" fill="#6DFA7B"/>
<path d="M245.27 196.834C245.108 196.417 245.344 195.89 245.764 195.734C246.183 195.578 246.707 195.822 246.857 196.244C246.721 196.905 245.832 197.272 245.27 196.9L245.27 196.834Z" fill="#6DFA7B"/>
<path d="M260.847 206.537C260.562 206.32 260.364 205.991 260.307 205.637C260.604 205.343 260.901 205.05 261.199 204.756C261.969 205.085 261.686 206.514 260.849 206.526L260.847 206.537Z" fill="#6DFA7B"/>
<path d="M246.409 211.537C245.839 211.745 245.354 210.815 245.775 210.377C246.196 209.939 247.017 210.161 247.31 210.693C247.013 210.992 246.715 211.29 246.418 211.589L246.409 211.537Z" fill="#6DFA7B"/>
<path d="M245.695 167.945C245.275 167.428 245.749 166.497 246.414 166.533C246.829 166.78 247.058 167.304 246.958 167.776C246.571 167.965 246.12 168.02 245.699 167.929L245.695 167.945Z" fill="#6DFA7B"/>
<path d="M314.937 191.392C315.446 191.53 315.235 192.412 314.719 192.526C314.204 192.64 313.711 192.288 313.307 191.949C313.668 191.457 314.358 191.236 314.937 191.427L314.937 191.392Z" fill="#6DFA7B"/>
<path d="M323.534 191.86C323.253 191.654 322.973 191.449 322.692 191.243C323.134 190.503 324.389 190.48 324.857 191.204C324.606 191.615 324.082 191.841 323.611 191.74L323.534 191.86Z" fill="#6DFA7B"/>
<path d="M332.177 167.71C331.86 167.268 332.278 166.545 332.822 166.565C333.365 166.585 333.74 167.277 333.491 167.761C333.081 168.047 332.494 168.049 332.082 167.767L332.177 167.71Z" fill="#6DFA7B"/>
<path d="M300.346 196.982C299.828 197.401 298.899 196.928 298.932 196.263C299.105 195.963 299.442 195.767 299.788 195.765C300.273 195.938 300.577 196.508 300.449 197.007L300.346 196.982Z" fill="#6DFA7B"/>
<path d="M256.603 214.003C256.885 214.218 257.168 214.432 257.45 214.647C256.992 215.087 256.413 215.401 255.794 215.546C255.37 215.036 255.857 214.104 256.518 214.161L256.603 214.003Z" fill="#6DFA7B"/>
<path d="M252.003 176.062C251.625 175.303 250.175 176.026 250.553 176.785C250.932 177.544 252.382 176.821 252.003 176.062Z" fill="#6DFA7B"/>
<path d="M245.518 215.017C245.734 214.731 246.063 214.533 246.418 214.478C246.703 214.694 246.901 215.023 246.958 215.376C246.658 215.676 246.359 215.975 246.06 216.274C245.653 216.012 245.431 215.492 245.523 215.017L245.518 215.017Z" fill="#6DFA7B"/>
<path d="M280.172 167.379C280.675 167.997 281.854 167.035 281.351 166.418C280.848 165.801 279.669 166.762 280.172 167.379Z" fill="#6DFA7B"/>
<path d="M323.059 186.53C323.016 185.702 324.445 185.371 324.77 186.134C324.664 186.895 323.467 187.182 323.028 186.552L323.059 186.53Z" fill="#6DFA7B"/>
<path d="M332.993 196.802C332.699 197.362 331.625 196.862 331.864 196.276C331.924 195.822 332.496 195.521 332.904 195.729C333.313 195.936 333.407 196.575 333.075 196.891L332.993 196.802Z" fill="#6DFA7B"/>
<path d="M286.087 181.598C285.517 181.807 285.032 180.876 285.453 180.438C285.874 180 286.695 180.222 286.988 180.754C286.691 181.053 286.393 181.351 286.096 181.65L286.087 181.598Z" fill="#6DFA7B"/>
<path d="M251.482 214.546C251.868 214.325 252.356 214.809 252.295 215.25C252.234 215.691 251.844 216.009 251.456 216.227C250.805 215.91 250.832 214.783 251.497 214.498L251.482 214.546Z" fill="#6DFA7B"/>
<path d="M265.371 168.132C265.188 167.37 266.169 166.492 266.736 167.032C266.701 167.461 266.649 167.928 266.348 168.236C266.046 168.543 265.406 168.521 265.285 168.108L265.371 168.132Z" fill="#6DFA7B"/>
<path d="M301.074 224.023C301.118 224.851 299.689 225.182 299.364 224.419C299.469 223.658 300.667 223.371 301.105 224.001L301.074 224.023Z" fill="#6DFA7B"/>
<path d="M261.386 214.641C260.562 214.754 260.777 216.326 261.6 216.213C262.423 216.101 262.209 214.529 261.386 214.641Z" fill="#6DFA7B"/>
<path d="M299.431 214.486C300.144 214.943 300.154 216.162 299.448 216.629C298.737 216.164 298.734 214.944 299.443 214.476L299.431 214.486Z" fill="#6DFA7B"/>
<path d="M266.429 181.466C265.859 181.851 264.985 181.669 264.618 181.087C264.993 180.784 265.424 180.47 265.905 180.509C266.386 180.547 266.801 181.165 266.48 181.525L266.429 181.466Z" fill="#6DFA7B"/>
<path d="M281.412 225.298C281.117 225.858 280.043 225.358 280.283 224.772C280.343 224.318 280.914 224.017 281.323 224.225C281.731 224.432 281.825 225.071 281.494 225.387L281.412 225.298Z" fill="#6DFA7B"/>
<path d="M237.392 187.008C236.821 187.217 236.336 186.287 236.757 185.849C237.178 185.41 237.999 185.632 238.293 186.165C237.995 186.463 237.698 186.762 237.4 187.061L237.392 187.008Z" fill="#6DFA7B"/>
<path d="M315.319 162.896C315.024 163.456 313.95 162.956 314.19 162.37C314.25 161.915 314.821 161.615 315.229 161.822C315.638 162.03 315.732 162.668 315.401 162.985L315.319 162.896Z" fill="#6DFA7B"/>
<path d="M294.884 171.39C295.103 171.96 294.88 172.666 294.375 173.008C294.043 172.599 293.69 172.11 293.803 171.595C293.915 171.081 294.803 170.876 294.927 171.388L294.884 171.39Z" fill="#6DFA7B"/>
<path d="M281.408 200.766C281.827 201.284 281.355 202.213 280.689 202.179C280.39 202.007 280.193 201.669 280.191 201.323C280.364 200.839 280.935 200.535 281.434 200.662L281.408 200.766Z" fill="#6DFA7B"/>
<path d="M285.081 167.587C285.032 168.372 286.533 168.467 286.582 167.681C286.631 166.895 285.13 166.801 285.081 167.587Z" fill="#6DFA7B"/>
<path d="M309.9 180.57C310.187 180.781 310.384 181.111 310.432 181.465C310.176 181.874 309.656 182.1 309.183 182.006C308.755 181.497 309.239 180.56 309.902 180.614L309.9 180.57Z" fill="#6DFA7B"/>
<path d="M290.603 229.442C290.387 229.729 290.057 229.926 289.703 229.981C289.417 229.766 289.22 229.437 289.166 229.083C289.439 228.758 289.831 228.463 290.251 228.528C290.672 228.592 290.949 229.211 290.606 229.462L290.603 229.442Z" fill="#6DFA7B"/>
<path d="M324.505 181.098C324.14 181.663 323.291 181.843 322.729 181.473C322.472 181.088 322.878 180.535 323.339 180.5C323.8 180.466 324.216 180.773 324.531 181.111L324.505 181.098Z" fill="#6DFA7B"/>
<path d="M255.714 177.07C255.363 176.646 255.767 175.886 256.317 175.909C256.866 175.932 257.219 176.667 256.922 177.129C256.624 177.591 255.852 177.604 255.511 177.173L255.714 177.07Z" fill="#6DFA7B"/>
<path d="M271.825 220.068C271.931 220.354 271.87 220.695 271.671 220.927C271.117 221.186 270.336 220.662 270.474 220.067C270.612 219.472 271.71 219.492 271.741 220.102L271.825 220.068Z" fill="#6DFA7B"/>
<path d="M318.933 206.125C318.53 206.09 318.501 205.43 318.834 205.201C319.167 204.971 319.614 205.047 320.009 205.132C320.197 205.383 320.264 205.721 320.185 206.024C319.795 206.207 319.344 206.258 318.923 206.166L318.933 206.125Z" fill="#6DFA7B"/>
<path d="M280.685 175.879C281.047 175.878 281.408 175.878 281.769 175.878C281.939 176.144 282.003 176.477 281.944 176.787C281.538 176.949 281.069 177.11 280.68 176.91C280.29 176.711 280.264 175.978 280.699 175.929L280.685 175.879Z" fill="#6DFA7B"/>
<path d="M301.131 176.283C300.85 175.548 299.446 176.085 299.727 176.82C300.008 177.555 301.412 177.018 301.131 176.283Z" fill="#6DFA7B"/>
<path d="M323.089 177.508C322.998 177.101 323.085 176.615 323.43 176.38C323.775 176.145 324.37 176.358 324.371 176.775C324.306 177.138 324.221 177.537 323.926 177.758C323.631 177.979 323.078 177.825 323.093 177.457L323.089 177.508Z" fill="#6DFA7B"/>
<path d="M237.473 177.852C236.905 178.044 236.265 177.368 236.487 176.812C236.71 176.256 237.639 176.208 237.918 176.737C237.744 177.051 237.57 177.364 237.395 177.678L237.473 177.852Z" fill="#6DFA7B"/>
<path d="M259.945 225.122C259.885 224.459 260.826 223.97 261.334 224.401C261.554 224.767 261.403 225.303 261.025 225.5C260.647 225.697 260.121 225.515 259.946 225.126L259.945 225.122Z" fill="#6DFA7B"/>
<path d="M305.47 201.752C306.046 201.224 305.037 200.123 304.46 200.652C303.884 201.18 304.894 202.281 305.47 201.752Z" fill="#6DFA7B"/>
<path d="M276.715 207.22C276.219 207.379 275.715 206.738 275.926 206.262C276.136 205.786 276.846 205.669 277.253 205.994C277.375 206.467 277.137 207.007 276.707 207.237L276.715 207.22Z" fill="#6DFA7B"/>
<path d="M308.943 163.855C308.401 163.325 309.209 162.228 309.876 162.589C310.396 163.102 309.622 164.159 308.976 163.818L308.943 163.855Z" fill="#6DFA7B"/>
<path d="M277.077 181.272C276.472 181.34 275.698 181.299 275.468 180.735C275.832 180.263 276.503 180.054 277.07 180.236C277.333 180.525 277.343 181.01 277.093 181.31L277.077 181.272Z" fill="#6DFA7B"/>
<path d="M304.287 171.313C304.899 171.059 305.635 171.829 305.353 172.43C305.065 172.734 304.519 172.737 304.227 172.437C303.935 172.136 303.954 171.591 304.267 171.311L304.287 171.313Z" fill="#6DFA7B"/>
<path d="M299.263 166.682C299.479 166.396 299.809 166.198 300.163 166.144C300.449 166.358 300.647 166.688 300.7 167.041C300.486 167.327 300.156 167.524 299.803 167.578C299.516 167.364 299.319 167.033 299.269 166.679L299.263 166.682Z" fill="#6DFA7B"/>
<path d="M277.023 191.634C276.636 192.294 275.489 192.258 275.145 191.575C275.473 190.891 276.626 190.859 276.992 191.524L277.023 191.634Z" fill="#6DFA7B"/>
<path d="M251.457 210.119C251.845 210.068 252.137 210.559 252.011 210.929C251.884 211.299 251.491 211.516 251.106 211.584C250.821 211.37 250.624 211.04 250.571 210.687C250.784 210.4 251.115 210.203 251.469 210.154L251.457 210.119Z" fill="#6DFA7B"/>
<path d="M291.239 220.226C291.255 220.508 291.272 220.79 291.288 221.071C290.939 221.57 289.982 221.301 289.944 220.694C289.906 220.087 290.823 219.701 291.231 220.153L291.239 220.226Z" fill="#6DFA7B"/>
<path d="M309.901 205.098C310.187 205.313 310.385 205.643 310.439 205.998C310.225 206.284 309.895 206.481 309.542 206.535C309.256 206.32 309.059 205.991 309.005 205.637C309.219 205.35 309.55 205.153 309.904 205.103L309.901 205.098Z" fill="#6DFA7B"/>
<path d="M265.391 225.475C265.259 225.076 265.37 224.577 265.727 224.354C266.084 224.132 266.657 224.33 266.717 224.746C266.565 225.057 266.412 225.369 266.259 225.68C265.954 225.645 265.649 225.61 265.344 225.575L265.391 225.475Z" fill="#6DFA7B"/>
<path d="M291.358 172.093C291.4 172.576 290.884 173.02 290.413 172.906C289.941 172.792 289.684 172.162 289.942 171.751C290.338 171.371 291.116 171.587 291.261 172.116L291.358 172.093Z" fill="#6DFA7B"/>
<path d="M250.715 201.107C251.075 200.584 252.096 201.037 251.95 201.655C251.799 201.966 251.461 202.177 251.115 202.177C250.717 202.024 250.52 201.49 250.725 201.116L250.715 201.107Z" fill="#6DFA7B"/>
<path d="M323.641 170.821C324.083 171.508 323.215 172.548 322.46 172.237C322.356 171.56 322.927 170.857 323.612 170.821L323.641 170.821Z" fill="#6DFA7B"/>
<path d="M245.502 186.163C245.48 185.488 246.409 185.013 246.944 185.424C247.222 186.171 245.942 186.838 245.489 186.182L245.502 186.163Z" fill="#6DFA7B"/>
<path d="M332.261 185.613C332.506 185.291 332.962 185.148 333.347 185.273C333.525 185.522 333.589 185.849 333.517 186.146C333.22 186.32 332.923 186.493 332.626 186.667C332.232 186.507 332.042 185.977 332.245 185.603L332.261 185.613Z" fill="#6DFA7B"/>
<path d="M295.315 166.649C295.838 167.009 295.385 168.03 294.768 167.884C294.456 167.733 294.245 167.395 294.245 167.049C294.398 166.651 294.932 166.454 295.306 166.659L295.315 166.649Z" fill="#6DFA7B"/>
<path d="M251.669 171.699C252.192 172.059 251.74 173.08 251.122 172.934C250.811 172.783 250.599 172.445 250.6 172.099C250.752 171.701 251.286 171.504 251.661 171.709L251.669 171.699Z" fill="#6DFA7B"/>
<path d="M296.009 185.436C295.621 185.997 294.77 186.169 294.194 185.804C294.183 184.953 295.656 184.664 295.968 185.456L296.009 185.436Z" fill="#6DFA7B"/>
<path d="M264.996 206.36C265.212 206.074 265.542 205.877 265.896 205.822C266.182 206.036 266.379 206.366 266.433 206.719C266.218 207.005 265.889 207.202 265.535 207.256C265.248 207.042 265.052 206.711 265.002 206.357L264.996 206.36Z" fill="#6DFA7B"/>
<path d="M272.207 181.829C271.991 182.115 271.661 182.312 271.307 182.367C271.021 182.153 270.824 181.823 270.77 181.47C270.985 181.184 271.314 180.987 271.668 180.933C271.955 181.147 272.151 181.478 272.201 181.832L272.207 181.829Z" fill="#6DFA7B"/>
<path d="M323.108 196.643C323.392 195.984 324.509 195.958 324.824 196.603C324.504 197.294 323.343 197.334 322.976 196.667L323.108 196.643Z" fill="#6DFA7B"/>
<path d="M295.281 229.423C294.982 229.606 294.683 229.788 294.384 229.97C294.1 229.763 293.907 229.435 293.863 229.086C294.122 228.678 294.642 228.453 295.116 228.545C295.289 228.806 295.35 229.137 295.282 229.442L295.281 229.423Z" fill="#6DFA7B"/>
<path d="M294.573 219.708C294.406 219.306 295.062 219.107 295.493 219.17C295.68 219.557 295.734 220.007 295.642 220.427C295.384 220.6 295.055 220.664 294.75 220.602C294.578 220.342 294.517 220.011 294.585 219.707L294.573 219.708Z" fill="#6DFA7B"/>
<path d="M264.996 177.143C265.212 176.856 265.542 176.659 265.896 176.604C266.182 176.819 266.379 177.148 266.433 177.502C266.218 177.788 265.889 177.985 265.535 178.038C265.248 177.825 265.052 177.494 265.002 177.139L264.996 177.143Z" fill="#6DFA7B"/>
<path d="M314.227 185.62C314.624 185.443 314.829 186.102 314.764 186.532C314.377 186.72 313.929 186.777 313.508 186.693C313.337 186.431 313.273 186.102 313.334 185.795C313.594 185.623 313.925 185.562 314.229 185.63L314.227 185.62Z" fill="#6DFA7B"/>
<path d="M251.99 181.474C252.081 181.774 252.024 182.116 251.84 182.37C251.528 182.444 251.186 182.38 250.922 182.198C250.925 181.836 250.928 181.474 250.931 181.112C251.235 180.721 252.001 180.975 252.012 181.47L251.99 181.474Z" fill="#6DFA7B"/>
<path d="M266.649 197.182C266.289 197.705 265.268 197.252 265.414 196.634C265.565 196.323 265.903 196.112 266.249 196.112C266.647 196.265 266.844 196.799 266.639 197.173L266.649 197.182Z" fill="#6DFA7B"/>
<path d="M257.043 180.436C257.394 180.513 257.524 181.05 257.247 181.279C256.647 181.34 255.882 181.309 255.653 180.752C255.904 180.254 256.61 180.055 257.085 180.348L257.043 180.436Z" fill="#6DFA7B"/>
<path d="M276.716 224.576C277.002 224.792 277.2 225.122 277.254 225.476C277.04 225.762 276.71 225.959 276.357 226.013C276.071 225.798 275.874 225.469 275.82 225.115C276.034 224.828 276.365 224.632 276.719 224.582L276.716 224.576Z" fill="#6DFA7B"/>
<path d="M289.518 195.89C289.976 195.556 290.72 195.758 290.948 196.276C290.583 196.746 289.913 196.954 289.346 196.772C289.104 196.527 289.216 196.041 289.541 195.927L289.518 195.89Z" fill="#6DFA7B"/>
<path d="M261.599 192.493C261.239 193.016 260.218 192.563 260.364 191.945C260.515 191.634 260.853 191.423 261.199 191.423C261.598 191.576 261.794 192.109 261.589 192.484L261.599 192.493Z" fill="#6DFA7B"/>
<path d="M290.442 205.445C290.05 204.843 288.9 205.592 289.292 206.194C289.684 206.796 290.834 206.047 290.442 205.445Z" fill="#6DFA7B"/>
<path d="M251.898 196.443C251.819 197.198 250.506 197.335 250.272 196.613C250.531 196.032 251.461 195.926 251.845 196.432L251.898 196.443Z" fill="#6DFA7B"/>
<path d="M285.397 225.601C284.618 225.306 284.898 223.856 285.732 223.874C286.116 224.431 285.94 225.292 285.369 225.654L285.397 225.601Z" fill="#6DFA7B"/>
<path d="M246.704 181.4C246.429 181.198 246.154 180.997 245.878 180.795C246.165 180.103 247.341 180.077 247.657 180.756C247.454 181.043 247.125 181.238 246.776 181.28L246.704 181.4Z" fill="#6DFA7B"/>
<path d="M299.619 209.957C300.148 210.318 300.046 211.276 299.453 211.518C298.737 211.28 298.866 209.981 299.615 209.89L299.619 209.957Z" fill="#6DFA7B"/>
<path d="M323.231 167.955C323.623 168.557 324.773 167.808 324.381 167.206C323.989 166.604 322.839 167.353 323.231 167.955Z" fill="#6DFA7B"/>
<path d="M289.561 224.056C289.85 223.395 290.973 223.374 291.285 224.025C290.981 224.685 289.847 224.679 289.551 224.015L289.561 224.056Z" fill="#6DFA7B"/>
<path d="M271.016 166.967C271.217 166.692 271.419 166.416 271.62 166.141C272.313 166.427 272.339 167.604 271.659 167.92C271.373 167.716 271.178 167.388 271.136 167.039L271.016 166.967Z" fill="#6DFA7B"/>
<path d="M314.253 181.243C313.793 181.169 313.85 180.375 314.29 180.217C314.729 180.06 315.208 180.367 315.479 180.747C315.225 181.156 314.703 181.379 314.233 181.28L314.253 181.243Z" fill="#6DFA7B"/>
<path d="M309.04 196.278C309.269 195.768 309.991 195.56 310.456 195.871C310.596 196.265 310.341 196.752 309.937 196.861C309.533 196.969 309.068 196.676 308.992 196.265L309.04 196.278Z" fill="#6DFA7B"/>
<path d="M266.235 190.713C266.695 190.788 266.638 191.582 266.199 191.74C265.759 191.897 265.28 191.59 265.01 191.21C265.264 190.801 265.785 190.578 266.256 190.677L266.235 190.713Z" fill="#6DFA7B"/>
<path d="M304.474 197.172C304.866 197.774 306.017 197.025 305.624 196.423C305.232 195.821 304.082 196.57 304.474 197.172Z" fill="#6DFA7B"/>
<path d="M272.581 215.755C273.183 215.363 272.434 214.213 271.832 214.605C271.23 214.997 271.979 216.147 272.581 215.755Z" fill="#6DFA7B"/>
<path d="M318.846 186.81C318.571 186.609 318.295 186.407 318.02 186.206C318.306 185.513 319.483 185.487 319.799 186.167C319.595 186.454 319.267 186.649 318.918 186.691L318.846 186.81Z" fill="#6DFA7B"/>
<path d="M315.095 196.236C314.806 196.897 313.683 196.917 313.371 196.267C313.674 195.607 314.808 195.613 315.105 196.277L315.095 196.236Z" fill="#6DFA7B"/>
<path d="M329.162 186.136C328.873 186.797 327.75 186.818 327.438 186.167C327.742 185.507 328.876 185.513 329.172 186.177L329.162 186.136Z" fill="#6DFA7B"/>
<path d="M259.801 210.98C259.998 210.567 260.195 210.155 260.392 209.742C260.785 210.012 261.141 210.461 261.028 210.924C260.916 211.387 260.1 211.519 260.005 211.052L259.801 210.98Z" fill="#6DFA7B"/>
<path d="M333.642 181.433C333.229 181.236 332.817 181.039 332.404 180.842C332.673 180.449 333.123 180.093 333.586 180.205C334.049 180.317 334.181 181.134 333.714 181.228L333.642 181.433Z" fill="#6DFA7B"/>
<path d="M309.189 214.492C309.506 214.405 309.86 214.467 310.128 214.656C309.986 215.168 309.64 215.62 309.183 215.891C308.623 215.683 308.632 214.712 309.196 214.514L309.189 214.492Z" fill="#6DFA7B"/>
<path d="M236.659 191.634C236.433 190.814 238.013 190.401 238.217 191.226C237.989 191.72 237.28 191.91 236.835 191.597L236.659 191.634Z" fill="#6DFA7B"/>
<path d="M236.701 181.604C236.24 181.53 236.298 180.735 236.737 180.578C237.176 180.42 237.656 180.727 237.926 181.108C237.672 181.516 237.151 181.739 236.68 181.641L236.701 181.604Z" fill="#6DFA7B"/>
<path d="M305.424 209.964C305.404 210.326 305.178 210.669 304.854 210.832C304.189 210.527 304.196 209.386 304.864 209.089C305.149 209.293 305.343 209.621 305.385 209.969L305.424 209.964Z" fill="#6DFA7B"/>
<path d="M246.425 207.318C245.88 207.324 245.797 206.535 245.906 206C246.181 205.727 246.677 205.725 246.954 205.995C247.075 206.467 246.837 207.008 246.407 207.238L246.425 207.318Z" fill="#6DFA7B"/>
<path d="M310.396 210.699C310.219 209.994 308.872 210.331 309.048 211.036C309.225 211.742 310.572 211.405 310.396 210.699Z" fill="#6DFA7B"/>
<path d="M309.697 172.768C309.308 172.988 308.886 172.356 309.114 171.972C309.343 171.589 309.863 171.504 310.308 171.543C310.489 172.014 310.185 172.608 309.698 172.737L309.697 172.768Z" fill="#6DFA7B"/>
<path d="M295.091 180.614C295.552 180.688 295.494 181.483 295.055 181.64C294.616 181.798 294.136 181.49 293.866 181.11C294.12 180.702 294.641 180.479 295.112 180.577L295.091 180.614Z" fill="#6DFA7B"/>
<path d="M242.47 185.734C242.696 186.553 241.116 186.967 240.912 186.141C241.14 185.648 241.849 185.457 242.294 185.77L242.47 185.734Z" fill="#6DFA7B"/>
<path d="M266.605 200.769C266.97 201.173 266.786 201.925 266.276 202.117C265.472 201.933 265.864 200.391 266.659 200.614L266.605 200.769Z" fill="#6DFA7B"/>
<path d="M281.114 185.247C281.164 185.554 281.213 185.861 281.263 186.167C280.806 186.509 280.051 186.314 279.817 185.793C280.06 185.384 280.582 185.162 281.046 185.27L281.114 185.247Z" fill="#6DFA7B"/>
<path d="M255.989 220.787C255.246 220.964 255.141 219.606 255.787 219.199C256.372 219.47 256.491 220.399 255.992 220.807L255.989 220.787Z" fill="#6DFA7B"/>
<path d="M272.367 229.309C272.827 229.384 272.77 230.178 272.331 230.336C271.892 230.493 271.412 230.186 271.142 229.806C271.396 229.397 271.917 229.174 272.388 229.273L272.367 229.309Z" fill="#6DFA7B"/>
<path d="M309.704 185.443C309.792 185.742 309.737 186.081 309.557 186.336C309.084 186.445 308.538 186.233 308.313 185.803C308.566 185.305 309.272 185.106 309.748 185.397L309.704 185.443Z" fill="#6DFA7B"/>
<path d="M308.282 167.046C308.483 166.755 308.819 166.56 309.172 166.529C309.724 166.756 309.728 167.703 309.178 167.935C308.878 167.637 308.579 167.339 308.279 167.041L308.282 167.046Z" fill="#6DFA7B"/>
<path d="M251.286 186.147C250.882 186.511 250.129 186.328 249.938 185.818C250.122 185.013 251.664 185.406 251.441 186.2L251.286 186.147Z" fill="#6DFA7B"/>
<path d="M291.166 201.244C291.391 202.064 289.812 202.477 289.607 201.652C289.836 201.158 290.545 200.968 290.989 201.281L291.166 201.244Z" fill="#6DFA7B"/>
<path d="M298.881 171.33C299.272 171.144 299.798 171.339 299.973 171.735C299.677 172.029 299.382 172.323 299.087 172.617C298.602 172.436 298.479 171.676 298.883 171.351L298.881 171.33Z" fill="#6DFA7B"/>
<path d="M303.926 167.804C303.568 167.554 303.562 166.939 303.917 166.682C304.271 166.426 304.854 166.624 304.979 167.043C304.771 167.434 304.383 167.725 303.949 167.815L303.926 167.804Z" fill="#6DFA7B"/>
<path d="M305.089 215.377C305.051 215.878 304.286 216.118 303.969 215.729C303.806 215.254 304.109 214.72 304.537 214.458C304.721 214.753 304.905 215.047 305.089 215.342L305.089 215.377Z" fill="#6DFA7B"/>
<path d="M338.033 176.942C337.733 177.031 337.395 176.975 337.139 176.796C337.03 176.323 337.242 175.777 337.672 175.552C338.17 175.805 338.37 176.511 338.078 176.987L338.033 176.942Z" fill="#6DFA7B"/>
<path d="M285.009 176.965C284.671 176.518 284.866 175.773 285.381 175.55C285.788 175.8 286.01 176.318 285.91 176.785C285.65 176.956 285.32 177.017 285.016 176.949L285.009 176.965Z" fill="#6DFA7B"/>
<path d="M308.891 176.345C309.094 176.067 309.298 175.788 309.501 175.51C309.944 175.737 310.192 176.288 310.07 176.77C309.777 177.169 309 176.913 309.002 176.417L308.891 176.345Z" fill="#6DFA7B"/>
<path d="M314.588 220.611C314.249 220.164 314.444 219.419 314.959 219.196C315.366 219.446 315.588 219.964 315.488 220.43C315.228 220.601 314.898 220.662 314.594 220.595L314.588 220.611Z" fill="#6DFA7B"/>
<path d="M260.483 186.354C260.252 186.036 260.382 185.523 260.736 185.354C261.09 185.184 261.571 185.405 261.673 185.784C261.528 186.276 260.942 186.588 260.452 186.434L260.483 186.354Z" fill="#6DFA7B"/>
<path d="M256.225 223.349C256.635 223.545 257.045 223.741 257.455 223.936C257.225 224.396 256.669 224.668 256.164 224.568C255.907 224.268 255.894 223.786 256.135 223.472L256.225 223.349Z" fill="#6DFA7B"/>
<path d="M295.545 224.563C295.591 224.866 295.637 225.169 295.683 225.473C295.425 225.654 295.083 225.71 294.781 225.62C294.254 225.207 294.928 224.174 295.518 224.49L295.545 224.563Z" fill="#6DFA7B"/>
<path d="M310.114 220.425C310.09 220.788 309.865 221.132 309.541 221.298C309.117 221.074 308.887 220.535 309.018 220.072C309.313 219.677 310.085 219.936 310.081 220.43L310.114 220.425Z" fill="#6DFA7B"/>
<path d="M300.164 186.339C299.927 186.562 299.689 186.785 299.452 187.008C298.957 186.906 298.766 186.151 299.153 185.827C299.541 185.502 300.251 185.822 300.264 186.327L300.164 186.339Z" fill="#6DFA7B"/>
<path d="M333.5 176.428C333.71 176.978 333.225 177.665 332.637 177.652C332.133 177.117 332.888 176.071 333.554 176.382L333.5 176.428Z" fill="#6DFA7B"/>
<path d="M333.353 192.111C332.95 192.281 332.75 191.62 332.814 191.188C333.269 190.862 334.004 191.067 334.223 191.582C334.02 191.867 333.693 192.06 333.346 192.102L333.353 192.111Z" fill="#6DFA7B"/>
<path d="M246.949 176.779C247.039 177.314 246.346 177.791 245.877 177.517C245.86 177.124 245.865 176.675 246.159 176.415C246.452 176.154 247.077 176.415 246.933 176.78L246.949 176.779Z" fill="#6DFA7B"/>
<path d="M304.136 225.293C303.845 225.092 303.65 224.756 303.619 224.403C303.846 223.851 304.793 223.847 305.025 224.397C304.727 224.697 304.429 224.996 304.131 225.296L304.136 225.293Z" fill="#6DFA7B"/>
<path d="M271.308 211.227C271.022 211.011 270.825 210.681 270.77 210.327C270.986 210.041 271.315 209.843 271.669 209.788C272.018 210.228 271.811 210.984 271.287 211.186L271.308 211.227Z" fill="#6DFA7B"/>
<path d="M304.111 192.491C303.829 192.033 304.288 191.337 304.819 191.416C305.352 191.827 304.686 192.869 304.089 192.559L304.111 192.491Z" fill="#6DFA7B"/>
<path d="M247.441 191.131C247.784 191.735 246.712 192.449 246.287 191.899C245.917 191.39 246.903 190.746 247.32 191.218L247.441 191.131Z" fill="#6DFA7B"/>
<path d="M318.924 162.556C319.212 162.445 319.56 162.511 319.786 162.721C320.029 163.169 319.527 163.8 319.035 163.664C318.543 163.527 318.438 162.728 318.877 162.469L318.924 162.556Z" fill="#6DFA7B"/>
<path d="M314.973 209.766C315.255 210.223 314.796 210.92 314.265 210.841C313.732 210.43 314.398 209.388 314.995 209.697L314.973 209.766Z" fill="#6DFA7B"/>
<path d="M299.616 192.629C299.143 192.849 298.847 192.086 298.908 191.568C299.162 191.266 299.709 191.295 299.93 191.622C300.151 191.95 299.974 192.468 299.599 192.591L299.616 192.629Z" fill="#6DFA7B"/>
<path d="M266.633 185.966C266.854 186.295 266.706 186.808 266.345 186.969C265.983 187.131 265.502 186.898 265.406 186.513C265.636 186.099 266.162 185.875 266.62 185.996L266.633 185.966Z" fill="#6DFA7B"/>
<path d="M271.859 186.589C271.556 186.637 271.252 186.685 270.949 186.733C270.646 186.286 271.123 185.571 271.652 185.678C272.007 185.757 272.136 186.301 271.854 186.531L271.859 186.589Z" fill="#6DFA7B"/>
<path d="M260.86 172.644C260.212 172.806 260.298 171.625 260.834 171.226C261.401 171.416 261.399 172.4 260.831 172.588L260.86 172.644Z" fill="#6DFA7B"/>
<path d="M256.178 210.126C256.46 210.584 256.001 211.28 255.469 211.201C254.937 210.79 255.602 209.748 256.199 210.058L256.178 210.126Z" fill="#6DFA7B"/>
<path d="M250.444 192.215C250.641 191.967 250.838 191.718 251.034 191.47C251.486 191.488 251.791 192.09 251.538 192.465C251.285 192.84 250.613 192.783 250.427 192.371L250.444 192.215Z" fill="#6DFA7B"/>
<path d="M304.458 180.948C304.258 180.566 304.46 180.031 304.862 179.875C305.15 180.068 305.343 180.397 305.369 180.743C305.248 181.088 304.732 181.205 304.474 180.947L304.458 180.948Z" fill="#6DFA7B"/>
<path d="M255.402 192.129C255.202 191.747 255.403 191.213 255.805 191.057C256.094 191.25 256.287 191.579 256.312 191.925C256.192 192.27 255.675 192.387 255.418 192.129L255.402 192.129Z" fill="#6DFA7B"/>
<path d="M338.111 171.544C338.158 171.86 338.206 172.176 338.253 172.493C337.939 172.555 337.624 172.617 337.31 172.679C337.013 172.208 337.479 171.482 338.03 171.556L338.111 171.544Z" fill="#6DFA7B"/>
<path d="M261.24 196.061C261.499 196.545 261.025 197.231 260.481 197.16C260.314 196.894 260.251 196.565 260.308 196.256C260.569 196.084 260.901 196.022 261.206 196.09L261.24 196.061Z" fill="#6DFA7B"/>
<path d="M260.506 181.96C259.939 181.791 259.923 180.81 260.484 180.623C261.047 180.808 261.033 181.792 260.466 181.962L260.506 181.96Z" fill="#6DFA7B"/>
<path d="M261.4 220.418C261.433 220.767 261.193 221.123 260.857 221.222C260.416 221.168 260.164 220.555 260.439 220.206C260.715 219.857 261.369 219.959 261.525 220.376L261.4 220.418Z" fill="#6DFA7B"/>
<path d="M265.501 215.936C265.302 215.554 265.503 215.019 265.905 214.864C266.194 215.056 266.386 215.386 266.412 215.732C266.292 216.076 265.775 216.194 265.518 215.936L265.501 215.936Z" fill="#6DFA7B"/>
<path d="M260.641 166.686C260.678 166.145 261.318 165.603 261.732 165.953C261.788 166.306 261.79 166.717 261.529 166.961C261.268 167.206 260.702 167.023 260.774 166.673L260.641 166.686Z" fill="#6DFA7B"/>
<path d="M309.718 201.996C309.375 202.165 308.956 201.752 309.031 201.377C309.106 201.002 309.514 200.767 309.896 200.764C310.211 201.128 310.125 201.763 309.723 202.029L309.718 201.996Z" fill="#6DFA7B"/>
<path d="M271.001 205.558C271.2 205.315 271.399 205.072 271.598 204.829C272.025 204.811 272.353 205.366 272.132 205.731C271.91 206.097 271.267 206.063 271.085 205.676L271.001 205.558Z" fill="#6DFA7B"/>
<path d="M300.16 202.194C299.852 202.272 299.514 202.221 299.244 202.056C299.247 201.571 299.669 201.058 300.144 201.159C300.618 201.26 300.616 202.156 300.132 202.13L300.16 202.194Z" fill="#6DFA7B"/>
<path d="M295.455 190.724C295.863 190.837 296.072 191.39 295.84 191.744C295.498 191.826 295.121 191.746 294.843 191.532C295.033 191.232 295.223 190.931 295.414 190.631L295.455 190.724Z" fill="#6DFA7B"/>
<path d="M260.647 200.522C261.235 200.5 260.947 201.468 260.481 201.828C260.174 201.468 260.269 200.841 260.67 200.589L260.647 200.522Z" fill="#6DFA7B"/>
<path d="M318.732 200.586C319.202 200.814 319.079 201.67 318.564 201.756C317.951 201.636 318.133 200.477 318.752 200.55L318.732 200.586Z" fill="#6DFA7B"/>
<path d="M284.78 186.28C284.486 186.119 284.67 185.61 284.996 185.532C285.322 185.453 285.646 185.641 285.929 185.821C285.914 186.315 285.131 186.544 284.852 186.136L284.78 186.28Z" fill="#6DFA7B"/>
<path d="M272.029 201.842C271.802 202.312 270.945 202.189 270.86 201.673C270.98 201.061 272.138 201.242 272.066 201.862L272.029 201.842Z" fill="#6DFA7B"/>
<path d="M246.271 219.359C246.404 218.936 247.136 218.924 247.282 219.343C247.138 219.764 246.403 219.754 246.272 219.329L246.271 219.359Z" fill="#6DFA7B"/>
<path d="M265.749 229.098C265.882 228.675 266.614 228.663 266.76 229.082C266.616 229.503 265.882 229.493 265.75 229.068L265.749 229.098Z" fill="#6DFA7B"/>
<path d="M337.8 167.018C337.699 167.421 337.155 167.636 336.807 167.41C336.634 167.085 336.768 166.614 337.111 166.483C337.455 166.352 337.897 166.686 337.815 167.045L337.8 167.018Z" fill="#6DFA7B"/>
<path d="M328.22 216.042C327.977 215.844 327.734 215.645 327.491 215.446C327.473 215.018 328.027 214.69 328.393 214.912C328.759 215.133 328.725 215.776 328.338 215.958L328.22 216.042Z" fill="#6DFA7B"/>
<path d="M318.742 220.799C318.387 220.642 318.518 219.984 318.906 219.976C319.423 219.992 319.149 221.063 318.755 220.729L318.742 220.799Z" fill="#6DFA7B"/>
<path d="M267.207 560C244.503 539.258 225.284 514.71 210.597 487.691C204.402 476.294 198.866 463.489 201.185 450.727C205.522 426.855 196.558 402.867 189.497 379.654C182.435 356.441 177.433 330.228 188.791 308.788C170.873 325.311 163.687 350.348 159.846 374.417C150.941 430.218 155.953 488.185 174.304 541.629C152.756 502.185 151.909 454.993 153.953 410.094C155.543 375.156 159.45 337.951 181.396 310.721C147.609 338.276 137.329 384.79 129.873 427.747C122.873 468.082 116.642 510.416 129.621 549.243C117.375 526.667 119.375 499.349 121.903 473.791C127.719 415.001 136.672 351.693 177.852 309.333C188.743 298.13 202.037 288.631 217.294 285.257C229.116 282.644 240.506 278.083 250.865 271.814C253.362 257.192 239.603 245.678 229.991 234.379C219.227 221.727 212.511 205.681 211.055 189.134C210.194 179.338 208.137 165.992 198.313 165.575C190.237 165.231 184.158 155.487 187.399 148.083C190.641 140.679 201.925 138.537 207.655 144.238C199.481 113.596 216.748 78.2424 245.939 65.849C241.179 59.0421 251.568 50.8844 259.816 51.8593C268.065 52.8342 276.049 57.8166 284.148 55.9758C281.373 51.0884 285.82 44.5949 291.299 43.3429C296.779 42.091 302.402 44.4698 307.317 47.1965C338.866 64.7002 359.716 99.9992 359.815 136.079C360.631 129.493 370.514 127.238 375.347 131.785C380.181 136.331 379.951 144.469 376.519 150.149C373.086 155.828 367.236 159.557 361.446 162.798C361.592 186.724 352.493 210.59 336.455 228.346C324.785 241.266 308.25 254.971 312.08 271.954C318.288 270.581 324.568 277.743 322.396 283.719C349.014 281.501 373.854 297.567 392.712 316.483C420.357 344.212 440.226 379.614 449.497 417.656C451.116 424.301 460.57 426.113 466.419 422.567C472.268 419.022 475.274 412.317 477.94 406.018C495.491 364.542 513.042 323.065 530.593 281.589C524.718 245.49 529.945 247.501 532.696 230.62C540.218 211 538.781 193.272 541.823 174.597C542.652 169.512 546.209 162.802 550.905 164.922C553.28 165.994 554.118 168.889 554.625 171.445C557.472 185.81 558.382 200.558 557.322 215.164C563.398 204.771 569.473 194.378 575.549 183.984C578.874 178.296 586.219 171.927 590.831 176.632C593.364 179.217 592.698 183.458 591.653 186.923C588.328 197.944 582.908 208.33 575.768 217.361C585.394 220.644 596.544 225.629 598.229 235.659C598.928 239.82 597.749 244.054 596.353 248.035C591.497 261.874 583.826 274.719 573.945 285.556C576.212 284.188 577.695 288.259 577.244 290.869C566.405 353.577 539.994 413.534 501.04 463.857C489.545 478.708 473.951 494.025 455.253 492.273C443.549 491.177 433.659 483.497 424.502 476.126C414.642 468.19 404.782 460.253 394.922 452.317C417.874 457.444 430.656 486.076 454.004 488.903C472.987 491.201 488.922 475.302 500.395 460.004C537.832 410.089 563.4 351.333 574.412 289.918C559.441 292.43 543.858 291.204 529.465 286.381C515.183 330.66 497.198 373.743 475.757 415.034C472.051 422.171 465.459 430.466 457.847 427.871C454.44 426.709 452.138 423.582 450.219 420.537C431.033 390.108 426.575 349.531 398.592 326.925C409.87 396.869 392.089 467.994 371.962 535.922C387.37 482.991 396.756 428.309 399.881 373.269C400.598 360.633 400.956 347.719 397.38 335.578C393.804 323.437 385.64 312.013 373.79 307.568C366.072 357.766 320.865 395.107 309.425 444.59C300.175 484.602 285.959 523.464 267.207 560ZM313.677 422.585C330.876 389.888 353.424 359.956 367.424 325.767C370.607 317.993 373.232 308.754 368.905 301.555C367.343 298.956 365.014 296.922 362.725 294.934C359.104 291.79 355.134 288.492 350.355 288.104C344.013 287.588 338.513 292.331 334.433 297.214C324.539 309.053 318.15 323.363 312.075 337.546C297.542 371.471 284.032 405.998 275.535 441.913C267.039 477.828 263.651 515.317 269.494 551.758C276.893 518.339 301.772 490.022 305.182 455.964C305.744 450.355 305.706 444.661 306.927 439.157C308.222 433.316 310.891 427.88 313.677 422.585ZM347.725 113.997C345.396 109.507 342.49 105.212 338.516 102.082C329.664 95.1117 317.2 95.0932 306.125 97.1647C299.046 98.4888 292.101 100.531 285.431 103.249C283.69 103.958 281.841 104.73 279.991 104.394C278.141 104.057 276.477 102.063 277.235 100.342C277.381 100.011 277.607 99.7041 277.646 99.3445C277.754 98.3373 276.474 97.8331 275.471 97.6886C260.229 95.4909 243.999 98.0611 231.186 106.603C218.372 115.145 209.502 130.039 209.976 145.431C210.083 148.885 212.68 151.711 215.287 153.98C219.274 157.449 223.667 160.451 228.349 162.905C230.45 164.006 233.333 164.879 234.939 163.133C238.125 159.67 243.418 159.401 248.123 159.502C264.475 159.852 280.916 161.738 297.126 159.56C307.002 158.232 316.62 155.414 326.458 153.828C329.471 153.342 332.582 152.976 335.552 153.68C338.522 154.383 341.358 156.359 342.304 159.261C346.134 154.933 349.579 150.263 352.583 145.326C353.485 143.844 354.36 142.304 354.694 140.602C354.99 139.092 354.844 137.532 354.643 136.006C353.636 128.342 351.283 120.858 347.725 113.997ZM323.199 221.517C328.97 218.986 332.213 212.849 334.396 206.937C339.599 192.848 341.272 177.47 339.219 162.592C339.013 161.096 338.737 159.529 337.783 158.359C336.272 156.505 333.571 156.217 331.181 156.315C325.561 156.544 320.093 158.092 314.622 159.398C303.102 162.148 291.301 163.857 279.458 163.897C267.754 163.936 256.07 162.349 244.375 162.803C242.047 162.894 239.586 163.112 237.696 164.475C234.701 166.636 234.174 170.822 234.055 174.514C233.599 188.548 235.255 202.649 238.951 216.196C239.173 217.01 239.423 217.859 240.015 218.46C240.653 219.108 241.579 219.36 242.452 219.615C256.582 223.753 268.804 235.604 283.492 234.581C294.387 233.823 303.547 226.009 314.212 223.654C317.226 222.989 320.373 222.756 323.199 221.517ZM202.41 453.355C201.533 466.089 208.738 477.815 215.667 488.534C222.682 499.385 229.696 510.237 236.71 521.088C226.365 486.659 221.485 450.826 218.166 415.03C214.7 377.653 212.98 339.31 223.2 303.191C224.822 297.46 226.765 291.754 229.903 286.691C220.495 286.446 210.486 287.167 202.811 292.614C197.822 296.155 194.281 301.41 191.658 306.937C183.552 324.017 183.532 343.95 187.115 362.513C190.699 381.076 197.651 398.79 203.098 416.894C204.681 422.155 206.151 427.556 205.959 433.046C205.718 439.925 202.882 446.489 202.41 453.355ZM248.106 225.154C243.257 223.292 237.375 221.772 235.447 216.949C234.541 214.684 234.762 212.151 234.501 209.726C234.24 207.301 233.223 204.641 230.955 203.745C225.489 201.585 220.246 198.862 215.336 195.633C217.772 209.958 224.259 223.572 233.85 234.488C238.653 239.955 244.222 244.77 248.478 250.673C252.735 256.576 255.629 264.003 254.062 271.11C253.562 273.374 256.816 274.36 259.134 274.305C274.535 273.941 289.934 273.511 305.331 273.015C307.94 272.93 309.479 269.883 309.418 267.273C309.357 264.664 308.306 262.141 308.341 259.531C308.391 255.695 310.743 252.308 313.137 249.31C320.227 240.429 328.509 232.57 335.88 223.919C343.251 215.269 349.818 205.578 352.621 194.565C347.743 202.792 337.452 207.034 333.636 215.805C331.47 220.783 326.232 223.712 321.045 225.313C315.857 226.913 310.359 227.563 305.408 229.79C302.869 230.932 300.528 232.466 298.042 233.718C289.309 238.116 278.785 238.814 269.547 235.607C262.027 232.997 255.536 228.008 248.106 225.154ZM556.504 246.912C561.854 246.594 568.318 248.676 571.862 244.655C572.674 243.735 573.209 242.468 572.915 241.276C572.514 239.654 570.808 238.762 569.254 238.149C559.33 234.229 548.224 233.367 537.814 235.708C534.189 236.523 532.07 239.87 531.276 243.5C530.482 247.13 530.675 251.06 531.276 254.726C532.804 264.04 534.332 273.353 535.86 282.666C535.929 283.086 536.003 283.52 536.239 283.874C536.593 284.405 537.236 284.651 537.841 284.857C545.361 287.419 553.362 288.562 561.298 288.207C564.454 288.066 567.867 287.567 570.082 285.314C580.923 274.291 588.849 260.425 592.845 245.49C590.669 247.436 587.875 248.952 584.964 248.727C582.053 248.502 579.224 246.025 579.414 243.111C573.833 247.412 567.26 251.963 560.36 250.535C555.085 249.443 549.262 251.78 546.205 256.216C544.342 255.726 545.059 252.843 546.415 251.474C549.072 248.793 552.737 247.136 556.504 246.912ZM236.071 329.812C232.417 330.381 228.781 331.062 225.174 331.876C222.638 332.449 219.619 333.614 219.29 336.193C218.636 341.336 218.281 346.517 218.227 351.7C245.81 345.194 275.097 346.069 302.242 354.209C305.126 347.452 308.011 340.694 310.895 333.937C286.607 327.359 260.934 325.944 236.071 329.812ZM337.975 289.278C333.611 286.968 328.528 286.04 323.629 286.659C322.662 286.781 321.576 287.049 321.11 287.905C319.25 291.323 315.184 292.801 311.422 293.797C292.494 298.81 272.508 298.697 253.107 296.053C249.501 295.561 245.845 294.965 242.568 293.38C239.291 291.795 236.394 289.069 235.422 285.561C232.839 285.522 231.288 288.344 230.37 290.758C227.595 298.059 225.196 305.504 223.187 313.052C254.642 305.927 287.884 306.848 318.896 315.705C321.855 312.092 324.052 307.856 325.301 303.355C325.884 301.254 327.496 299.622 329.048 298.09C332.024 295.153 335 292.215 337.975 289.278ZM286.6 395.707C289.64 388.985 292.221 382.056 294.321 374.983C270.104 370.972 245.303 370.501 220.951 373.593C219.918 373.724 218.772 373.925 218.148 374.758C217.599 375.491 217.627 376.491 217.68 377.405C217.939 381.94 218.199 386.476 218.458 391.011C218.528 392.229 219.109 393.876 220.305 393.63C242.159 389.124 265.071 389.842 286.6 395.707ZM588.68 187.564C589.374 185.843 590.04 184.033 589.889 182.184C589.738 180.335 588.533 178.44 586.71 178.097C585.573 177.883 584.401 178.295 583.416 178.903C581.003 180.392 579.491 182.947 578.073 185.403C571.655 196.523 565.238 207.642 558.82 218.761C557.988 220.202 555.583 219.756 554.671 218.364C553.758 216.972 553.88 215.171 554.009 213.512C555.088 199.604 554.278 185.552 551.61 171.861C551.444 171.011 551.258 170.132 550.747 169.433C549.265 167.407 545.806 168.111 544.314 170.129C542.822 172.148 542.735 174.844 542.715 177.355C542.567 196.478 542.747 216.28 535.022 233.774C542.869 230.728 551.702 230.289 559.812 232.54C560.971 232.862 562.172 233.241 563.354 233.017C564.536 232.793 565.659 231.717 565.453 230.532C564.679 226.091 567.867 222.054 570.669 218.523C578.118 209.14 584.205 198.677 588.68 187.564ZM319.613 279.127C319.079 276.935 317.114 274.922 314.867 275.123C291.939 277.176 268.881 277.76 245.879 276.87C244.517 276.817 243.083 276.774 241.875 277.405C241.023 277.85 240.356 278.604 239.904 279.453C238.068 282.899 239.932 287.392 243.061 289.727C246.19 292.061 250.221 292.743 254.094 293.232C271.004 295.367 288.237 295.142 305.023 292.193C308.648 291.556 312.366 290.744 315.366 288.613C318.366 286.482 320.485 282.702 319.613 279.127ZM278.739 419.523C278.872 419.065 278.999 418.545 278.758 418.133C278.5 417.694 277.936 417.564 277.434 417.479C259.208 414.387 240.553 415.906 222.129 417.433C221.608 417.476 221.015 417.559 220.722 417.992C220.494 418.33 220.527 418.774 220.568 419.179C221.102 424.409 221.636 429.64 222.17 434.871C222.272 435.875 222.697 437.177 223.706 437.126C239.726 436.308 255.824 437.017 271.71 439.242C272.719 439.384 273.327 438.18 273.611 437.201C275.32 431.308 277.03 425.416 278.739 419.523ZM268.292 466.585C268.371 465.833 268.416 464.975 267.895 464.427C267.497 464.007 266.879 463.899 266.305 463.819C253.834 462.082 241.162 463.315 228.631 464.55C228.005 464.612 227.28 464.735 226.978 465.287C226.771 465.666 226.836 466.13 226.908 466.556C227.748 471.567 228.589 476.578 229.43 481.59C229.551 482.311 229.932 483.236 230.655 483.129C242.608 481.347 255.328 480.823 266.26 485.974C266.938 479.511 267.615 473.048 268.292 466.585ZM218.156 193.694C222.671 196.795 227.628 199.253 232.83 200.968C230.565 190.522 230.122 179.684 231.525 169.088C231.703 167.748 230.194 166.883 228.948 166.358C221.665 163.288 215.054 158.631 209.71 152.807C210.262 163.862 211.457 174.884 213.287 185.8C213.561 187.437 213.868 189.119 214.754 190.523C215.588 191.843 216.869 192.81 218.156 193.694ZM338.518 204.918C343.368 200.976 347.617 196.328 351.376 191.335C353.405 188.642 355.316 185.804 356.44 182.625C357.57 179.428 357.863 176.002 357.997 172.614C358.349 163.748 357.672 154.841 355.985 146.129C352.09 151.42 348.196 156.711 344.301 162.002C343.704 162.814 343.092 163.656 342.862 164.638C342.677 165.424 342.752 166.246 342.818 167.051C343.858 179.793 342.388 192.734 338.518 204.918ZM263.277 528.489C264.13 528.661 264.52 527.47 264.541 526.6C264.665 521.401 264.788 516.201 264.912 511.002C264.923 510.534 264.93 510.045 264.728 509.623C264.354 508.843 263.415 508.545 262.578 508.328C257.845 507.097 253.044 505.858 248.154 505.917C244.092 505.966 240.07 506.913 236.01 506.813C235.549 506.802 234.949 506.878 234.853 507.328C234.819 507.484 234.863 507.645 234.907 507.799C236.699 514.019 239.058 520.075 241.945 525.868C242.324 526.628 242.776 527.443 243.566 527.751C244.124 527.968 244.747 527.887 245.341 527.813C251.304 527.067 257.387 527.296 263.277 528.489ZM360.696 138.071C359.767 139.507 358.945 141.076 358.793 142.779C358.699 143.824 358.862 144.873 359.025 145.909C359.651 149.902 360.278 153.896 360.904 157.889C360.941 158.121 360.983 158.367 361.138 158.543C361.501 158.958 362.175 158.738 362.666 158.488C364.649 157.481 366.655 156.459 368.329 154.995C369.671 153.821 370.765 152.392 371.796 150.936C373.949 147.894 375.926 144.5 376.066 140.775C376.206 137.05 373.92 133 370.254 132.328C366.371 131.615 362.84 134.757 360.696 138.071ZM191.988 145.979C190.5 147.282 189.961 149.353 189.714 151.316C189.487 153.113 189.448 154.985 190.072 156.686C190.932 159.032 192.976 160.791 195.237 161.854C197.499 162.918 199.99 163.374 202.449 163.819C203.663 164.04 204.876 164.26 206.09 164.48C206.391 164.534 206.747 164.573 206.959 164.353C207.136 164.171 207.136 163.886 207.124 163.633C206.924 159.138 206.723 154.643 206.522 150.148C206.437 148.238 205.072 146.556 203.389 145.649C201.706 144.742 199.747 144.498 197.837 144.45C195.773 144.397 193.54 144.618 191.988 145.979ZM582.118 222.898C581.225 221.922 579.907 221.475 578.64 221.096C577.298 220.694 575.848 220.326 574.517 220.765C573.006 221.262 572.006 222.675 571.208 224.052C570.002 226.134 569.001 228.335 568.226 230.613C567.951 231.42 567.702 232.268 567.816 233.112C567.931 233.957 568.507 234.796 569.344 234.953C572.763 235.594 575.749 238.17 576.885 241.458C578.473 238.13 580.061 234.803 581.649 231.475C582.306 230.099 582.971 228.697 583.197 227.189C583.422 225.68 583.148 224.022 582.118 222.898ZM594.018 229.866C592.392 228.337 589.686 228.444 587.806 229.648C585.926 230.851 584.755 232.909 583.998 235.008C583.136 237.4 582.717 239.951 582.768 242.493C582.78 243.1 582.824 243.727 583.104 244.266C583.779 245.565 585.561 245.856 586.981 245.497C590.084 244.714 592.151 241.831 593.685 239.023C594.475 237.576 595.21 236.057 595.416 234.421C595.621 232.785 595.219 230.995 594.018 229.866ZM266.789 554.413C266.026 550 265.263 545.588 264.499 541.176C264.411 540.662 264.292 540.098 263.873 539.787C263.599 539.583 263.244 539.529 262.905 539.485C258.972 538.974 254.976 538.948 251.037 539.409C255.687 544.994 260.984 550.04 266.789 554.413Z" fill="#00160A"/>
<path d="M40.9325 124.218C37.0062 131.744 34.9694 140.095 35.019 148.543C31.7584 142.12 27.854 135.479 20.3259 133.532C14.0207 131.846 6.71857 135.31 5.86485 142.121C4.84363 150.304 12.2126 157.449 17.74 162.492C24.2156 168.45 31.6998 173.234 39.3714 177.547C43.2994 179.746 47.2694 181.778 51.2556 183.855C50.3739 186.645 49.5313 189.824 51.2146 192.336C52.5354 194.274 55.2012 195.118 57.1411 193.404C59.081 191.69 59.031 188.735 57.7555 186.78C56.6387 185.121 54.8947 183.992 53.0472 183.001C53.1473 182.713 53.2183 182.485 53.3185 182.197C54.0418 179.817 54.8266 177.465 55.6729 175.142C57.3041 170.466 59.1034 165.83 60.7183 161.11C63.593 152.807 66.0049 144.219 66.3886 135.412C66.6666 128.709 66.3542 118.694 59.8763 114.702C52.0395 109.794 44.29 117.805 40.9325 124.218ZM56.7955 188.087C57.401 189.328 57.4827 190.961 56.4417 192.046C54.6862 193.844 52.4857 192.024 51.9737 190.195C51.4617 188.366 51.9653 186.368 52.5627 184.488C54.2711 185.378 55.9827 186.418 56.7955 188.087ZM64.9015 130.763C65.1043 135.124 64.7895 139.471 63.9862 143.745C62.4445 152.469 59.3726 160.794 56.3006 169.118C54.7082 173.477 53.0866 177.897 51.7238 182.324C50.6626 181.803 49.6338 181.371 48.6793 180.862C44.9099 178.958 41.2149 176.977 37.5328 174.891C30.0132 170.573 22.7392 165.661 16.519 159.56C12.9267 156.03 8.94281 151.987 7.42003 147.099C5.81626 141.988 7.81256 136.625 13.1876 134.77C23.3492 131.273 30.7424 141.583 34.9902 149.309C35.0197 149.954 35.0491 150.598 35.0786 151.243C35.1437 152.126 36.4472 151.903 36.4144 151.109C36.1513 142.638 37.6253 134.291 41.3186 126.546C43.1507 122.705 45.5228 118.516 49.3839 116.304C53.6653 113.839 58.7893 114.392 61.6638 118.486C64.1142 121.979 64.7182 126.596 64.9015 130.763Z" fill="#6DFA7B"/>
<path d="M563.044 20.0326C555.198 23.2745 548.27 28.3623 542.878 34.8657C544.508 27.8498 545.787 20.2522 541.271 13.9221C537.525 8.57755 529.704 6.53745 524.672 11.2065C518.63 16.8184 519.683 27.0281 520.675 34.4444C521.806 43.1709 524.464 51.6468 527.568 59.8821C529.164 64.0912 530.899 68.1998 532.618 72.3529C530.149 73.9235 527.46 75.8172 527.135 78.8233C526.901 81.157 528.4 83.517 530.988 83.451C533.576 83.385 535.437 81.0892 535.716 78.772C535.928 76.7828 535.317 74.7969 534.539 72.8505C534.801 72.694 535.001 72.5654 535.263 72.4088C537.347 71.0508 539.46 69.7537 541.602 68.5176C545.857 65.9844 550.215 63.5896 554.486 61.012C562.026 56.4994 569.393 51.4709 575.349 44.9708C579.87 40.0149 586.068 32.142 583.672 24.9202C580.823 16.1229 569.738 17.2785 563.044 20.0326ZM534.141 79.156C533.807 80.4959 532.82 81.7996 531.325 81.9611C528.825 82.21 528.309 79.4018 529.092 77.6713C529.876 75.9408 531.546 74.7343 533.212 73.6779C533.949 75.4578 534.591 77.3547 534.141 79.156ZM577.198 40.4534C574.55 43.9243 571.514 47.0524 568.152 49.8097C561.363 55.5023 553.659 59.9045 545.955 64.3067C541.933 66.6223 537.85 68.966 533.96 71.481C533.482 70.3999 532.972 69.4078 532.568 68.4041C530.904 64.523 529.347 60.6303 527.867 56.6651C524.883 48.5237 522.467 40.0857 521.624 31.4136C521.142 26.4002 520.688 20.7424 522.664 16.019C524.721 11.0731 529.697 8.24814 535.007 10.2817C545.039 14.1346 544.075 26.7852 542.363 35.4343C541.971 35.9469 541.58 36.4594 541.188 36.972C540.67 37.6905 541.812 38.358 542.297 37.7284C547.541 31.0701 554.035 25.6231 561.843 22.0647C565.715 20.2995 570.225 18.6151 574.605 19.4027C579.469 20.2662 583.038 23.9841 582.609 28.9679C582.241 33.2183 579.735 37.144 577.198 40.4534Z" fill="#6DFA7B"/>
</svg>
