<svg width="600" height="440" viewBox="0 0 600 440" fill="none" xmlns="http://www.w3.org/2000/svg">
<path fill-rule="evenodd" clip-rule="evenodd" d="M65.2619 391.938C110.532 441.215 285.593 412.909 400.863 412.909C450.591 412.909 617.471 437.832 548.559 266.668C322.609 -294.553 -78.1766 235.8 65.2619 391.938Z" fill="#2E2E64"/>
<path fill-rule="evenodd" clip-rule="evenodd" d="M265.561 395.902C265.781 395.733 266.012 395.55 266.108 395.29C266.415 394.455 265.21 393.9 264.321 393.92C263.03 393.95 261.376 394.819 261.77 396.048C261.999 396.759 262.875 397.088 263.61 396.957C264.345 396.826 264.969 396.357 265.561 395.902H265.561ZM269.397 381.269C270.372 381.575 271.334 381.952 272.183 382.521C273.776 383.588 274.86 385.244 275.9 386.855C276.646 388.01 277.403 389.187 277.775 390.51C278.178 391.944 278.106 393.473 277.836 394.938C276.995 399.499 274.18 403.661 270.26 406.14C266.34 408.618 261.373 409.377 256.891 408.181C256.019 407.948 255.141 407.631 254.47 407.027C253.906 406.519 253.526 405.843 253.178 405.169C251.353 401.63 250.122 397.698 250.263 393.719C250.403 389.739 252.039 385.712 255.138 383.211C259.026 380.072 264.629 379.773 269.397 381.269" fill="white"/>
<path fill-rule="evenodd" clip-rule="evenodd" d="M475.197 164.779C473.06 164.752 471.056 166.544 470.845 168.67C470.758 169.539 471.127 170.619 471.992 170.739C472.64 170.828 473.209 170.328 473.645 169.839C474.566 168.806 475.358 167.658 475.995 166.429C476.208 166.016 476.397 165.487 476.116 165.117C475.911 164.848 475.535 164.783 475.197 164.779ZM474.272 155.245C477.306 156.303 480.056 158.165 482.165 160.589C483.978 162.672 485.359 165.377 484.978 168.112C484.838 169.117 484.468 170.074 484.045 170.996C482.445 174.486 479.693 177.831 475.913 178.508C473.93 178.862 471.885 178.437 469.978 177.788C467.773 177.038 465.67 175.986 463.748 174.67C462.728 173.972 461.715 173.143 461.268 171.991C460.96 171.197 460.95 170.323 460.962 169.471C460.99 167.365 461.13 165.223 461.864 163.249C462.794 160.751 464.611 158.689 466.539 156.849C467.314 156.109 468.137 155.38 469.132 154.983C470.761 154.334 472.616 154.667 474.272 155.245" fill="white"/>
<path fill-rule="evenodd" clip-rule="evenodd" d="M475.2 3.28731C487.754 16.2339 497.662 31.715 504.149 48.5157C504.594 49.6696 505.026 50.9513 504.601 52.1129C501.329 61.0565 495.014 68.5126 488.822 75.7625C484.865 80.3952 480.909 85.0279 476.952 89.6605C473.175 94.0831 469.397 98.5064 465.492 102.818C445.611 124.769 422.119 143.964 394.911 155.774C393.884 156.22 392.783 156.664 391.677 156.486C390.571 156.308 389.535 155.239 389.825 154.161C393.188 141.634 396.574 128.537 393.875 115.852C393.223 112.792 392.498 108.94 395.036 107.099C415.584 92.1918 430.379 70.8846 444.557 49.8668C448.123 44.5819 451.678 39.2825 454.833 33.7447C460.435 23.9127 464.748 13.3537 467.631 2.41934C468.027 0.918871 469.928 0.24321 471.435 0.636429C472.941 1.02965 474.118 2.17151 475.2 3.28731" fill="white"/>
<path fill-rule="evenodd" clip-rule="evenodd" d="M83.694 53.5836C85.735 72.0352 91.4157 90.0771 100.314 106.37C105.824 116.457 112.525 125.837 119.209 135.188C123.86 141.695 128.833 148.476 136.09 151.839C138.02 152.733 137.751 155.515 137.233 157.578C134.994 166.494 133.95 175.708 134.136 184.899C134.154 185.767 134.177 186.667 133.835 187.466C132.677 190.177 128.71 189.725 125.978 188.616C109.077 181.755 96.1005 167.958 83.9789 154.327C68.2408 136.629 52.7369 118.155 43.4397 96.3729C42.8077 94.8921 42.1943 93.3338 42.3 91.7272C42.4078 90.0902 43.2488 88.6023 44.102 87.201C52.5301 73.358 64.2553 61.5374 78.0295 52.9973C78.9997 52.3957 80.0356 51.7929 81.1765 51.7535C82.3173 51.714 83.5685 52.449 83.694 53.5836" fill="white"/>
<path fill-rule="evenodd" clip-rule="evenodd" d="M472.736 377.274C474.193 374.806 475.998 372.089 478.825 371.62C479.94 371.436 480.528 370.225 480.907 369.161C485.581 356.051 486.031 341.473 482.176 328.1C481.075 324.283 482.43 320.236 483.771 316.497C487.23 306.846 490.69 297.195 494.149 287.545C492.167 284.116 486.941 284.218 484.264 281.3C480.818 277.545 483.417 271.575 486.116 267.252C501.885 242 517.653 216.747 533.422 191.494C535.353 188.4 539.593 187.43 543.146 188.255C546.699 189.079 549.733 191.315 552.656 193.498C564.156 202.088 575.656 210.678 587.157 219.267C593.329 223.878 600.143 229.767 599.787 237.462C599.591 241.721 597.154 245.506 594.797 249.058C585.682 262.792 576.568 276.526 567.454 290.26C562.319 297.997 563.737 308.159 562.185 317.315C559.733 331.781 549.813 343.661 540.627 355.102C531.442 366.544 522.25 379.319 521.734 393.982C521.118 411.459 512.816 428.528 499.446 439.801C503.324 430.393 478.825 434.146 450.801 422.996C455.412 406.681 464.119 391.875 472.736 377.274Z" fill="white"/>
<path fill-rule="evenodd" clip-rule="evenodd" d="M165.01 418.189C163.263 416.76 162.706 414.347 162.397 412.104C158.828 386.155 174.156 360.542 171.425 334.49C170.018 321.064 163.85 308.537 156.087 297.519C150.726 289.911 150.426 279.718 152.426 270.615C154.426 261.512 158.46 253 161.181 244.087C173.282 204.453 158.558 162.113 144 123.322C173.008 109.295 206.859 112.012 238.995 113.912C271.131 115.813 305.693 115.947 332.478 98C336.149 136.825 328.054 175.693 320.005 213.845C360.846 209.866 401.688 205.887 442.529 201.908C443.7 201.794 444.981 201.706 445.954 202.371C447.252 203.258 447.452 205.067 447.526 206.643C449.435 247.02 450.593 287.432 450.998 327.853C451.008 328.866 450.973 329.997 450.262 330.716C449.653 331.331 448.724 331.46 447.865 331.556C390.645 337.932 333.425 344.309 276.205 350.685C271.257 351.237 264.209 349.948 264.498 344.953C265.79 322.682 265.036 300.291 262.248 278.158C247.042 277.583 231.732 279.902 217.369 284.956C214.111 286.102 210.193 289.185 211.95 292.171C223.577 311.929 209.146 341.627 224.937 358.212C230.366 363.915 229.991 372.886 228.915 380.704C226.609 397.462 222.69 413.996 217.232 430C219.871 411.579 166.623 428.068 165.01 418.189Z" fill="white"/>
<path fill-rule="evenodd" clip-rule="evenodd" d="M1.34573 0.0267332C1.39461 0.420072 1.18178 0.833096 0.83309 1.02156C0.555393 0.743733 0.277697 0.465903 0 0.188073C0.416302 0.00599201 0.888435 -0.0459425 1.33436 0.0412939L1.34573 0.0267332Z" fill="#00160A"/>
<path fill-rule="evenodd" clip-rule="evenodd" d="M268.397 381.269C269.372 381.575 270.334 381.952 271.183 382.521C272.776 383.588 273.86 385.244 274.9 386.855C275.646 388.01 276.403 389.187 276.775 390.51C277.178 391.944 277.106 393.473 276.836 394.938C275.995 399.499 273.18 403.661 269.26 406.14C265.34 408.618 260.373 409.377 255.891 408.181C255.019 407.948 254.141 407.631 253.47 407.027C252.906 406.519 252.526 405.843 252.178 405.169C250.353 401.63 249.122 397.698 249.263 393.719C249.403 389.739 251.039 385.712 254.138 383.211C258.026 380.072 263.629 379.773 268.397 381.269M262.933 404.962C265.371 404.592 267.516 403 268.917 400.971C270.318 398.943 271.036 396.51 271.381 394.069C271.579 392.675 271.597 391.077 270.612 390.07C270.023 389.468 269.182 389.199 268.375 388.957C265.344 388.05 261.885 387.279 259.17 388.904C257.194 390.086 256.091 392.278 255.092 394.354C253.923 396.784 254.212 399.852 255.815 402.021C257.418 404.191 260.266 405.367 262.933 404.962V404.962Z" fill="#00160A"/>
<path fill-rule="evenodd" clip-rule="evenodd" d="M379.739 271.788C379.782 271.27 379.844 270.716 380.186 270.326C380.521 269.944 381.047 269.807 381.541 269.692C394.275 266.727 407.428 265.568 420.484 266.258C422.147 266.346 424.286 266.909 424.396 268.57C425.026 278.096 425.657 287.622 426.288 297.147C426.32 297.63 426.336 298.164 426.027 298.536C425.776 298.839 425.37 298.956 424.99 299.055C411.41 302.596 397.096 303.293 383.236 301.091C382.879 301.034 382.504 300.968 382.227 300.736C381.892 300.455 381.774 299.998 381.679 299.572C379.635 290.479 378.979 281.076 379.739 271.788ZM382.742 287.59C382.992 291.187 383.746 294.749 384.976 298.138C386.203 298.315 387.417 298.57 388.639 298.777C399.172 300.56 409.944 298.766 420.475 296.974C421.223 296.847 422.042 296.678 422.503 296.076C422.974 295.462 422.912 294.606 422.827 293.836C422.464 290.554 422.101 287.272 421.738 283.989C421.709 283.725 421.672 283.441 421.493 283.244C421.275 283.005 420.919 282.966 420.597 282.945C413.113 282.452 405.605 283.01 398.126 283.569C393.992 283.877 389.858 284.186 385.724 284.494C384.752 284.567 383.649 284.711 383.09 285.509C382.678 286.097 382.692 286.874 382.742 287.59ZM382.858 273.861C382.204 275.959 382.087 278.222 382.52 280.376C382.598 280.763 382.708 281.171 383.001 281.435C383.437 281.826 384.101 281.762 384.68 281.677C391.723 280.645 398.843 280.132 405.961 280.144C406.965 280.146 407.273 278.794 407.262 277.79C407.246 276.319 407.23 274.848 407.214 273.376C407.205 272.525 407.162 271.587 406.579 270.967C405.879 270.221 404.709 270.244 403.688 270.322C401.33 270.502 398.972 270.682 396.614 270.862C395.486 270.949 392.493 271.715 391.118 271.805C388.724 272.187 386.33 272.569 383.936 272.951C383.681 272.992 383.411 273.039 383.215 273.207C383.023 273.37 382.933 273.62 382.858 273.861ZM414.435 280.261C416.306 280.285 418.18 280.098 420.01 279.704C420.446 279.61 420.904 279.491 421.214 279.172C421.67 278.703 421.666 277.968 421.633 277.314C421.536 275.417 421.439 273.52 421.342 271.623C421.308 270.947 421.232 270.185 420.703 269.761C420.238 269.389 419.581 269.411 418.986 269.451C416.905 269.593 414.824 269.735 412.743 269.876C412.414 269.899 412.067 269.926 411.792 270.109C411.288 270.442 411.212 271.139 411.198 271.743C411.152 273.754 411.234 275.768 411.444 277.768C411.505 278.347 411.589 278.957 411.947 279.416C412.506 280.131 413.528 280.249 414.435 280.261Z" fill="#6DFA7B"/>
<path fill-rule="evenodd" clip-rule="evenodd" d="M412.329 230.159C415.111 228.956 418.524 229.359 420.949 231.178C423.373 232.997 424.715 236.161 424.338 239.169C426.042 238.247 428.204 237.34 429.795 238.446C431.591 239.696 431.181 242.387 430.911 244.558C430.439 248.352 431.051 252.274 432.654 255.744C433.317 257.177 433.886 259.352 432.416 259.931C432.168 260.028 431.898 260.051 431.632 260.072C414.402 261.461 397.173 262.849 379.943 264.238C379.47 264.276 378.941 264.296 378.584 263.985C378.219 263.667 378.173 263.127 378.154 262.643C377.988 258.591 377.823 254.538 377.658 250.485C377.614 249.398 377.593 248.226 378.207 247.328C379.223 245.841 381.351 245.846 383.129 245.561C384.907 245.276 386.976 243.776 386.291 242.111C385.528 240.254 388.128 238.897 390.113 238.595C392.098 238.293 394.73 237.11 394.129 235.195C393.472 233.103 396.351 231.804 398.525 231.516C400.059 231.312 401.663 231.115 403.118 231.641C404.572 232.167 405.802 233.665 405.475 235.177C405.099 236.909 407.208 238.522 408.871 237.91C410.533 237.299 411.207 235.026 410.365 233.468C409.678 232.195 411.001 230.734 412.329 230.159ZM421.226 256.866C420.582 255.671 420.577 254.249 420.571 252.891C420.544 246.517 420.152 240.144 419.399 233.815C419.361 233.495 419.301 233.138 419.039 232.951C418.813 232.79 418.51 232.809 418.234 232.835C416.888 232.96 415.293 233.258 414.761 234.501C414.534 235.031 414.561 235.63 414.592 236.206C414.933 242.595 415.274 248.983 415.616 255.372C415.648 255.967 415.727 256.65 416.221 256.983C416.491 257.164 416.83 257.198 417.154 257.215C418.519 257.29 419.894 257.172 421.226 256.866ZM398.052 247.043C397.885 248.108 397.65 249.164 397.588 250.24C397.483 252.037 397.862 253.824 398.238 255.585C398.48 256.714 399.939 257.269 401.008 256.834C402.078 256.399 402.724 255.258 402.901 254.117C403.079 252.976 402.871 251.816 402.689 250.676C401.975 246.197 401.666 241.654 401.766 237.119C401.792 235.972 400.673 234.936 399.531 235.049C398.389 235.162 397.495 236.398 397.745 237.518C398.443 240.637 398.547 243.886 398.052 247.043ZM409.384 240.925C408.712 240.045 407.172 240.514 406.648 241.489C406.124 242.464 406.284 243.646 406.414 244.746C406.754 247.616 406.786 250.523 406.511 253.401C406.429 254.249 406.339 255.176 406.808 255.888C407.528 256.983 409.109 256.973 410.413 256.841C410.822 256.799 411.292 256.72 411.498 256.364C411.641 256.116 411.607 255.809 411.569 255.525C410.968 251.06 410.366 246.596 409.765 242.131C409.708 241.708 409.642 241.264 409.384 240.925ZM424.308 242.844C423.802 243.534 423.695 244.432 423.651 245.287C423.501 248.218 423.889 251.146 424.276 254.055C424.429 255.201 424.953 256.674 426.107 256.596C427.276 256.517 427.581 254.953 427.554 253.781C427.482 250.679 427.41 247.576 427.338 244.473C427.319 243.658 427.233 242.713 426.556 242.257C425.846 241.78 424.814 242.154 424.308 242.844ZM388.991 242.111C388.991 242.111 389.505 246.16 389.684 248.223C389.909 250.813 390.195 253.398 390.543 255.974C390.593 256.349 390.661 256.754 390.937 257.011C391.415 257.458 393.261 257.161 393.602 256.602C393.942 256.043 393.923 255.345 393.893 254.691C393.799 252.623 393.706 250.554 393.612 248.486C393.511 246.269 392.984 241.489 392.984 241.489M382.295 256.773C382.443 257.236 382.617 257.722 382.992 258.032C383.724 258.638 384.911 258.263 385.488 257.508C386.065 256.754 386.195 255.76 386.305 254.816C386.44 253.658 386.571 252.455 386.196 251.351C385.821 250.248 384.784 249.276 383.622 249.379C382.555 249.473 381.727 250.449 381.478 251.492C381.229 252.535 381.439 253.628 381.698 254.668C381.875 255.376 382.074 256.078 382.295 256.773Z" fill="#6DFA7B"/>
<path fill-rule="evenodd" clip-rule="evenodd" d="M452.141 90.961C450.75 93.0492 449.241 95.1643 447.089 96.4536C444.936 97.7429 441.965 97.9941 440.031 96.3957C437.897 94.6323 437.765 91.4533 437.934 88.6903C437.999 87.6266 438.084 86.5543 438.389 85.5331C438.918 83.7618 440.072 82.2503 441.277 80.8487C442.739 79.1484 444.359 77.5081 446.387 76.5512C448.415 75.5943 450.935 75.4263 452.835 76.6169C455.109 78.042 455.951 81.0734 455.52 83.7227C455.089 86.372 453.629 88.7272 452.141 90.961M447.723 93.1702C449.477 91.3019 450.982 89.1994 452.184 86.9362C452.975 85.4469 453.648 83.8281 453.617 82.1419C453.585 80.4557 452.696 78.6933 451.13 78.0675C449.09 77.2526 446.851 78.5563 445.146 79.9414C443.932 80.9276 442.757 82.0093 441.979 83.3655C441.487 84.2231 441.167 85.1666 440.85 86.1033C440.25 87.8753 439.643 89.7217 439.871 91.5783C440.099 93.4349 441.428 95.2988 443.288 95.4912C445.01 95.6693 446.538 94.4325 447.723 93.1702Z" fill="#6DFA7B"/>
<path fill-rule="evenodd" clip-rule="evenodd" d="M93.799 114.563C95.9782 116.77 97.7771 119.352 99.093 122.161C100.416 124.984 99.0822 128.612 96.4868 130.339C93.8914 132.066 90.3823 132.043 87.5365 130.771C84.6907 129.498 82.4543 127.123 80.8073 124.476C79.5655 122.48 78.6027 120.244 78.4995 117.896C78.3963 115.548 79.2607 113.077 81.1182 111.637C82.9969 110.181 85.6386 109.973 87.9106 110.671C90.1826 111.37 92.129 112.871 93.799 114.563M85.2962 113.22C83.4106 113.026 81.7356 114.757 81.4121 116.625C81.0887 118.492 81.8007 120.388 82.722 122.044C84.7199 125.636 88.2845 128.827 92.3902 128.629C94.5007 128.526 96.814 127.064 96.7765 124.952C96.7603 124.038 96.3097 123.195 95.8595 122.4C94.6637 120.288 93.3721 118.197 91.6472 116.489C89.9222 114.781 87.7109 113.469 85.2962 113.22Z" fill="#6DFA7B"/>
<path fill-rule="evenodd" clip-rule="evenodd" d="M258.573 392.453C260.087 391.303 261.969 390.559 263.866 390.681C265.764 390.803 267.641 391.892 268.435 393.619C269.287 395.473 268.756 397.777 267.427 399.325C266.098 400.873 264.096 401.728 262.075 402.011C260.696 402.203 259.052 402.03 258.297 400.86C257.933 400.296 257.85 399.601 257.777 398.933C257.645 397.734 257.514 396.535 257.382 395.336C257.327 394.828 257.273 394.301 257.436 393.817C257.628 393.247 258.094 392.817 258.573 392.453M264.561 395.902C264.781 395.733 265.012 395.55 265.108 395.289C265.415 394.455 264.21 393.9 263.321 393.92C262.03 393.949 260.375 394.819 260.77 396.047C260.999 396.759 261.875 397.088 262.61 396.957C263.345 396.826 263.969 396.357 264.561 395.902H264.561Z" fill="#00160A"/>
<path fill-rule="evenodd" clip-rule="evenodd" d="M472.99 9.13009C484.784 21.3394 494.093 35.9389 500.187 51.7829C500.605 52.8711 501.011 54.0799 500.612 55.1753C497.538 63.6096 491.605 70.6411 485.787 77.4782L474.636 90.5848C471.087 94.7555 467.538 98.9269 463.869 102.993C445.191 123.694 423.121 141.796 397.56 152.934C396.595 153.354 395.56 153.773 394.521 153.605C393.482 153.437 392.509 152.429 392.781 151.412C395.941 139.599 399.122 127.248 396.586 115.285C395.974 112.399 395.292 108.766 397.677 107.03C416.982 92.972 430.881 72.8781 444.202 53.0571C447.551 48.0732 450.892 43.0755 453.855 37.8531C459.118 28.581 463.171 18.6232 465.879 8.31155C466.251 6.89652 468.037 6.25933 469.453 6.63016C470.868 7.00099 471.973 8.07783 472.99 9.13009ZM464.736 24.292C463.537 23.7963 462.432 25.1369 461.821 26.2812C461.16 27.5198 460.5 28.7604 459.839 30.002C447.619 52.9553 435.212 76.2607 416.59 94.3396C414.831 96.0477 412.864 98.1113 413.189 100.542C414.228 108.334 410.068 116.562 403.178 120.344C400.049 122.062 400.086 126.493 400.544 130.032C400.728 131.449 401.263 133.225 402.687 133.345C406.863 133.697 410.87 135.753 413.592 138.939C414.451 139.944 416.079 139.316 417.198 138.612C445.369 120.902 467.015 94.7425 488.149 69.0401C488.878 68.1533 489.654 67.0361 489.274 65.9529C486.076 56.8426 486.589 46.4892 490.671 37.7394C488.262 32.9464 485.391 28.3856 482.111 24.1409C476.653 26.5104 470.234 26.5662 464.736 24.292ZM397.916 148.255C399.027 148.837 400.372 148.284 401.484 147.703C404.406 146.178 407.22 144.447 409.899 142.527C410.607 142.02 410.818 141.006 410.568 140.172C410.318 139.338 409.691 138.665 408.997 138.138C406.831 136.494 403.803 136.062 401.264 137.034C400.794 137.214 400.328 137.448 400.005 137.832C399.626 138.283 399.488 138.882 399.366 139.458C398.753 142.367 398.269 145.303 397.916 148.255ZM477.028 18.2256C475.114 14.4829 472.162 11.2777 468.589 9.06278C467.346 10.1584 467.105 11.8233 466.858 13.5205C466.689 14.6852 466.518 15.8651 466.019 16.8868C465.857 17.2193 465.659 17.5373 465.461 17.8546L465.461 17.8548L465.461 17.8551L465.46 17.8555C465.083 18.4601 464.708 19.0622 464.587 19.7566C464.402 20.8157 465.298 22.1444 466.315 21.7939C467.141 21.509 468.007 21.692 468.881 21.8766C469.342 21.974 469.805 22.0719 470.265 22.1016C472.948 22.2748 475.174 20.1729 477.028 18.2256ZM492.2 40.6584C490.149 44.7372 490.473 49.5545 490.846 54.1045L491.381 60.6297C491.44 61.3473 491.83 62.3156 492.522 62.1169C492.952 60.9149 493.769 59.9234 494.59 58.9292C495.307 58.0596 496.026 57.1879 496.488 56.1717C498.054 52.7302 496.316 48.764 494.604 45.393L492.2 40.6584ZM400.408 113.081C400.494 114.358 401.82 115.313 403.098 115.277C404.377 115.241 405.528 114.414 406.276 113.376C407.023 112.337 407.433 111.101 407.832 109.885L409.15 105.872C409.518 104.753 409.54 103.042 408.37 102.911C407.948 102.863 407.544 103.087 407.198 103.333C405.886 104.266 404.931 105.605 404.001 106.919L401.468 110.497C400.919 111.273 400.345 112.133 400.408 113.081ZM98.3142 102.369C89.4157 86.0766 83.735 68.0347 81.694 49.5831C81.5685 48.4485 80.3173 47.7135 79.1765 47.753C78.0356 47.7924 76.9997 48.3953 76.0295 48.9968C62.2553 57.5369 50.5301 69.3575 42.102 83.2005C41.2488 84.6018 40.4078 86.0897 40.3 87.7267C40.1943 89.3333 40.8077 90.8917 41.4397 92.3725C50.7369 114.154 66.2408 132.629 81.9789 150.326C94.1005 163.957 107.077 177.755 123.978 184.616C126.71 185.725 130.677 186.176 131.835 183.465C132.172 182.676 132.154 181.789 132.137 180.931L132.136 180.898C131.95 171.708 132.994 162.493 135.233 153.578C135.751 151.515 136.02 148.733 134.09 147.839C126.833 144.476 121.86 137.695 117.209 131.187C110.525 121.836 103.824 112.457 98.3142 102.369ZM114.023 173.587C113.023 173.853 112.025 173.223 111.19 172.611C95.8078 161.341 83.8872 146.087 72.1748 131.038L51.5057 104.481C54.9945 102.259 55.4375 97.4309 55.5136 93.2952C55.6124 87.9195 55.6846 82.3848 53.7427 77.371C53.311 76.2567 53.873 75.0217 54.4747 73.9892C57.0555 69.5611 60.6345 65.7185 64.8685 62.8301C65.2784 62.5504 65.7122 62.2726 66.2035 62.2032C67.5001 62.02 68.4948 63.2811 69.1877 64.3922C71.9243 68.7804 75.6852 73.7432 80.8441 73.3819C82.8085 73.2443 83.8979 75.5581 84.4709 77.4421C91.5972 100.87 104.977 122.001 120.668 140.801C122.707 143.244 123.218 146.542 123.725 149.809C124.291 153.453 124.85 157.059 127.515 159.401C129.791 161.402 129.369 164.994 128.755 167.961C128.629 168.568 128.479 169.218 128.018 169.632C127.676 169.94 127.213 170.068 126.768 170.187L114.023 173.587ZM77.5558 67.955C74.734 65.9833 72.2965 63.4637 70.4193 60.5782C70.0132 59.954 69.6188 59.2545 69.6901 58.5133C69.7676 57.7073 70.374 57.0624 70.9773 56.5225C72.4672 55.1891 74.151 54.0728 75.9593 53.2197C76.6215 52.9074 77.4765 52.6536 78.0266 53.1368C78.3505 53.4213 78.4527 53.8758 78.5372 54.2985L81.1436 67.3337C81.2977 68.1043 80.4894 68.7983 79.7038 68.8207C78.9182 68.843 78.2 68.4051 77.5558 67.955ZM51.7635 93.1671C51.7083 95.6189 51.521 98.3705 49.6835 99.9948C49.299 100.04 49.0436 99.6185 48.8929 99.2618C47.569 96.1278 46.2267 92.9184 46.0183 89.5227C45.8098 86.127 46.9478 82.4499 49.7227 80.4815C50.0982 80.2152 50.6489 79.9952 50.9803 80.3147C51.1135 80.4432 51.1705 80.6295 51.219 80.8081C51.973 83.5797 51.9138 86.4986 51.8491 89.3702L51.7635 93.1671ZM126.644 174.722C127.09 175.087 127.137 175.739 127.149 176.315L127.282 182.617C124.696 181.184 122.22 179.555 119.879 177.749C119.436 177.407 118.948 176.852 119.22 176.362C119.355 176.119 119.635 176.002 119.896 175.906C121.568 175.289 123.298 174.826 125.055 174.525C125.599 174.432 126.217 174.373 126.644 174.722ZM126.793 149.898C126.769 149.613 126.769 149.303 126.938 149.073C127.385 148.466 128.354 149.016 128.763 149.648C129.75 151.171 129.967 153.166 129.333 154.866C127.884 153.624 126.951 151.799 126.793 149.898ZM511.87 102.045C514.447 98.7996 519.144 98.3327 523.286 98.4339C524.254 98.4575 525.25 98.5043 526.131 98.9059C528.582 100.023 529.102 103.225 529.185 105.917C529.26 108.366 529.246 110.848 528.651 113.225C528.056 115.602 526.824 117.892 524.855 119.351C523.97 120.007 522.944 120.485 521.857 120.667C520.179 120.948 518.461 120.517 516.865 119.923C514.739 119.132 512.723 118.045 510.893 116.704C509.999 116.049 509.076 115.192 509.047 114.084C508.981 111.529 509.267 108.966 509.895 106.488C510.296 104.905 510.854 103.324 511.87 102.045ZM518.552 118.207C521.86 119.156 525.379 116.597 526.633 113.391C527.886 110.186 527.423 106.585 526.733 103.213C526.469 101.918 525.085 101.195 523.81 100.849C521.836 100.313 519.737 100.242 517.731 100.643C516.734 100.842 515.715 101.184 515.016 101.921C514.635 102.323 514.371 102.82 514.112 103.309L512.174 106.972C511.833 107.617 511.49 108.267 511.289 108.967C510.69 111.063 511.482 113.391 512.946 115.006C514.409 116.622 516.457 117.605 518.552 118.207ZM474.272 155.245C477.306 156.303 480.056 158.165 482.165 160.589C483.979 162.673 485.359 165.377 484.978 168.112C484.838 169.117 484.468 170.074 484.045 170.996C482.445 174.486 479.693 177.832 475.913 178.508C473.93 178.862 471.885 178.437 469.978 177.788C467.773 177.038 465.67 175.986 463.748 174.67C462.728 173.972 461.715 173.143 461.268 171.991C460.96 171.197 460.95 170.323 460.962 169.471C460.991 167.365 461.13 165.223 461.864 163.249C462.794 160.751 464.611 158.689 466.539 156.849C467.314 156.109 468.137 155.38 469.132 154.983C470.761 154.334 472.616 154.667 474.272 155.245ZM477.374 173.603C479.567 171.434 480.842 168.289 480.495 165.224C480.148 162.159 478.073 159.283 475.172 158.237C473.966 157.802 472.629 157.68 471.394 158.022C470.727 158.207 470.102 158.521 469.519 158.892C467.022 160.48 465.268 163.189 464.843 166.118C464.417 169.047 465.326 172.144 467.268 174.377C468.512 175.808 470.541 176.421 472.421 176.183C474.301 175.946 476.027 174.936 477.374 173.603ZM200.485 137.177C200.383 135.732 198.451 135.354 197.003 135.396C189.401 135.62 181.809 136.189 174.258 137.103C173.018 137.253 172.917 139.252 173.913 140.008C174.908 140.763 176.294 140.623 177.531 140.446L200.485 137.177ZM176.182 146.949C176.248 146.205 177.183 145.936 177.925 145.852L222.703 140.781C223.513 140.689 224.376 140.606 225.105 140.971C225.834 141.335 226.303 142.333 225.827 142.995C225.477 143.482 224.804 143.581 224.206 143.639L178.406 148.084C177.454 148.176 176.099 147.902 176.182 146.949ZM276.568 154.492C274.063 155.042 271.491 154.138 269.089 153.24C261.32 150.337 253.581 147.353 245.874 144.29C242.763 143.053 239.349 144.905 236.551 146.743C228.453 152.063 220.657 157.841 213.211 164.041C211.299 165.633 208.356 164.516 206.427 162.943C206.02 162.611 205.618 162.256 205.215 161.9C203.713 160.572 202.192 159.228 200.249 158.952C197.262 158.528 194.634 160.792 192.47 162.894L178.513 176.449C176.635 178.272 174.66 181.191 176.33 183.205C177.433 184.534 179.456 184.466 181.171 184.268C190.125 183.23 199.035 181.774 207.941 180.319L207.942 180.319L207.942 180.319C222.663 177.915 237.375 175.512 252.264 174.996C255.563 174.882 258.865 174.861 262.167 174.84C264.234 174.827 266.301 174.814 268.368 174.778C277.691 174.616 287.006 173.987 296.266 172.897C296.714 172.844 297.224 172.752 297.456 172.365C297.632 172.073 297.588 171.705 297.538 171.368L293.616 144.68C293.416 143.323 293.068 141.756 291.829 141.17C290.577 140.578 289.102 141.341 288.074 142.27C286.466 143.722 285.227 145.652 284.005 147.555C282 150.677 280.041 153.728 276.568 154.492ZM212.869 169.095C221.247 162.207 229.982 155.754 239.027 149.771C240.885 148.543 243.142 147.285 245.218 148.091L267.153 156.615C270.813 158.037 274.817 159.478 278.575 158.338C282.944 157.012 285.556 152.665 287.756 148.665C288.184 147.887 289.429 147.976 290.045 148.615C290.661 149.255 290.817 150.195 290.944 151.074L292.549 162.204C292.796 163.913 293.038 165.686 292.544 167.341C292.051 168.995 290.6 170.498 288.873 170.465C260.639 169.92 232.35 172.248 204.585 177.402C203.725 177.561 202.865 177.724 202.005 177.886L202.004 177.886C195.371 179.139 188.713 180.396 181.973 180.418C185.227 175.808 189.352 171.892 193.448 168.009C195.697 165.877 198.508 163.578 201.527 164.275C203.158 164.652 204.408 165.823 205.652 166.989L205.652 166.989L205.653 166.989L205.653 166.989L205.653 166.989L205.653 166.989L205.653 166.989L205.653 166.99L205.653 166.99L205.654 166.99L205.654 166.99L205.654 166.99L205.654 166.99C206.052 167.363 206.45 167.736 206.86 168.082C208.548 169.507 211.163 170.498 212.869 169.095ZM575.094 246.733C574.345 247.012 573.509 246.822 572.747 246.582C567.584 244.959 563.391 241.329 559.27 237.762C558.712 237.279 558.155 236.797 557.598 236.321C550.77 230.497 543.359 225.355 535.514 220.998C534.715 220.554 533.878 220.088 533.389 219.317C532.9 218.545 532.915 217.371 533.669 216.856C537.187 214.454 539.469 210.332 539.636 206.076C539.681 204.941 540.963 204.185 542.095 204.276C543.226 204.367 544.213 205.047 545.138 205.704L580.99 231.153C581.687 231.648 582.439 232.223 582.61 233.061C582.75 233.746 582.463 234.438 582.174 235.074C580.628 238.486 578.85 241.793 576.856 244.964C576.404 245.682 575.889 246.437 575.094 246.733ZM539.227 216.543C538.805 217.287 538.441 218.362 539.123 218.876L568.379 240.904C569.981 242.11 572.471 243.241 573.733 241.681C575.181 239.891 576.534 238.024 577.784 236.089C578.126 235.56 578.475 234.955 578.352 234.337C578.239 233.773 577.765 233.364 577.318 233.001C566.581 224.296 555.213 216.369 543.333 209.303L539.227 216.543ZM524.667 230.014C525.14 229.204 525.713 228.317 526.63 228.118C527.331 227.965 528.045 228.266 528.69 228.58C532.213 230.29 535.439 232.609 538.184 235.402C538.844 236.075 538.926 237.157 538.632 238.052C538.338 238.947 537.732 239.7 537.139 240.432C536.184 241.608 535.167 242.831 533.759 243.389C532.239 243.991 530.471 243.701 529.032 242.926C527.592 242.151 526.437 240.938 525.419 239.659C524.091 237.991 522.902 235.99 523.108 233.868C523.243 232.477 523.963 231.221 524.667 230.014ZM530.829 239.354C533.044 240.216 534.461 239.533 534.52 238.08C534.556 237.163 533.756 236.457 533.029 235.897L530.829 234.205C530.101 233.645 529.299 233.06 528.382 233.065C527.464 233.071 526.53 234.017 526.906 234.854C526.849 235.259 528.613 238.493 530.829 239.354ZM522.084 257.24C522.624 257.536 523.197 257.825 523.813 257.838C524.428 257.851 525.096 257.502 525.247 256.905C525.602 255.504 526.53 254.342 527.437 253.204C527.537 253.08 527.636 252.956 527.733 252.832C528.728 251.574 529.687 250.148 529.714 248.545C529.74 246.941 528.412 245.232 526.824 245.451C525.572 245.624 524.408 244.803 523.498 243.925C523.353 243.786 523.21 243.642 523.065 243.498C522.304 242.739 521.531 241.968 520.521 241.639C519.32 241.247 517.683 241.87 517.588 243.13C517.397 245.668 515.287 247.578 513.331 249.206C512.745 249.693 513.274 250.628 513.822 251.157C516.288 253.541 519.075 255.593 522.084 257.24ZM522.475 252.405L518.621 249.798C517.642 249.135 517.72 247.512 518.594 246.714C519.467 245.916 520.825 245.855 521.938 246.255C523.052 246.654 523.978 247.437 524.878 248.205C525.474 248.713 525.556 249.639 525.283 250.373C525.011 251.107 524.456 251.695 523.916 252.261C523.73 252.455 523.524 252.66 523.258 252.695C522.975 252.731 522.711 252.564 522.475 252.405ZM553.022 252.576L554.906 248.573C555.483 247.347 556.042 245.83 555.263 244.722C554.993 244.337 554.594 244.066 554.204 243.803L547.349 239.183C546.61 238.685 545.808 238.168 544.917 238.182C543.861 238.198 542.976 238.952 542.226 239.696C541.102 240.81 540.052 241.997 539.083 243.249C538.346 244.201 537.741 245.768 538.748 246.429L549.237 253.311C550.065 253.854 551.116 254.412 551.986 253.939C552.496 253.662 552.775 253.102 553.022 252.576ZM550.698 249.742C550.257 249.844 549.797 249.732 549.364 249.601C546.716 248.803 544.292 247.275 542.431 245.23C541.811 244.55 542.162 243.348 542.948 242.871C543.735 242.395 544.758 242.504 545.606 242.86C546.154 243.09 546.655 243.411 547.157 243.732C547.432 243.907 547.707 244.083 547.99 244.245C548.295 244.418 548.613 244.577 548.93 244.736C549.832 245.188 550.734 245.641 551.349 246.422C552.18 247.48 552.009 249.441 550.698 249.742ZM554.24 254.214C555.449 253.926 555.818 252.694 556.202 251.413C556.52 250.354 556.847 249.262 557.666 248.643C559.076 247.577 561.074 248.468 562.593 249.372L567.425 252.246C568.195 252.704 568.984 253.178 569.536 253.884C570.088 254.589 570.359 255.589 569.973 256.397C569.715 256.937 569.228 257.295 568.737 257.655C568.334 257.951 567.929 258.248 567.646 258.649C567.283 259.163 567.148 259.809 567.014 260.446C566.847 261.246 566.682 262.034 566.071 262.537C564.959 263.453 563.305 262.719 562.075 261.967L555.268 257.807C554.581 257.388 553.857 256.927 553.519 256.196C553.182 255.466 553.457 254.4 554.24 254.214ZM563.165 258.345C564.14 258.012 564.923 257.289 565.675 256.585C566.22 256.075 565.491 255.236 564.841 254.869L560.67 252.521C560.235 252.276 559.629 252.053 559.292 252.421C558.206 253.606 558.048 255.541 558.928 256.887C559.808 258.233 561.643 258.864 563.165 258.345ZM515.312 258.199C514.378 257.936 513.428 257.668 512.665 257.148C511.481 256.34 509.832 256.536 508.589 257.25C507.346 257.964 506.419 259.108 505.523 260.226C505.025 260.846 504.514 261.493 504.323 262.266C504.133 263.038 504.36 263.974 505.055 264.361L512.328 268.415C512.879 268.722 513.494 269.039 514.109 268.903C514.722 268.767 515.145 268.223 515.514 267.715L517.385 265.14C518.427 263.706 519.516 261.88 518.754 260.28C518.143 258.998 516.748 258.604 515.312 258.199ZM513.01 264.869C512.629 264.969 512.238 264.786 511.887 264.607L506.932 262.086C507.885 260.738 509.697 260.22 511.34 260.383C512.983 260.547 514.508 261.277 515.994 261.996L513.717 264.361C513.513 264.573 513.294 264.793 513.01 264.869ZM478.683 164.036C479.45 165.206 479.21 166.769 478.701 168.072C478.03 169.789 476.897 171.38 475.295 172.294C473.694 173.207 471.591 173.341 470.03 172.359C468.47 171.377 467.686 169.194 468.522 167.551C468.716 167.171 468.98 166.834 469.243 166.497C469.496 166.175 469.749 165.853 469.94 165.492C470.065 165.255 470.163 165.003 470.261 164.752C470.402 164.389 470.543 164.027 470.766 163.711C471.56 162.586 473.125 162.365 474.502 162.385C476.064 162.407 477.826 162.73 478.683 164.036ZM475.197 164.779C473.06 164.752 471.056 166.544 470.845 168.67C470.758 169.539 471.127 170.619 471.992 170.739C472.64 170.828 473.209 170.328 473.645 169.839C474.566 168.807 475.358 167.658 475.995 166.429C476.208 166.016 476.397 165.487 476.116 165.118C475.911 164.848 475.535 164.783 475.197 164.779ZM526.297 109.055C526.132 107.099 524.823 105.175 522.922 104.684C520.507 104.062 518.166 105.762 516.249 107.357C515.682 107.829 515.09 108.337 514.85 109.034C514.442 110.218 515.176 111.465 515.898 112.487C516.725 113.658 517.608 114.835 518.815 115.609C520.021 116.383 521.63 116.684 522.896 116.011C523.541 115.668 524.044 115.108 524.48 114.522C525.652 112.947 526.461 111.011 526.297 109.055ZM520.941 114.071C520.123 114.193 519.274 113.863 518.671 113.296C517.769 112.446 517.411 111.079 517.726 109.88C518.058 108.618 519.118 107.575 520.385 107.264C521.653 106.952 523.075 107.385 523.954 108.35C523.921 108.613 523.894 108.878 523.866 109.143L523.866 109.143C523.773 110.043 523.68 110.944 523.368 111.788C522.965 112.882 522.094 113.898 520.941 114.071ZM455.938 419.234C460.391 403.482 468.797 389.186 477.117 375.089C478.523 372.706 480.267 370.082 482.996 369.63C484.073 369.452 484.64 368.282 485.006 367.255C489.519 354.598 489.954 340.522 486.231 327.61C485.169 323.924 486.477 320.017 487.771 316.407L497.792 288.453C496.75 286.65 494.779 285.859 492.783 285.056C491.113 284.385 489.425 283.707 488.247 282.423C484.921 278.798 487.43 273.034 490.036 268.86L535.71 195.714C537.576 192.727 541.669 191.79 545.099 192.586C548.53 193.382 551.46 195.541 554.281 197.649L587.593 222.53C593.552 226.981 600.131 232.667 599.788 240.097C599.598 244.209 597.245 247.864 594.969 251.293L568.569 291.075C565.156 296.219 564.742 302.473 564.326 308.755V308.755C564.137 311.597 563.949 314.444 563.482 317.197C561.206 330.628 552.261 341.751 543.691 352.408C543.349 352.833 543.008 353.258 542.668 353.682C533.798 364.728 524.924 377.063 524.425 391.221C523.831 408.095 515.815 424.576 502.906 435.46L514.139 408.21C516.81 401.729 519.284 393.667 514.814 388.268C512.791 385.825 509.734 384.533 506.799 383.329L489.354 376.171C488.151 375.678 486.911 375.176 485.611 375.168C481.558 375.144 479.147 379.539 477.504 383.244C471.819 396.06 464.558 408.177 455.938 419.234ZM513.301 382.227C516.292 383.334 520.504 384.007 521.921 381.149C528.781 367.32 535.83 353.225 546.75 342.314C553.044 336.025 556.902 327.633 559.085 319.007C561.268 310.381 561.886 301.448 562.495 292.571C559.845 293.536 559.615 297.112 559.626 299.932C559.651 306.149 558.564 312.368 556.432 318.208C555.986 319.43 555.387 320.751 554.193 321.267C552.998 321.782 551.238 320.747 551.639 319.509C554.721 310.01 555.87 299.888 554.995 289.94C554.723 286.855 554.149 283.556 551.956 281.37C552.194 286.24 552.432 291.132 551.938 295.983C551.084 304.376 548.075 312.378 545.092 320.269C544.705 321.294 544.237 322.411 543.253 322.892C542.269 323.374 540.742 322.611 540.999 321.546L545.466 303.082C547.922 292.93 550.337 282.009 546.535 272.28C544.62 272.152 544.169 274.89 544.34 276.801C545.511 289.894 541.892 302.888 538.308 315.535C537.89 317.012 536.41 318.858 535.259 317.843C534.763 317.405 534.74 316.65 534.78 315.99C535.006 312.27 536.026 308.67 537.044 305.073C537.36 303.957 537.676 302.841 537.968 301.722C540.661 291.408 541.348 280.574 539.979 270.003C537.62 273.027 536.619 276.863 535.674 280.58L530.068 302.648C527.533 312.624 524.295 323.591 515.508 328.95C514.808 329.377 513.996 329.774 513.198 329.584C512.207 329.349 511.645 328.325 511.232 327.394C505.623 314.761 504.922 300.023 509.307 286.915C509.573 286.12 508.764 285.289 507.928 285.223C507.092 285.157 506.309 285.612 505.624 286.096C498.428 291.173 495.672 300.37 493.383 308.873L490.34 320.18C489.896 321.832 489.449 323.498 489.356 325.206C489.215 327.801 489.893 330.341 490.567 332.867C490.723 333.452 490.879 334.037 491.025 334.622C493.952 346.368 492.63 359.127 487.356 370.024C486.578 371.63 488.631 373.092 490.305 373.712L513.301 382.227ZM524.668 274.318C523.469 273.491 522.183 272.548 521.812 271.139C521.244 268.978 523.301 266.808 525.516 266.518C527.731 266.227 529.898 267.296 531.734 268.569C534.32 270.363 537.592 267.628 539.528 265.147C536.917 263.584 534.425 261.159 534.322 258.118C534.219 255.076 537.917 252.179 540.379 253.969C541.334 254.664 542.489 255.089 543.632 255.509C545.343 256.139 547.026 256.758 547.965 258.257C549.033 259.962 548.653 262.268 547.566 263.96C546.479 265.653 544.806 266.868 543.172 268.042C545.517 268.275 547.8 269.111 549.741 270.448L551.855 264.286C552.019 263.808 552.197 263.308 552.573 262.971C553.298 262.321 554.426 262.522 555.354 262.816C557.789 263.589 560.177 264.795 561.784 266.781C563.392 268.767 564.061 271.652 562.938 273.946C561.815 276.241 558.646 277.464 556.498 276.081C556.053 275.794 555.605 275.41 555.157 275.027C553.96 274.001 552.763 272.975 551.608 273.796C555.136 276.544 557.56 280.672 558.24 285.092C569.348 268.172 580.336 251.173 591.204 234.099C592.242 232.469 593.079 229.9 591.389 228.963C584.172 224.958 577.792 219.596 571.428 214.246C563.394 207.493 555.385 200.761 545.745 196.807C545.133 196.556 544.464 196.314 543.825 196.482C543.155 196.659 542.683 197.242 542.262 197.792C524.311 221.221 508.2 246.061 494.128 272.005C492.164 275.625 494.792 279.939 497.306 283.201C498.562 284.83 500.986 286.552 502.356 285.017C504.082 283.082 506.912 281.976 509.357 282.84C511.802 283.704 513.323 286.883 511.994 289.109C511.032 290.719 512.915 292.509 514.559 293.41C517.846 295.211 521.217 296.856 524.658 298.339C525.136 298.546 525.693 298.748 526.159 298.515C526.602 298.292 526.782 297.764 526.921 297.288L530.733 284.171C531.36 282.014 531.779 279.215 529.929 277.941L524.668 274.318ZM592.86 237.549C592.354 237.375 591.892 237.882 591.595 238.327L563.052 281.052C562.284 282.202 561.498 283.397 561.274 284.761C561.05 286.125 561.551 287.711 562.792 288.318C564.848 289.324 566.998 287.211 568.318 285.341L594.837 247.755C596.806 244.964 595.139 241.149 593.454 238.178C593.308 237.922 593.139 237.645 592.86 237.549ZM512.499 294.603C511.997 294.237 511.245 294.455 510.825 294.912C510.404 295.37 510.232 295.997 510.074 296.598C509.684 298.077 509.291 299.571 509.234 301.1C509.176 302.629 509.454 304.149 509.73 305.653L512.464 320.511C512.578 321.134 512.712 321.796 513.154 322.249C513.596 322.703 514.456 322.802 514.814 322.279C518.859 316.362 522.962 310.33 525.078 303.483C525.341 302.631 525.417 301.434 524.583 301.12C520.287 299.504 516.21 297.305 512.499 294.603ZM544.063 257.945C542.693 256.64 540.882 255.806 539 255.614C537.284 255.439 536.294 257.85 537.078 259.386C537.861 260.923 539.591 261.684 541.192 262.326C542.322 262.779 543.693 263.206 544.678 262.491C546.094 261.463 545.33 259.151 544.063 257.945ZM532.795 275.161C533.354 274.764 533.426 273.951 533.27 273.284C532.681 270.769 529.923 269.484 527.448 268.748C526.49 268.463 525.299 268.264 524.624 269.001C524.06 269.616 524.18 270.635 524.666 271.313C525.152 271.991 525.913 272.409 526.647 272.804L530.471 274.864C531.198 275.255 532.122 275.64 532.795 275.161ZM554.553 266.097C553.743 267.181 553.826 268.757 554.502 269.93C555.177 271.102 556.347 271.916 557.581 272.471C558.004 272.661 558.469 272.828 558.924 272.737C559.315 272.659 559.65 272.395 559.889 272.076C560.772 270.896 560.344 269.118 559.331 268.045C558.319 266.973 556.879 266.436 555.493 265.934C555.254 265.847 554.976 265.763 554.757 265.894C554.737 265.906 554.718 265.92 554.7 265.935C554.644 265.981 554.597 266.039 554.553 266.097ZM171.046 364.363C171.575 360.45 172.317 356.144 175.391 353.666C177.843 351.69 181.208 351.375 184.356 351.314C194.668 351.116 205.014 352.791 214.737 356.232C217.813 357.321 221.032 358.755 222.714 361.551C224.535 364.578 224.091 368.396 223.587 371.892L215.778 426.144C221.163 410.433 225.029 394.201 227.304 377.749C228.366 370.074 228.736 361.266 223.379 355.668C215.017 346.929 215.245 334.48 215.477 321.823C215.677 310.899 215.88 299.82 210.566 290.834C208.833 287.902 212.698 284.876 215.913 283.75C230.083 278.789 245.189 276.512 260.192 277.077C262.942 298.805 263.686 320.787 262.412 342.651C262.126 347.555 269.08 348.82 273.962 348.279L443.325 329.499C444.172 329.405 445.089 329.279 445.69 328.674C446.391 327.968 446.426 326.859 446.416 325.863C446.016 286.182 444.874 246.508 442.991 206.869C442.917 205.322 442.72 203.546 441.44 202.675C440.479 202.022 439.216 202.108 438.06 202.22L317.175 213.939C325.117 176.484 333.103 138.327 329.481 100.211C303.055 117.83 268.956 117.698 237.25 115.833C235.932 115.755 234.611 115.676 233.288 115.597C202.776 113.773 170.956 111.872 143.525 125.071C157.888 163.152 172.416 204.719 160.477 243.629C159.42 247.071 158.164 250.452 156.907 253.832C154.971 259.043 153.035 264.251 151.838 269.672C149.865 278.609 150.162 288.615 155.451 296.085C163.109 306.901 169.196 319.199 170.584 332.379C171.901 344.887 168.958 357.291 166.018 369.682C162.946 382.628 159.877 395.558 161.676 408.575C161.981 410.777 162.531 413.146 164.255 414.55L171.046 364.363ZM183.028 207.192C186.231 207.306 187.504 211.326 187.914 214.505L191.156 239.674C184.825 236.392 175.918 241.963 176.1 249.093C170.765 238.795 169.954 226.993 169.152 215.311C168.977 212.77 168.803 210.234 168.583 207.72C166.227 180.843 158.127 154.846 150.077 129.095C148.929 125.423 153.887 123.042 157.694 122.483C182.673 118.821 207.954 119.327 233.247 119.833C244.712 120.062 256.179 120.291 267.622 120.133C287.953 119.851 309.466 117.926 325.959 106.033C329.666 130.745 324.628 155.677 319.653 180.296C318.98 183.626 318.308 186.95 317.659 190.268C312.214 218.109 308.508 247.785 318.926 274.171C319.365 275.283 317.868 276.122 316.698 276.366C308.129 278.153 299.27 278.538 290.578 277.501C286.85 277.056 283.161 276.352 279.471 275.649C276.693 275.119 273.914 274.59 271.117 274.17C250.065 271.011 228.09 274.29 208.877 283.457C208.107 283.824 207.191 283.652 206.384 283.373C202.493 282.026 199.717 278.431 198.332 274.553C196.947 270.675 196.749 266.49 196.564 262.376L195.789 245.123C195.761 244.503 195.924 243.662 196.544 243.642C230.201 242.591 263.82 240.322 297.314 236.841C295.897 228.916 295.757 220.765 296.899 212.797C297.62 207.766 292.89 203.18 287.852 202.507C282.815 201.833 277.834 204.115 273.651 207.002C272.087 208.082 270.584 209.255 269.083 210.427C266.571 212.389 264.061 214.348 261.266 215.867C259.437 216.86 257.237 217.662 255.317 216.859C252.966 215.877 252.178 213.081 251.474 210.584C251.43 210.427 251.386 210.272 251.342 210.118C250.426 206.903 248.912 203.703 246.249 201.681C243.587 199.659 239.57 199.156 236.942 201.222C234.695 202.989 233.985 206.049 233.608 208.882C233.575 209.134 233.543 209.387 233.51 209.642C233.176 212.247 232.831 214.939 231.277 217.028C229.57 219.321 225.762 220.304 223.891 218.144C220.189 213.871 213.694 212.975 208.244 214.475C202.794 215.974 198.13 219.437 193.608 222.829C190.88 218.56 190.655 212.812 193.039 208.342L193.079 208.268C193.528 207.429 194.043 206.465 193.646 205.61C193.401 205.081 192.859 204.756 192.323 204.526C189.116 203.151 185.019 204.326 183.028 207.192ZM279.399 279.339C281.192 279.697 283.396 280.496 283.507 282.322C284.564 299.727 298.397 315.369 315.404 319.221C332.411 323.074 351.26 315.284 361.176 300.94C371.093 286.596 371.869 266.669 363.738 251.243C355.017 234.7 333.825 225.914 315.957 231.435C315.128 227.78 315.222 223.919 316.226 220.307C316.413 219.636 316.656 218.935 317.198 218.498C317.726 218.07 318.441 217.973 319.116 217.891L369.449 211.829C373.874 211.296 378.31 210.762 382.767 210.725C401.932 210.568 421.083 208.656 439.902 205.024C442.827 244.29 444.203 283.671 444.026 323.045C444.018 324.913 443.449 327.395 441.582 327.449C409.905 328.372 378.478 332.539 347.038 336.707C325.915 339.508 304.787 342.309 283.574 344.128C278.845 344.533 274.085 344.89 269.361 344.439C268.504 344.358 267.538 344.183 267.073 343.46C266.792 343.023 266.761 342.477 266.737 341.959L263.913 278.981C263.876 278.167 263.926 277.186 264.63 276.778C265.097 276.507 265.682 276.604 266.211 276.71L279.399 279.339ZM192.735 264.759C192.234 268.03 191.671 271.71 193.814 274.185C201.807 283.416 210.111 293.278 212.235 305.303C213.227 310.918 212.801 316.697 212.377 322.452C211.842 329.702 211.31 336.915 213.619 343.716C213.679 343.893 213.741 344.071 213.804 344.249C214.228 345.462 214.66 346.697 214.523 347.963C214.365 349.415 213.105 350.876 211.666 350.628L194.956 347.746C189.422 346.791 183.576 345.863 178.32 347.838C177.303 348.22 176.134 347.55 175.589 346.611C175.044 345.672 174.973 344.541 174.926 343.456C174.869 342.147 174.826 340.828 174.783 339.506C174.513 331.187 174.238 322.713 170.388 315.424L158.103 292.169C156.289 288.736 154.433 285.15 154.308 281.269C154.225 278.678 154.924 276.132 155.618 273.634L161.746 251.558C163.037 246.911 164.402 242.115 167.457 238.383C174.88 250.977 175.613 267.269 169.35 280.478C168.77 281.7 170.54 282.958 171.802 282.471C173.063 281.984 173.704 280.602 174.149 279.325C175.93 274.209 176.555 268.817 177.181 263.416C177.687 259.046 178.193 254.672 179.314 250.435C180 247.839 180.991 245.19 182.995 243.403C184.999 241.617 188.268 241.005 190.368 242.678C191.976 243.958 192.498 246.145 192.804 248.177C193.611 253.537 193.607 259.019 192.793 264.379C192.774 264.505 192.754 264.631 192.735 264.759ZM221.567 221.177C224.03 223.062 226.443 224.908 229.398 224.566C233.154 224.132 235.495 220.265 236.586 216.644C236.825 215.852 237.037 215.041 237.25 214.228C238.01 211.327 238.776 208.403 240.766 206.221C241.344 205.586 242.177 204.996 242.999 205.245C243.665 205.446 244.052 206.12 244.361 206.743C244.799 207.626 245.214 208.523 245.628 209.421C246.798 211.954 247.967 214.487 249.665 216.687C251.965 219.668 255.543 222.012 259.285 221.602C262.631 221.235 265.246 218.866 267.794 216.556C268.317 216.082 268.836 215.611 269.359 215.161C275.497 209.868 283.491 206.771 291.593 206.548C290.5 209.279 291.229 212.258 291.944 215.182C292.116 215.885 292.288 216.586 292.432 217.279C293.576 222.747 292.998 228.562 290.8 233.698L236.686 237.864C224.053 238.837 211.388 239.81 198.726 239.365C197.926 239.336 197.106 239.298 196.37 238.983C194.98 238.389 194.154 236.905 193.855 235.423C193.185 232.101 194.717 228.641 197.037 226.169C199.357 223.698 202.387 222.034 205.363 220.411C208.46 218.723 211.898 216.978 215.351 217.698C217.649 218.178 219.624 219.689 221.567 221.177ZM324.038 300.004C315.84 299.835 308.737 293.147 306.303 285.317C305.806 283.718 306.84 281.964 308.266 281.086C309.691 280.208 311.416 280.001 313.08 279.814L325.092 278.465C321.439 271.365 318.837 263.725 317.397 255.871C317.267 255.159 317.148 254.41 317.373 253.722C317.768 252.513 319.071 251.877 320.276 251.472C330.036 248.192 341.754 252.174 347.493 260.722C353.232 269.27 352.48 281.626 345.744 289.412C342.828 292.784 339.007 295.272 334.981 297.187C331.548 298.819 327.839 300.082 324.038 300.004ZM362.941 257.802C364.399 262.619 364.82 267.686 365.021 272.715C361.745 272.219 358.437 271.937 355.124 271.873C354.477 263.414 348.847 255.772 341.445 251.626C334.044 247.48 325.111 246.584 316.747 248.004C316.676 246.811 316.459 245.567 316.241 244.323C315.668 241.04 315.094 237.757 317.217 235.426C318.499 234.018 320.453 233.455 322.325 233.106C330.851 231.518 339.943 233.182 347.355 237.688C354.766 242.195 360.427 249.501 362.941 257.802ZM302.816 284.463C302.802 284.619 302.789 284.773 302.782 284.919C302.726 286.088 303.271 287.16 303.81 288.222C303.955 288.506 304.099 288.79 304.231 289.074C304.856 290.42 305.159 292.193 304.114 293.248C301.587 295.798 299.354 298.64 297.473 301.698C297.008 302.455 295.863 302.517 295.098 302.066C294.333 301.615 293.859 300.81 293.417 300.04C290.621 295.165 287.755 290.066 287.407 284.457C287.363 283.759 287.44 282.915 288.058 282.59C288.331 282.447 288.652 282.443 288.96 282.442L301.465 282.404C301.764 282.403 302.078 282.406 302.338 282.553C302.951 282.902 302.881 283.712 302.816 284.463Z" fill="#00160A"/>
</svg>
