<svg width="684" height="558" viewBox="0 0 684 558" fill="none" xmlns="http://www.w3.org/2000/svg">
<path fill-rule="evenodd" clip-rule="evenodd" d="M393.686 558C475.573 558 547.433 497.044 507.077 414.252C466.72 331.459 616.671 334.133 660.719 276.912C714.437 207.129 698.88 -89.0904 354.031 91.4993C298.79 120.428 156.919 61.7388 109.86 90.8592C54.467 125.137 -23.4681 195.326 54.467 267.225C92.8563 302.641 -44.7784 394.565 15.5029 476.904C74.3223 557.247 115.554 480.657 205.105 497.044C294.657 513.432 332.87 558 393.686 558Z" fill="#2E2E64"/>
<path fill-rule="evenodd" clip-rule="evenodd" d="M331.453 438.406C253.655 421.379 149.997 387.589 167.031 271.651C184.064 155.712 257.083 111.009 347.421 111.009C437.755 111.009 540.389 179.163 520.242 320.35C500.094 461.536 409.252 455.433 331.453 438.406ZM587.172 298.65C590.384 266.389 586.971 234.469 577.802 204.547L603.963 190.533C608.372 188.172 610.031 182.685 607.673 178.277L571.957 111.596C569.593 107.188 564.105 105.529 559.695 107.89L533.534 121.904C513.702 97.6957 489.021 77.168 460.392 61.9662L468.973 33.571C470.423 28.7843 467.717 23.7314 462.928 22.2843L390.521 0.389837C385.732 -1.05725 380.683 1.64953 379.233 6.43623L370.652 34.8314C338.386 31.6197 314.88 43.4427 284.956 52.6064L270.942 26.445C268.582 22.0368 263.094 20.3778 258.686 22.7388L192.006 58.4572C187.598 60.8182 185.939 66.3054 188.3 70.7128L202.313 96.8749C178.105 116.707 149.168 132.978 133.966 161.612L105.57 153.026C100.784 151.579 95.7306 154.286 94.2835 159.072L72.3898 231.479C70.9428 236.266 73.6495 241.319 78.4355 242.767L106.831 251.353C103.62 283.612 107.033 315.533 116.197 345.455L90.0352 359.469C85.627 361.83 83.968 367.317 86.329 371.726L122.047 438.406C124.408 442.814 129.896 444.473 134.303 442.112L160.465 428.098C180.297 452.307 204.977 472.834 233.612 488.036L225.026 516.431C223.579 521.217 226.286 526.271 231.072 527.718L303.48 549.609C308.262 551.059 313.319 548.352 314.769 543.563L323.35 515.171C355.608 518.383 387.532 514.969 417.455 505.805L431.465 531.967C433.83 536.375 439.318 538.031 443.727 535.673L510.408 499.954C514.81 497.594 516.476 492.106 514.111 487.699L500.094 461.536C524.306 441.705 544.83 417.024 560.037 388.389L588.428 396.975C593.217 398.422 598.274 395.716 599.717 390.93L621.609 318.522C623.059 313.736 620.352 308.683 615.563 307.236L587.172 298.65Z" fill="#6DFA7B"/>
<path fill-rule="evenodd" clip-rule="evenodd" d="M447.076 135.861L444.555 135.775L444.484 138.016C444.364 142.047 444.419 146.359 444.479 151.06C444.521 154.337 444.566 157.802 444.555 161.494L444.136 168.783C444.147 175.574 444.195 185.026 444.279 197.139L444.553 231.623C442.7 232.238 441.307 233.838 441.028 235.784C439.499 236.017 438.325 237.315 438.325 238.877C438.325 239.983 438.914 240.956 439.8 241.513L438.722 244.12C438.242 245.279 437.452 246.269 436.435 246.984C431.979 250.119 429.355 255.196 429.418 260.565C429.419 260.708 429.423 260.85 429.428 260.992C429.448 261.507 429.889 261.904 430.415 261.89C430.941 261.871 431.351 261.438 431.331 260.923C431.327 260.797 431.323 260.671 431.322 260.544C431.267 255.783 434.435 251.28 438.387 248.5C439.696 247.578 440.713 246.306 441.328 244.821L441.65 242.008H443.004C443.004 242.008 443.475 244.54 443.475 246.519C443.475 248.498 443.004 252.418 443.004 252.418H441.444C439.656 252.418 438.202 253.842 438.202 255.593C438.202 257.344 439.656 258.768 441.444 258.768H441.667C443.455 258.768 444.068 257.854 444.068 255.593C444.068 254.41 444.198 253.563 446.13 253.563C448.061 253.563 447.563 255.593 447.563 255.593C447.563 257.344 449.017 258.768 450.805 258.768H451.028C452.816 258.768 454.27 257.344 454.27 255.593C454.27 253.842 451.255 252.362 449.468 252.362C449.468 252.362 448.992 248.799 448.992 246.984C448.992 245.454 449.468 242.326 449.468 242.326H447.563C447.563 242.326 447.961 245.246 447.961 247.028C447.961 248.81 447.563 252.362 447.563 252.362C447.563 252.362 446.513 252.551 446.013 252.562C445.512 252.572 444.909 252.418 444.909 252.418C444.909 252.418 444.491 248.776 444.491 247.028C444.491 245.28 444.909 242.008 444.909 242.008H447.563H449.468H450.822L451.985 244.82C452.57 246.233 454.319 247.473 455.653 248.418L455.822 248.538C459.685 251.282 461.151 255.707 461.151 260.375C461.151 264.318 459.572 268.013 456.705 270.781C453.838 273.548 450.043 275.882 446.013 275.824C442.818 275.778 439.551 274.018 436.997 272.11C434.524 270.262 431.322 265.208 430.789 264.042C430.256 262.875 430.005 264.716 430.16 265.208C431.186 268.461 433.285 271.399 436.07 273.48C438.951 275.632 442.379 276.797 445.985 276.848C450.529 276.913 454.809 275.23 458.042 272.11C461.275 268.989 463.056 264.821 463.056 260.375C463.056 255.111 460.455 250.121 456.098 247.028C455.037 246.274 454.225 245.269 453.75 244.12L452.672 241.513C453.558 240.956 454.147 239.983 454.147 238.878C454.147 237.316 452.973 236.017 451.444 235.784C451.129 233.59 449.399 231.835 447.188 231.437L447.066 231.437L445.605 199.37C445.518 187.165 446.66 162.768 446.66 162.768C446.68 153.386 446.795 145.161 447.005 138.093L447.076 135.861ZM450.804 256.903C450.067 256.903 449.467 256.315 449.467 255.593V253.563C449.467 253.563 452.365 254.144 452.365 255.593C452.365 256.923 451.86 256.915 451.207 256.905H451.206C451.148 256.904 451.088 256.903 451.028 256.903H450.804ZM439.378 255.593C439.501 257.417 443.284 258.212 443.004 255.593V253.563C443.004 253.563 439.254 253.77 439.378 255.593ZM442.97 235.747C443.32 234.298 444.651 233.217 446.236 233.217C447.82 233.217 449.152 234.298 449.502 235.747H442.97ZM450.95 237.612H450.543H441.928H441.521C440.808 237.612 440.229 238.18 440.229 238.877C440.229 239.575 440.808 240.142 441.521 240.142H450.95C451.662 240.142 452.242 239.575 452.242 238.877C452.242 238.18 451.662 237.612 450.95 237.612ZM467.27 245.734H468.934C469.404 245.734 469.784 245.358 469.784 244.893C469.784 244.428 469.404 244.052 468.934 244.052H467.27C466.801 244.052 466.42 244.428 466.42 244.893C466.42 245.358 466.801 245.734 467.27 245.734ZM465.948 251.687L467.549 252.361C468.001 252.551 468.22 253.09 468.039 253.563C467.858 254.037 467.345 254.267 466.893 254.077L465.292 253.403C464.84 253.213 464.621 252.675 464.802 252.201C464.94 251.84 465.271 251.621 465.62 251.621C465.729 251.621 465.84 251.642 465.948 251.687ZM464.517 237.973L466.018 236.769C466.441 236.43 466.547 235.757 466.254 235.267C466.073 234.964 465.782 234.801 465.487 234.801C465.304 234.801 465.119 234.864 464.958 234.993L463.457 236.197C463.034 236.537 462.928 237.209 463.221 237.7C463.514 238.19 464.094 238.312 464.517 237.973ZM424.362 245.734H422.698C422.229 245.734 421.848 245.358 421.848 244.893C421.848 244.428 422.229 244.052 422.698 244.052H424.362C424.832 244.052 425.212 244.428 425.212 244.893C425.212 245.358 424.832 245.734 424.362 245.734ZM425.685 251.687L424.083 252.361C423.631 252.551 423.412 253.09 423.593 253.563C423.774 254.037 424.287 254.267 424.739 254.077L426.341 253.403C426.792 253.213 427.011 252.675 426.83 252.201C426.692 251.84 426.362 251.621 426.012 251.621C425.903 251.621 425.792 251.642 425.685 251.687ZM427.113 237.973L425.613 236.769C425.19 236.43 425.084 235.757 425.377 235.267C425.558 234.964 425.848 234.801 426.144 234.801C426.327 234.801 426.511 234.864 426.673 234.993L428.174 236.197C428.597 236.536 428.702 237.209 428.41 237.7C428.117 238.19 427.537 238.313 427.113 237.973Z" fill="#FFB61D"/>
<path d="M322.839 370.688C332.115 373.129 336.875 378.94 340.895 384.351C344.923 389.762 336.068 387.188 331.182 385.234C326.296 383.282 314.53 376.058 314.53 376.058L275.526 364.261V346.22L287.19 345.539C287.19 345.539 313.555 368.246 322.839 370.688Z" fill="white"/>
<path d="M281.377 246.76C282.369 250.515 285.53 253.31 286.423 256.852C305.88 286.286 286.669 264.464 287.264 266.943C292.747 289.782 294.764 307.486 295.305 330.52C295.305 330.52 303.118 331.496 302.142 338.332C301.167 345.169 280.655 363.723 280.655 363.723L273.549 340.168L270.892 253.369L273.808 238.35" fill="white"/>
<path fill-rule="evenodd" clip-rule="evenodd" d="M285.268 254.719L280.478 251.542C280.172 251.339 279.768 251.497 279.658 251.862L277.988 257.41C277.849 257.872 278.264 258.305 278.695 258.147L285.156 255.777C285.596 255.615 285.664 254.982 285.268 254.719ZM284.689 255.637L278.802 257.339L280.555 252.294L284.689 255.637Z" fill="#E9666D"/>
<path fill-rule="evenodd" clip-rule="evenodd" d="M283.167 294.666L278.376 291.489C278.07 291.286 277.667 291.443 277.557 291.809L275.886 297.357C275.747 297.819 276.163 298.252 276.594 298.094L283.054 295.723C283.495 295.562 283.562 294.928 283.167 294.666ZM282.587 295.583L276.7 297.286L278.452 292.24L282.587 295.583Z" fill="#E9666D"/>
<path fill-rule="evenodd" clip-rule="evenodd" d="M280.648 317.108L281.005 311.371C281.028 311.005 280.689 310.734 280.318 310.821L274.678 312.149C274.208 312.259 274.041 312.836 274.393 313.13L279.677 317.54C280.037 317.84 280.619 317.582 280.648 317.108ZM279.564 317.065L275.146 312.818L280.392 311.813L279.564 317.065Z" fill="#E9666D"/>
<path fill-rule="evenodd" clip-rule="evenodd" d="M289.727 312.876L283.99 312.519C283.623 312.496 283.352 312.835 283.44 313.206L284.767 318.846C284.878 319.316 285.454 319.483 285.748 319.131L290.158 313.847C290.459 313.487 290.201 312.905 289.727 312.876ZM289.684 313.96L285.437 318.378L284.432 313.132L289.684 313.96Z" fill="#E9666D"/>
<path fill-rule="evenodd" clip-rule="evenodd" d="M285.298 342.123L280.151 344.683C279.822 344.846 279.757 345.274 280.018 345.553L283.988 349.773C284.318 350.125 284.901 349.981 284.98 349.529L286.157 342.749C286.237 342.286 285.723 341.911 285.298 342.123ZM285.802 343.084L284.333 349.033L280.839 344.993L285.802 343.084Z" fill="#E9666D"/>
<path fill-rule="evenodd" clip-rule="evenodd" d="M287.821 326.144L282.674 328.704C282.345 328.868 282.28 329.296 282.542 329.574L286.511 333.795C286.842 334.146 287.424 334.003 287.503 333.551L288.681 326.77C288.761 326.308 288.246 325.933 287.821 326.144ZM288.325 327.105L286.857 333.055L283.363 329.014L288.325 327.105Z" fill="#E9666D"/>
<path d="M254.453 257.547L248.793 274.632C235.857 313.762 229.487 333.624 229.295 335.486C229.176 336.642 229.878 337.507 230.959 337.801C231.61 337.978 232.405 337.968 233.392 337.822C234.928 337.594 236.982 337.018 239.462 336.161C241.379 335.499 243.451 334.704 245.549 333.845L246.432 333.481C246.718 333.361 246.997 333.244 247.267 333.13L248.67 332.525L249.07 332.349L249.303 331.978C249.716 331.32 250.305 330.156 250.886 328.561C251.396 327.158 251.803 325.657 252.071 324.07L252.165 323.471C252.248 322.889 253.047 321.541 254.697 319.238L255.846 317.665C256.789 316.394 258.603 313.967 258.785 313.721L259.852 312.277C260.871 310.887 261.761 309.646 262.63 308.394C266.991 302.116 270.072 296.621 271.89 291.333C273.432 286.847 273.973 282.69 273.362 278.87C272.427 273.037 272.786 267.464 274.151 262.233C275.285 257.888 271.697 253.878 266.526 252.404C261.183 250.881 256.092 252.606 254.453 257.547Z" fill="white"/>
<path d="M263.926 232.281C267.078 235.626 269.723 238.177 271.86 239.934C275.461 242.893 277.625 246.807 284.347 250.191C263.785 254.953 254.227 255.152 249.678 252.273C249.678 252.273 251.572 243.357 254.295 239.537C256.322 236.693 263.926 232.281 263.926 232.281Z" fill="white"/>
<path d="M296.634 189.297C292.362 205.523 280.689 222.463 268.259 219.192C255.83 215.919 248.951 193.742 253.223 177.516C257.495 161.29 271.035 150.789 283.464 154.06C295.894 157.332 300.906 173.072 296.634 189.297Z" fill="white"/>
<path d="M302.849 193.845C300.061 205.586 288.131 223.28 275.937 225.803C265.845 247.668 284.767 242.419 259.538 235.053C244.146 230.56 241.037 232.11 258.697 195.948C263.988 173.665 270.554 149.385 285.946 153.878C301.339 158.37 308.139 171.564 302.849 193.845Z" fill="white"/>
<path fill-rule="evenodd" clip-rule="evenodd" d="M277.028 156.282C286.614 156.827 293.609 159.976 297.531 165.525L297.973 166.166C299.913 168.965 301.543 170.727 302.256 176.025L302.325 176.588C302.732 180.073 302.852 183.749 302.643 184.97C302.529 185.485 302.308 185.665 302.029 185.61C301.396 185.487 299.755 182.571 297.108 176.864L294.886 179.465C293.677 180.862 291.112 182.178 289.593 183.168C288.073 184.158 277.028 156.282 277.028 156.282Z" fill="#E7EAEE"/>
<path d="M348.76 514.782L348.471 532.594H338.339L335.305 512.156L348.76 514.782Z" fill="white"/>
<path d="M237.796 420.059C237.796 420.059 303.538 418.607 324.204 415.626C347.146 412.317 359.692 404.497 364.681 405.421C367.019 405.854 380.819 408.299 409.613 411.362C421.791 412.657 453.402 412.856 453.402 412.856L465.672 386.742C465.672 386.742 379.333 369.408 352.036 376.911C343.45 379.271 324.857 382.676 302.75 381.432C283.634 380.357 231.642 370.259 231.642 370.259C231.642 370.259 210.651 377.794 214.45 396.325C218.25 414.856 237.796 420.059 237.796 420.059Z" fill="white"/>
<path fill-rule="evenodd" clip-rule="evenodd" d="M458.637 397.915L462.678 386.213C462.678 386.213 376.485 370.135 349.189 377.638C340.602 379.998 332.843 383.889 310.736 382.645C302.273 382.169 287.804 380.189 267.328 376.703C256.97 374.94 255.306 375.593 263.446 380.917C282.325 393.262 324.318 390.352 362.419 384.789C433.231 374.45 458.637 397.915 458.637 397.915Z" fill="#E7EAEE"/>
<path d="M337.323 518.826C333.034 523.565 327.349 531.369 330.276 539.182L381.063 554.808C381.063 554.808 383.014 548.946 380.087 544.068C377.152 539.182 349.443 519.906 349.443 519.906L337.323 518.826Z" fill="white"/>
<path fill-rule="evenodd" clip-rule="evenodd" d="M360.765 529.41C361.101 529.319 361.448 529.517 361.539 529.854C361.63 530.19 361.431 530.536 361.095 530.627C359.441 531.076 358.351 532.121 357.968 533.444C357.472 535.155 357.418 536.905 357.98 539.706C358.049 540.048 357.828 540.38 357.486 540.449C357.145 540.517 356.812 540.296 356.744 539.954C356.142 536.959 356.203 535.004 356.756 533.093C357.264 531.341 358.691 529.972 360.765 529.41Z" fill="#E7EAEE"/>
<path fill-rule="evenodd" clip-rule="evenodd" d="M332.798 540.023L382.762 554.724C382.762 554.724 389.108 553.391 382.546 552.458C375.805 551.5 336.336 533.427 331.994 536.719C331.377 537.187 332.416 539.003 332.798 540.023Z" fill="#E7EAEE"/>
<path d="M208.303 416.332C208.303 416.332 230.849 423.448 249.003 426.115C267.158 428.783 303.372 430.301 303.372 430.301C303.372 430.301 314.678 436.447 315.407 439.293C315.691 440.401 317.404 455.051 322.141 473.764C324.369 482.567 336.276 522.375 336.276 522.375L352.036 515.399C352.036 515.399 351.403 442.232 341.343 417.965C331.283 393.697 227.874 370.127 227.874 370.127C227.874 370.127 205.927 366.157 199.952 384.105C193.978 402.053 208.303 416.332 208.303 416.332Z" fill="white"/>
<path fill-rule="evenodd" clip-rule="evenodd" d="M338.799 519.852L354.559 512.876C354.137 464.098 350.572 431.62 343.866 415.442C343.866 415.442 350.72 501.567 338.799 519.852Z" fill="#E7EAEE"/>
<path d="M476.225 398.876C480.147 403.922 486.846 410.876 495.048 409.351L519.255 362.049C519.255 362.049 513.026 359.294 507.715 361.329C502.393 363.371 478.994 387.789 478.994 387.789L476.225 398.876Z" fill="white"/>
<path fill-rule="evenodd" clip-rule="evenodd" d="M371.082 537.809C371.334 537.568 371.733 537.577 371.974 537.829C372.215 538.08 372.206 538.479 371.955 538.72C370.489 540.125 370.218 542.478 371.058 543.898C371.236 544.198 371.136 544.584 370.837 544.762C370.537 544.939 370.15 544.84 369.973 544.54C368.839 542.625 369.185 539.627 371.082 537.809Z" fill="#E7EAEE"/>
<path fill-rule="evenodd" clip-rule="evenodd" d="M365.93 533.65C366.184 533.412 366.583 533.424 366.822 533.678C367.06 533.932 367.048 534.331 366.794 534.569L366.453 534.897C363.8 537.507 363.04 539.789 365.376 542.238C365.616 542.49 365.607 542.889 365.355 543.13C365.102 543.37 364.703 543.36 364.463 543.108C362.737 541.299 362.382 539.345 363.147 537.389C363.674 536.04 364.592 534.907 365.93 533.65Z" fill="#E7EAEE"/>
<path fill-rule="evenodd" clip-rule="evenodd" d="M341.654 532.824C343.102 535.591 350.789 534.455 349.451 526.801C348.818 523.179 337.645 525.159 341.654 532.824Z" fill="#E7EAEE"/>
<path fill-rule="evenodd" clip-rule="evenodd" d="M490.25 410.23C500.407 398.623 506.246 372.516 514.611 363.533C517.563 360.363 521.394 359.651 517.271 367.157C509.728 380.892 495.232 410.23 495.232 410.23C494.464 410.614 493.516 410.23 492.658 410.23H490.25Z" fill="#E7EAEE"/>
<path d="M322.839 370.688C332.115 373.129 336.875 378.94 340.895 384.351C344.923 389.762 336.067 387.188 331.181 385.234C326.295 383.282 316.949 375.869 316.949 375.869L322.839 370.688Z" fill="white"/>
<path d="M238.346 348.715C238.346 348.715 290.562 371.146 297.921 371.176C305.271 371.206 323.31 379.965 324.285 386.801C325.471 395.118 294.01 382.895 294.01 382.895C294.01 382.895 223.696 382.895 211.981 371.176C200.259 359.457 208.07 335.042 208.07 335.042L238.346 348.715Z" fill="white"/>
<path d="M225.647 244.221C225.647 244.221 238.346 252.033 240.297 277.424C242.248 302.815 234.436 333.09 234.436 333.09C234.436 333.09 239.322 336.996 240.297 340.902C241.273 344.809 238.304 349.965 238.304 349.965C238.304 349.965 209.048 364.34 207.095 365.317C205.142 366.293 197.329 363.363 197.329 355.55C197.329 347.739 200.259 340.902 200.259 340.902C201.661 289.363 193.423 239.337 225.647 244.221Z" fill="white"/>
<path fill-rule="evenodd" clip-rule="evenodd" d="M277.376 190.191C280.379 186.169 286.728 184.859 288.423 191.209C288.423 191.209 289.724 195.041 287.101 197.408C279.063 204.66 274.372 194.214 277.376 190.191Z" fill="white"/>
<path fill-rule="evenodd" clip-rule="evenodd" d="M297.472 190.388C300.53 185.998 306.992 184.568 308.716 191.5C308.716 191.5 310.041 195.682 307.371 198.267C299.19 206.184 294.415 194.779 297.472 190.388Z" fill="white"/>
<path d="M270.783 243.466C270.783 243.466 270.783 290.41 271.472 316.643C272.162 342.875 266.149 368.722 254.661 388.935C243.173 409.148 244.737 438.064 236.269 440.213C169.289 457.214 187.322 249.167 212.105 235.872C236.887 222.578 245.074 219.762 245.074 219.762" fill="white"/>
<path fill-rule="evenodd" clip-rule="evenodd" d="M236.431 256.637L230.658 265.256C230.18 265.97 230.541 266.944 231.37 267.174L239.073 269.303C239.968 269.551 240.815 268.779 240.651 267.864L238.72 257.116C238.52 256 237.062 255.695 236.431 256.637ZM237.685 257.963L239.409 268.087L232.711 265.256L237.685 257.963Z" fill="#E9666D"/>
<path fill-rule="evenodd" clip-rule="evenodd" d="M217.859 248.22L211.057 259.139C210.622 259.836 210.96 260.756 211.742 261.007L223.619 264.815C224.609 265.132 225.536 264.184 225.197 263.202L220.122 248.476C219.776 247.472 218.421 247.318 217.859 248.22ZM219.473 249.551L222.948 263.202L212.65 259.139L219.473 249.551Z" fill="#E9666D"/>
<path fill-rule="evenodd" clip-rule="evenodd" d="M213.669 330.829L218.296 348.218C218.58 349.287 220.004 349.498 220.587 348.559L227.466 337.466C227.848 336.851 227.635 336.042 227 335.695L215.493 329.398C214.52 328.866 213.384 329.757 213.669 330.829ZM214.887 331.346L225.553 336.801L219.514 347.894L214.887 331.346Z" fill="#E9666D"/>
<path fill-rule="evenodd" clip-rule="evenodd" d="M204.403 394.68L206.926 406.6C207.158 407.693 208.592 407.968 209.211 407.037L216.027 396.782C216.53 396.025 216.092 395.001 215.197 394.842L205.859 393.177C204.978 393.02 204.218 393.805 204.403 394.68ZM206.604 394.492L214.697 397.361L207.714 405.335L206.604 394.492Z" fill="#E9666D"/>
<path fill-rule="evenodd" clip-rule="evenodd" d="M226.267 392.157L228.79 404.077C229.022 405.171 230.456 405.445 231.075 404.514L237.891 394.259C238.394 393.502 237.956 392.478 237.062 392.319L227.723 390.654C226.842 390.497 226.082 391.282 226.267 392.157ZM227.435 393.194L236.858 392.934L229.104 402.897L227.435 393.194Z" fill="#E9666D"/>
<path fill-rule="evenodd" clip-rule="evenodd" d="M214.494 367.769L217.017 379.688C217.248 380.782 218.683 381.057 219.302 380.126L226.118 369.87C226.62 369.114 226.183 368.09 225.288 367.93L215.949 366.266C215.068 366.109 214.309 366.893 214.494 367.769ZM215.728 367.508L224.226 370.013L217.41 378.586L215.728 367.508Z" fill="#E9666D"/>
<path fill-rule="evenodd" clip-rule="evenodd" d="M493.747 406.34C493.113 407.578 492.073 408.095 490.687 408.172C485.749 408.447 481.834 406.268 478.341 403.094C477.017 401.891 475.843 400.522 474.516 399.322C473.583 398.478 472.582 397.929 471.126 398.451C470.01 398.851 468.701 398.7 467.482 398.824C464.731 399.105 461.988 399.472 459.232 399.672C457.475 399.799 457.432 401.299 457.019 402.332C456.087 404.671 455.39 407.107 454.648 409.519C454.36 410.455 453.902 410.825 452.85 410.812C447.597 410.748 442.342 410.754 437.089 410.796C434.696 410.816 432.302 411.102 429.913 411.048C425.419 410.946 420.92 410.802 416.439 410.458C412.105 410.125 407.793 409.5 403.468 409.039C400.43 408.715 397.374 408.543 394.349 408.133C390.831 407.655 387.342 406.959 383.832 406.42C382.075 406.15 380.29 406.07 378.532 405.811C375.516 405.368 372.501 404.906 369.506 404.348C366.726 403.83 364.111 404.367 361.494 405.231C356.4 406.913 351.292 408.556 346.183 410.19C345.274 410.481 345.005 410.72 345.415 411.823C346.921 415.873 348.33 419.968 349.556 424.11C350.42 427.033 351.019 430.045 351.573 433.048C352.253 436.727 352.822 440.429 353.329 444.136C353.716 446.969 353.962 449.822 354.216 452.67C354.539 456.29 354.845 459.913 355.088 463.54C355.331 467.151 355.535 470.767 355.672 474.384C355.905 480.526 356.079 486.67 356.264 492.813C356.376 496.533 356.446 500.254 356.568 503.974C356.603 505.054 356.95 506.162 356.786 507.198C356.662 507.98 356.106 509.074 355.469 509.319C353.827 509.953 353.352 511.174 353.367 512.856C353.385 515.004 353.655 517.154 353.599 519.298C353.563 520.664 354.086 521.618 355.079 522.342C359.592 525.635 364.151 528.866 368.662 532.161C370.803 533.725 372.915 535.335 374.967 537.013C377.165 538.811 379.319 540.667 381.414 542.583C383.502 544.492 384.613 546.827 384.965 549.738C385.238 551.996 384.949 554.093 384.572 556.241C384.376 557.359 383.737 557.817 382.574 557.438C377.688 555.843 372.811 554.219 367.901 552.699C359.792 550.19 351.66 547.752 343.536 545.286C340.641 544.407 337.745 543.529 334.846 542.661C333.07 542.13 332.695 540.538 332.365 539.095C331.428 534.996 332.639 531.265 334.801 527.827C336.124 525.724 337.666 523.757 339.113 521.731C340.295 520.077 339.99 518.382 339.405 516.591C337.5 510.763 335.628 504.923 333.828 499.062C332.051 493.276 330.29 487.482 328.68 481.648C326.978 475.482 325.434 469.272 323.878 463.067C323.036 459.71 322.242 456.337 321.56 452.944C321.05 450.407 320.762 447.825 320.361 445.266C319.883 442.208 319.595 439.099 318.808 436.122C318.469 434.84 317.226 433.668 316.142 432.74C313.781 430.718 311.069 429.212 308.123 428.182C307.395 427.928 306.606 427.752 305.838 427.723C302.183 427.586 298.524 427.549 294.869 427.402C291.299 427.259 287.73 427.06 284.166 426.82C280.489 426.573 276.815 426.276 273.145 425.947C269.217 425.594 265.275 425.313 261.375 424.75C257.24 424.153 253.144 423.285 249.041 422.483C247.707 422.222 246.732 423.032 246.525 424.913C246.073 429.026 244.675 432.849 243.015 436.591C241.818 439.29 239.559 440.64 236.773 441.1C234.784 441.429 232.746 441.742 230.745 441.667C225.051 441.451 219.972 439.573 215.455 435.961C209.725 431.38 206.373 425.26 203.519 418.734C202.24 415.81 200.593 413.019 199.589 410.01C198.499 406.74 197.947 403.29 197.188 399.913C196.597 397.284 195.994 394.656 195.497 392.009C195.104 389.916 194.857 387.795 194.558 385.685C194.161 382.881 193.77 380.076 193.393 377.27C193.268 376.341 193.145 375.408 193.106 374.473C192.984 371.549 192.924 368.621 192.8 365.697C192.626 361.595 192.301 357.496 192.247 353.393C192.154 346.376 192.163 339.356 192.248 332.338C192.284 329.256 192.545 326.172 192.822 323.1C193.137 319.607 193.614 316.13 193.962 312.64C194.21 310.149 194.288 307.64 194.574 305.154C194.993 301.506 195.452 297.86 196.036 294.235C196.729 289.925 197.523 285.628 198.361 281.343C199.949 273.234 201.795 265.174 204.818 257.469C206.744 252.561 208.754 247.553 212.686 243.848C214.388 242.244 216.752 241.319 218.867 240.181C224.671 237.056 230.505 233.988 236.31 230.868C236.582 230.722 236.815 230.297 236.859 229.975C237.013 228.856 236.945 227.691 237.22 226.609C237.399 225.905 237.893 225.132 238.477 224.706C240.436 223.277 242.488 221.975 244.53 220.665C244.896 220.431 245.413 220.225 245.815 220.29C247.968 220.638 249.048 219.313 249.787 217.682C250.786 215.475 251.698 213.216 252.474 210.921C253.758 207.119 255.053 203.307 256.025 199.42C256.36 198.079 255.844 196.48 255.541 195.035C254.925 192.096 254.414 189.102 253.422 186.284C252.788 184.483 251.504 182.849 250.278 181.329C247.107 177.399 245.441 172.997 245.975 167.953C246.206 165.763 247.145 163.722 248.784 162.131C250.711 160.259 252.688 158.436 254.622 156.57C256.031 155.209 255.93 154.169 254.095 152.839C251.526 150.977 249.062 148.966 246.604 146.957C244.505 145.24 243.602 142.788 243.046 140.274C242.29 136.855 242.199 133.405 243.594 130.067C245.825 124.728 249.039 120.323 254.924 118.662C260.11 117.198 265.284 117.297 269.939 120.237C274.168 122.908 276.854 126.887 278.036 131.798C279.422 137.561 277.844 142.748 274.931 147.681C274.687 148.094 274.662 148.636 274.536 149.119C274.969 149.201 275.399 149.336 275.835 149.356C281.437 149.611 287.005 150.233 292.022 152.903C298.608 156.408 302.75 161.963 304.576 169.192C304.85 170.274 304.848 171.438 304.883 172.566C305.005 176.415 305.016 180.269 305.243 184.111C305.29 184.914 305.905 185.898 306.561 186.412C309.709 188.878 310.78 194.916 307.852 198.491C307.559 198.848 307.31 199.242 307.022 199.604C305.897 201.02 304.266 201.707 302.642 201.418C301.257 201.172 301.14 201.637 300.683 202.659C299.709 204.838 298.54 206.946 297.281 208.978C295.593 211.702 293.869 214.422 291.917 216.957C290.738 218.487 289.146 219.719 287.653 220.983C285.842 222.517 283.928 223.927 282.084 225.422C281.164 226.168 280.156 226.553 278.98 226.383C277.762 226.207 277.076 226.893 276.719 227.88C276.03 229.786 275.407 231.72 274.864 233.672C274.749 234.083 274.992 234.683 275.241 235.092C277.415 238.671 279.574 242.26 281.846 245.777C283.689 248.631 285.786 251.325 287.569 254.213C288.673 256 289.404 258.016 290.298 259.932C291.856 263.273 293.448 266.6 294.938 269.973C295.245 270.667 295.328 271.555 295.221 272.313C295.065 273.415 293.978 273.767 292.799 273.056C291.43 272.229 290.14 271.262 288.858 270.3C288.064 269.704 287.35 269.002 286.595 268.354C286.508 268.278 286.391 268.238 286.288 268.181C286.271 268.313 286.225 268.449 286.243 268.576C286.454 270.059 286.624 271.551 286.907 273.02C287.2 274.538 287.646 276.026 287.954 277.542C288.567 280.552 289.159 283.567 289.707 286.589C290.323 289.989 290.916 293.393 291.452 296.805C291.727 298.56 291.82 300.342 292.058 302.104C292.416 304.767 292.866 307.418 293.202 310.084C293.385 311.54 293.425 313.015 293.506 314.483C293.616 316.484 293.689 318.488 293.804 320.488C294.087 325.425 294.373 330.361 294.685 335.296C294.762 336.52 295.481 337.46 296.583 337.81C299.717 338.806 301.907 342.464 301.38 345.518C301.257 346.228 301.099 346.963 300.787 347.603C300.037 349.139 301.015 350.011 301.987 350.81C303.566 352.107 305.211 353.326 306.86 354.534C310.774 357.403 314.715 360.235 318.63 363.103C322.176 365.702 326.088 367.509 330.287 368.79C333.657 369.818 336.524 371.767 339.219 374.014C340.543 375.117 341.688 376.75 343.785 376.347C346.752 375.777 349.71 375.159 352.67 374.548C353.562 374.364 354.438 374.095 355.334 373.941C358.457 373.403 360.301 371.194 362.138 368.909C363.506 367.208 365.031 365.635 366.453 363.978C369.253 360.718 372.022 357.432 374.819 354.17C376.21 352.549 377.641 350.963 379.046 349.354C383.004 344.819 386.939 340.263 390.922 335.75C393.01 333.384 395.184 331.095 397.309 328.761C397.88 328.133 398.492 327.52 398.944 326.81C399.632 325.731 400.334 325.399 401.677 325.834C404.615 326.785 404.563 326.604 402.509 328.857C398.83 332.893 395.273 337.039 391.651 341.127C389.881 343.125 388.051 345.071 386.294 347.082C383.212 350.61 380.176 354.178 377.101 357.712C374.918 360.22 372.708 362.705 370.498 365.19C368.788 367.113 367.054 369.014 365.35 370.942C365.201 371.11 365.084 371.576 365.137 371.609C365.553 371.87 366.022 372.256 366.461 372.239C370.031 372.1 373.596 371.827 377.166 371.705C379.839 371.614 382.52 371.613 385.192 371.705C388.616 371.824 392.046 371.971 395.456 372.298C399.255 372.663 403.033 373.248 406.821 373.728C410.705 374.22 414.602 374.626 418.472 375.209C422.339 375.793 426.175 376.579 430.035 377.221C433.231 377.753 436.45 378.148 439.642 378.703C443.713 379.412 447.763 380.236 451.827 380.982C454.681 381.506 457.547 381.963 460.4 382.488C463.151 382.994 465.888 383.58 468.643 384.069C470.379 384.377 472.13 384.688 473.884 384.76C474.619 384.791 475.556 384.391 476.102 383.872C480.274 379.903 484.319 375.798 488.51 371.849C493.2 367.429 498.105 363.256 503.394 359.547C505.813 357.85 508.523 358.146 511.16 358.375C512.696 358.508 514.182 359.248 515.687 359.727C516.922 360.119 517.032 360.882 516.483 361.96C513.988 366.857 511.537 371.777 509.041 376.673C506.883 380.906 504.686 385.118 502.434 389.411C499.49 395.103 496.623 400.724 493.747 406.34ZM262.828 370.226C264.139 366.432 265.291 362.576 266.325 358.697C266.997 356.177 267.378 353.575 267.81 350.997C268.254 348.348 268.625 345.685 268.984 343.023C269.4 339.93 270.048 336.836 270.099 333.735C270.2 327.507 269.942 321.274 269.873 315.043C269.831 311.235 269.809 307.425 269.884 303.618C269.942 300.623 268.2 298.391 266.93 295.936C266.084 294.3 265.192 292.65 264.652 290.905C263.662 287.703 262.856 284.439 262.089 281.173C261.564 278.941 261.177 276.671 260.832 274.402C260.432 271.777 259.569 269.311 258.448 266.928C258.354 266.728 257.567 266.582 257.482 266.695C257.031 267.3 256.694 267.992 256.329 268.66C255.68 269.849 254.693 270.981 254.468 272.247C254.018 274.777 252.852 276.948 251.66 279.119C250.918 280.471 249.669 280.506 248.801 279.266C247.868 277.933 246.86 276.587 246.265 275.096C244.866 271.59 243.612 268.019 242.447 264.427C240.916 259.707 239.471 254.956 238.097 250.187C237.379 247.698 236.663 245.169 236.362 242.609C236.066 240.099 236.3 237.527 236.293 234.983C236.292 234.755 236.222 234.528 236.185 234.3C236.082 234.381 235.987 234.478 235.874 234.541C233.207 236.008 230.557 237.507 227.864 238.925C225.194 240.332 222.511 241.722 219.778 243.003C216.785 244.406 213.78 245.854 212.045 248.795C210.169 251.976 207.977 255.009 206.846 258.595C205.681 262.292 204.363 265.946 203.349 269.684C202.312 273.507 201.605 277.418 200.67 281.271C200.073 283.731 199.089 286.118 198.698 288.604C198.1 292.397 197.73 296.238 197.516 300.073C197.332 303.365 197.346 306.665 196.902 309.944C196.557 312.489 196.323 315.05 196.012 317.601C195.539 321.484 194.689 325.36 194.629 329.248C194.494 337.858 194.848 346.473 194.808 355.086C194.787 359.599 195.461 364.012 195.992 368.46C196.582 373.399 196.932 378.367 197.495 383.31C197.878 386.669 198.261 390.048 198.977 393.345C200.144 398.713 201.397 404.077 202.954 409.342C204.898 415.911 207.751 422.099 211.768 427.712C214.279 431.22 217.343 434.093 221.127 436.158C226.256 438.957 231.756 438.715 237.267 437.86C238.171 437.72 239.34 437.025 239.727 436.255C240.812 434.098 241.76 431.822 242.377 429.491C243.255 426.179 243.643 422.738 244.504 419.421C245.923 413.951 247.709 408.573 249.047 403.085C250.149 398.564 252.248 394.485 254.073 390.282C255.415 387.19 257.003 384.203 258.628 381.023C260.038 377.428 261.567 373.873 262.828 370.226ZM311.24 426.064C313.894 427.687 316.496 429.407 319.021 431.223C320.598 432.357 321.731 434.005 322.076 435.91C322.877 440.322 323.407 444.783 324.181 449.2C324.725 452.3 325.505 455.358 326.15 458.441C326.676 460.951 327.161 463.469 327.66 465.984C328.15 468.456 328.626 470.93 329.122 473.401C329.5 475.284 329.891 477.164 330.289 479.043C330.933 482.081 331.446 485.156 332.278 488.142C333.098 491.083 334.331 493.907 335.231 496.829C336.728 501.692 338.586 506.399 340.739 511.008C341.249 512.1 342.107 511.881 342.616 511.682C345.836 510.421 349.013 509.045 352.169 507.628C353.165 507.181 353.694 506.314 353.649 505.13C353.524 501.915 353.437 498.697 353.349 495.48C353.244 491.632 353.154 487.783 353.055 483.934C352.959 480.165 352.938 476.393 352.742 472.63C352.55 468.954 352.189 465.286 351.885 461.616C351.506 457.044 351.154 452.469 350.705 447.904C350.395 444.751 350.111 441.581 349.515 438.476C348.483 433.099 347.215 427.769 346.051 422.418C344.694 416.182 342.073 410.748 336.89 406.667C332.944 403.559 328.803 400.783 324.327 398.566C319.374 396.112 314.367 393.724 309.226 391.708C303.35 389.403 297.642 386.491 291.171 385.96C288.063 385.705 284.979 385.16 281.876 384.83C279.386 384.566 276.876 384.491 274.387 384.218C270.449 383.787 266.525 383.214 262.583 382.827C262.03 382.773 261.198 383.292 260.858 383.792C260.079 384.942 259.493 386.228 258.884 387.485C256.984 391.413 254.759 395.23 253.314 399.32C251.404 404.725 250.108 410.347 248.559 415.878C247.681 419.013 247.662 419.152 250.395 419.725C253.556 420.388 256.768 420.828 259.971 421.269C262.067 421.557 264.19 421.637 266.292 421.878C270.277 422.336 274.251 422.884 278.238 423.314C280.776 423.588 283.326 423.753 285.875 423.904C289.683 424.13 293.493 424.342 297.306 424.481C299.589 424.564 301.877 424.496 304.455 424.496C306.848 424.452 309.187 424.809 311.24 426.064ZM425.64 407.862C428.096 407.977 430.552 408.097 433.01 408.15C438.708 408.271 444.407 408.367 450.105 408.436C451.243 408.45 452.267 407.979 452.574 406.808C454.225 400.504 457.472 394.66 457.889 387.991C457.995 386.3 457.262 385.105 455.535 384.803C453.734 384.488 451.956 384.046 450.159 383.704C447.9 383.273 445.631 382.895 443.37 382.48C441.338 382.106 439.31 381.718 437.282 381.326C435.798 381.04 434.32 380.723 432.835 380.443C429.992 379.905 427.146 379.379 424.3 378.858C422.354 378.501 420.41 378.136 418.457 377.822C416.942 377.579 415.414 377.426 413.895 377.205C410.688 376.737 407.483 376.251 404.277 375.771C402.446 375.497 400.619 375.196 398.784 374.948C396.337 374.618 393.883 374.06 391.434 374.074C385.289 374.109 379.144 374.378 373.001 374.618C370.063 374.733 367.12 374.897 364.201 375.226C362.567 375.41 360.995 375.927 359.81 377.304C357.88 379.547 355.806 381.667 353.856 383.894C352.624 385.299 351.471 386.778 350.345 388.271C348.856 390.246 347.04 391.446 344.443 391.245C340.19 390.916 335.93 390.674 331.676 390.348C330.098 390.227 328.527 389.991 326.957 389.772C324.296 389.399 321.642 388.967 318.977 388.618C316.429 388.285 313.872 388.008 311.315 387.745C310.593 387.671 309.856 387.712 309.129 387.752C308.984 387.761 308.853 388.008 308.715 388.145C308.863 388.214 309.015 388.277 309.16 388.352C310.439 389.02 311.685 389.764 313.003 390.346C316.866 392.052 320.85 393.511 324.617 395.405C330.085 398.155 335.188 401.514 339.828 405.551C341.267 406.803 342.648 407.733 345.007 407.419C348.747 406.921 352.242 405.999 355.599 404.366C360.115 402.168 364.711 400.365 369.905 401.442C372.91 402.065 375.932 402.611 378.932 403.255C380.834 403.662 382.688 404.334 384.603 404.618C386.98 404.971 389.398 405.033 391.797 405.242C396.159 405.622 400.519 406.025 404.882 406.404C407.844 406.661 410.808 406.893 413.917 407.282C417.825 407.476 421.732 407.68 425.64 407.862ZM273.647 323.572C273.69 324.738 273.644 325.906 273.663 327.072C273.754 332.526 273.84 337.98 273.962 343.433C273.997 345.015 273.928 346.647 274.29 348.165C275.024 351.237 275.987 354.257 276.925 357.277C277.326 358.571 277.885 359.803 279.347 360.314C280.619 360.76 281.851 361.32 283.125 361.758C285.016 362.407 285.596 362.161 286.829 360.431C287.237 359.859 287.708 359.33 288.166 358.795C291.121 355.35 294.165 351.976 297.01 348.443C299.11 345.836 298.746 341.639 295.229 340.293C294.851 340.148 294.476 339.974 294.083 339.893C292.005 339.462 292.101 339.468 292.032 337.504C291.786 330.488 292.609 323.453 291.506 316.444C291.066 313.646 291.247 310.753 290.843 307.946C290.214 303.58 289.342 299.247 288.542 294.906C287.786 290.8 287.028 286.694 286.2 282.602C285.581 279.548 284.838 276.52 284.172 273.476C283.665 271.154 283.266 268.805 282.653 266.513C282.487 265.893 281.718 265.435 281.225 264.902C280.65 265.458 279.641 265.965 279.571 266.578C279.218 269.689 278.739 272.86 279.012 275.946C279.326 279.492 279.858 283.007 279.181 286.527C278.41 290.538 277.127 294.389 274.953 297.899C273.749 299.844 272.849 301.863 273.054 304.27C273.256 306.651 273.322 309.048 273.356 311.44C273.405 314.843 273.369 318.246 273.369 321.941C273.466 322.485 273.627 323.026 273.647 323.572ZM258.342 203.055C258.097 203.435 257.756 203.785 257.62 204.201C256.234 208.443 254.968 212.726 253.487 216.934C252.594 219.469 251.193 221.731 248.877 223.325C247.194 224.482 245.624 225.803 243.978 227.014C243.166 227.612 243.337 228.129 243.844 228.855C245.359 231.026 246.961 233.162 248.225 235.477C249.971 238.672 251.466 242.006 253.02 245.303C254.533 248.516 256.114 251.707 257.425 255.002C258.539 257.802 259.138 260.809 260.284 263.593C261.32 266.11 262.431 268.591 262.806 271.287C262.934 272.203 263.231 272.211 263.925 272.208C268.099 272.193 272.13 271.642 275.65 269.157C275.95 268.945 276.205 268.508 276.262 268.141C276.4 267.255 276.377 266.344 276.481 265.45C276.554 264.82 276.965 264.138 276.818 263.589C276.269 261.546 275.54 259.552 274.902 257.533C273.684 253.675 272.085 249.857 271.976 245.787C271.865 241.645 272.238 237.485 272.522 233.341C272.637 231.651 272.969 229.955 273.396 228.312C273.898 226.384 273.778 225.857 272.039 224.917C269.177 223.37 266.709 221.29 264.945 218.607C262.067 214.229 259.855 209.516 259.065 204.07C258.824 203.732 258.583 203.393 258.342 203.055ZM299.865 201.763C299.944 201.606 300.652 201.114 299.599 200.937C298.535 200.758 297.334 200.241 296.603 199.479C295.17 197.985 293.984 196.244 292.779 194.546C292.439 194.065 292.318 193.774 291.839 194.35C291.534 194.716 291.139 195.006 290.836 195.372C288.203 198.552 284.416 199.903 280.87 199.019C276.619 197.96 274.028 193.428 273.97 189.496C273.947 187.928 273.451 186.615 272.199 185.713C270.115 184.213 267.972 182.793 265.831 181.375C264.632 180.581 263.49 180.841 263.18 182.093C262.414 185.192 261.461 188.298 261.193 191.453C260.862 195.357 261.02 199.298 261.952 203.194C263.522 209.756 265.561 215.992 270.916 220.616C274.369 223.598 278.634 224.269 282.745 222.464C286.819 220.676 289.322 217.368 291.758 213.925C293.805 211.031 295.845 208.133 298.034 205.091C298.653 203.986 299.295 202.893 299.865 201.763ZM476.311 396.669C479.142 400.272 482.434 403.278 486.94 404.733C489.723 405.631 490.742 405.473 492.282 402.537C495.424 396.548 498.529 390.54 501.626 384.527C502.862 382.126 504.006 379.676 505.245 377.276C507.664 372.587 510.116 367.914 512.569 363.243C513.016 362.39 512.591 361.618 511.931 361.53C509.643 361.225 507.227 360.571 505.101 361.985C502.299 363.849 499.478 365.724 496.9 367.876C492.989 371.14 489.222 374.584 485.513 378.078C483.831 379.663 482.41 381.531 480.914 383.307C479.733 384.711 478.216 385.892 477.767 387.81C477.351 389.583 476.941 391.358 476.528 393.423C476.043 394.481 475.501 395.638 476.311 396.669ZM379.906 553.259C380.573 553.312 381.859 553.009 381.865 552.829C381.951 550.318 382.426 547.656 380.172 545.696C377.243 543.147 374.405 540.481 371.349 538.093C366.42 534.239 361.347 530.569 356.332 526.826C354.54 525.488 352.758 524.069 350.477 523.72C348.436 523.408 346.354 523.367 344.305 523.093C342.577 522.862 341.401 523.611 340.352 524.855C337.807 527.872 335.956 531.225 335.256 535.143C334.708 538.213 335.696 539.904 338.174 540.633C342.892 542.023 347.577 543.526 352.287 544.946C355.662 545.964 359.068 546.882 362.436 547.922C367.348 549.438 372.238 551.023 377.429 552.579C378.254 552.82 379.068 553.193 379.906 553.259ZM280.812 364.094C277.553 362.804 274.314 361.465 271.047 360.195C270.082 359.82 269.261 359.709 268.943 361.196C268.597 362.809 267.861 364.337 267.328 365.913C266.147 369.412 264.96 372.908 263.842 376.427C263.635 377.077 263.321 377.99 264.605 378.114C266.279 378.275 267.942 378.555 269.618 378.676C272.89 378.914 276.165 379.148 279.443 379.256C284.313 379.417 289.186 379.475 294.058 379.56C295.614 379.587 297.171 379.56 298.727 379.568C299.106 379.57 299.507 379.543 299.859 379.653C304.077 380.971 308.28 382.337 312.503 383.642C316.749 384.956 321.003 386.245 325.541 385.992C327.116 385.904 327.405 385.608 326.826 384.159C326.509 383.368 326.07 382.563 325.488 381.953C322.646 378.975 319.177 376.896 315.465 375.186C312.507 373.824 309.617 372.304 306.29 371.962C304.733 371.802 303.164 371.578 301.652 371.187C299.25 370.565 296.867 369.844 294.518 369.044C291.581 368.044 288.687 366.921 285.482 365.852C283.925 365.267 282.358 364.706 280.812 364.094ZM244.166 235.296C242.8 233.179 241.362 231.109 239.951 229.022C239.755 228.731 239.54 228.453 239.334 228.169C239.198 228.647 239.006 229.117 238.935 229.604C238.702 231.216 238.571 232.843 238.294 234.446C237.746 237.619 237.448 240.736 239.505 243.556C239.635 243.734 239.737 243.948 239.796 244.162C240.552 246.91 241.295 249.663 242.049 252.412C242.24 253.108 242.439 253.803 242.668 254.488C243.651 257.432 244.843 260.324 245.584 263.328C246.346 266.413 246.929 269.513 248.51 272.331C248.964 273.141 249.112 274.119 249.447 275.001C249.547 275.265 249.877 275.689 249.981 275.656C250.316 275.552 250.756 275.331 250.868 275.043C252.174 271.69 252.803 268.028 255.28 265.213C257.383 262.821 256.947 260.378 255.656 257.825C255.152 256.827 254.84 255.734 254.39 254.707C253.416 252.486 252.485 250.242 251.395 248.078C250.444 246.188 249.291 244.399 248.244 242.556C247.507 241.26 246.798 239.948 245.931 238.498C245.347 237.428 244.825 236.317 244.166 235.296ZM323.008 369.198C318.745 366.444 314.423 363.769 310.292 360.827C306.834 358.363 303.629 355.547 300.267 352.943C299.36 352.24 298.319 352.007 297.392 353.066C295.89 354.782 294.359 356.473 292.86 358.192C291.743 359.471 290.67 360.789 289.551 362.067C288.677 363.066 288.769 363.602 290.049 363.985C294.162 365.215 298.305 366.346 302.405 367.615C308.003 369.348 313.594 371.109 319.142 372.995C320.916 373.599 322.48 374.818 324.253 375.43C326.054 376.052 327.978 376.376 329.875 376.64C332.066 376.946 334.285 377.068 336.495 377.205C336.848 377.227 337.221 376.912 337.585 376.753C337.37 376.453 337.206 376.09 336.93 375.864C333.425 372.996 329.24 371.515 324.888 369.936C324.258 369.696 323.562 369.556 323.008 369.198ZM267.504 292.349C268.046 294.405 269.334 295.405 271.317 295.591C273.029 295.752 273.532 294.813 273.949 293.562C274.547 291.77 275.139 289.976 275.7 288.172C276.946 284.167 276.768 280.13 276.022 276.058C275.779 274.73 275.836 273.346 275.775 271.987C275.766 271.79 275.867 271.587 275.917 271.387C275.716 271.446 275.509 271.486 275.317 271.566C274.115 272.063 272.958 272.751 271.709 273.032C269.368 273.558 266.982 273.906 264.599 274.21C263.68 274.327 263.135 274.424 263.427 275.549C263.703 276.612 263.813 277.717 264.032 278.796C264.505 281.121 265.001 283.441 265.488 286.055C266.169 288.151 266.943 290.222 267.504 292.349ZM292.449 270.402C292.675 270.594 292.928 270.756 293.168 270.932C293.167 270.607 293.257 270.246 293.149 269.96C292.516 268.28 291.927 266.574 291.156 264.957C289.509 261.505 287.997 257.955 285.987 254.72C284.012 251.539 281.351 248.79 279.253 245.676C277.75 243.445 276.686 240.92 275.402 238.538C275.205 238.172 274.879 237.875 274.612 237.546C274.49 237.933 274.253 238.322 274.263 238.705C274.324 241.192 274.356 243.685 274.565 246.162C274.707 247.852 274.992 249.554 275.446 251.186C275.95 252.997 276.864 254.697 277.335 256.515C277.887 258.641 278.897 259.987 280.956 261.123C284.372 263.007 287.897 264.965 290.299 268.549C291.015 269.167 291.727 269.79 292.449 270.402ZM277.245 187.959C276.124 189.591 278.202 195.309 279.332 195.734C287.243 198.712 289.498 193.617 289.602 192.218C289.808 189.442 290.15 186.627 287.525 184.376C280.602 182.999 279.056 185.322 277.245 187.959ZM307.534 190.271C306.471 187.622 304.862 185.895 302.06 186.499C300.631 186.808 299.371 187.941 298.056 188.736C295.232 190.445 294.862 191.38 295.849 194.409C296.838 197.441 299.143 199.177 302.076 199.767C304.503 200.255 306.238 198.749 307.52 196.484C307.844 194.415 308.375 192.367 307.534 190.271ZM297.059 186.846C298.199 186.035 299.435 184.834 300.666 184.79C302.794 184.713 302.448 183.413 302.219 182.389C301.577 179.529 300.739 176.711 299.921 173.893C299.361 171.964 298.887 171.853 297.528 173.212C295.2 175.539 292.842 177.822 289.918 179.429C289.004 179.931 288.878 181.089 289.532 182.001C289.775 182.34 290.105 182.632 290.288 182.999C291.187 184.806 292.003 186.658 292.963 188.432C293.175 188.824 293.013 190.211 294.385 189.19C295.271 188.401 296.098 187.529 297.059 186.846ZM468.831 396.145C470.817 395.776 472.945 395.267 473.252 392.625C473.303 392.181 473.506 391.757 473.607 391.317C474.233 388.586 473.523 387.711 470.789 387.418C468.215 387.142 465.66 386.681 463.101 386.268C461.733 386.047 461.48 386.304 461.329 387.696C461.12 389.626 460.819 391.55 460.458 393.457C460.142 395.129 460.61 396.451 462.08 396.779C464.333 396.584 466.618 396.557 468.831 396.145ZM349.633 520.442C349.911 520.43 350.383 519.879 350.393 519.564C350.461 517.477 350.412 515.387 350.435 513.298C350.448 512.124 349.549 512.086 348.903 512.291C347.498 512.739 346.161 513.406 344.805 514.003C343.825 514.434 342.723 514.784 342.842 516.197C342.925 517.194 342.925 518.216 343.155 519.18C343.537 520.783 344.92 520.021 346.05 520.34C347.245 520.388 348.442 520.495 349.633 520.442ZM271.887 350.72C271.803 350.483 271.458 350.337 271.233 350.15C271.069 350.384 270.784 350.607 270.761 350.855C270.624 352.355 270.507 353.859 270.461 355.365C270.416 356.835 271.457 357.789 272.953 357.653C273.206 357.63 273.656 357.184 273.623 357.005C273.403 355.809 273.076 354.634 272.638 353.306C272.395 352.441 272.186 351.565 271.887 350.72ZM354.127 378.283C354.289 377.963 354.629 377.069 353.639 377.255C352.129 377.538 350.644 377.966 349.159 378.371C348.888 378.445 348.666 378.699 348.421 378.871C348.705 379.005 348.985 379.244 349.274 379.254C350.484 379.298 351.698 379.273 353.056 379.127C353.427 378.853 353.941 378.651 354.127 378.283ZM241.406 225.222C241.174 225.358 240.941 225.493 240.708 225.628C240.891 225.832 241.041 226.115 241.27 226.211C241.406 226.268 241.706 226.072 241.863 225.919C242.762 225.049 243.644 224.162 244.52 223.269C244.696 223.091 244.824 222.865 244.973 222.661C244.678 222.718 244.307 222.683 244.101 222.85C243.225 223.559 242.397 224.329 241.406 225.222Z" fill="#00160A"/>
<path fill-rule="evenodd" clip-rule="evenodd" d="M272.685 208.227C271.317 207.487 269.964 206.881 269.68 205.233C269.128 202.032 270.281 198.261 274.453 198.48C278.215 198.678 280.602 201.802 279.271 205.33C278.29 207.932 275.909 209.222 272.685 208.227Z" fill="#FFB61D"/>
<path fill-rule="evenodd" clip-rule="evenodd" d="M291.235 196.285C291.31 195.794 291.385 195.451 291.46 195.107C291.578 195.407 291.73 195.697 291.809 196.007C292.396 198.303 294.256 204.02 292.041 206.651C291.857 206.87 290.922 206.905 290.34 206.868C289.196 206.796 287.863 205.108 288.075 204.02C288.107 203.857 290.868 206.536 291.46 205.086C292.447 202.669 291.235 197.116 291.235 196.285Z" fill="#00160A"/>
<path fill-rule="evenodd" clip-rule="evenodd" d="M275.663 213.038C275.548 212.98 275.389 212.996 275.252 213.001C274.912 213.016 274.446 212.407 274.645 212.149C274.943 211.761 275.281 211.37 275.685 211.114C275.926 210.962 276.324 211.455 276.294 211.673C276.271 211.836 276.426 212.091 276.576 212.201C278.862 213.88 281.399 214.968 284.175 215.491C284.359 215.526 284.518 215.69 284.689 215.794C284.519 215.912 284.349 216.141 284.178 216.131C281.149 215.954 277.648 214.045 275.663 213.038Z" fill="#00160A"/>
<path fill-rule="evenodd" clip-rule="evenodd" d="M201.87 344.514L198.993 356.801C198.771 357.751 199.665 358.583 200.597 358.293L210.584 355.183C211.424 354.921 211.745 353.902 211.206 353.206L204.096 344.029C203.445 343.189 202.112 343.48 201.87 344.514ZM203.098 346.483L209.368 353.979L200.221 357.088L203.098 346.483Z" fill="#E9666D"/>
<path fill-rule="evenodd" clip-rule="evenodd" d="M210.795 273.625C209.744 273.53 209.049 274.692 209.629 275.574L216.945 286.697C217.439 287.447 218.535 287.456 219.041 286.715L225.775 276.853C226.318 276.058 225.806 274.972 224.846 274.886L210.795 273.625ZM211.785 274.886L224.365 277.33L216.945 285.096L211.785 274.886Z" fill="#E9666D"/>
<path fill-rule="evenodd" clip-rule="evenodd" d="M257.165 358.677H246.845C245.989 358.677 245.382 359.511 245.644 360.325L249.111 371.1C249.438 372.117 250.802 372.292 251.376 371.39L258.229 360.616C258.763 359.776 258.16 358.677 257.165 358.677ZM256.323 360.78L251.152 370.713L247.686 359.939L256.323 360.78Z" fill="#E9666D"/>
<path fill-rule="evenodd" clip-rule="evenodd" d="M223.35 417.062L222.879 426.403C222.829 427.382 223.866 428.041 224.732 427.58L236.73 421.188C237.747 420.647 237.565 419.138 236.45 418.853L224.923 415.903C224.15 415.706 223.39 416.265 223.35 417.062ZM224.262 417.953L235.289 419.484L224.732 425.725L224.262 417.953Z" fill="#E9666D"/>
<path fill-rule="evenodd" clip-rule="evenodd" d="M207.441 302.337L198.19 308.75C197.407 309.292 197.485 310.474 198.332 310.909L209.158 316.466C210.063 316.931 211.118 316.188 210.985 315.179L209.41 303.21C209.287 302.273 208.217 301.8 207.441 302.337ZM207.812 304.565L209.734 315.344L198.909 309.786L207.812 304.565Z" fill="#E9666D"/>
<path fill-rule="evenodd" clip-rule="evenodd" d="M249.887 329.802L244.115 338.421C243.618 339.163 244.029 340.172 244.902 340.357L251.652 341.784C252.485 341.961 253.251 341.277 253.168 340.428L252.191 330.382C252.076 329.203 250.547 328.818 249.887 329.802ZM251.459 331.529V340.758L245.656 338.421L251.459 331.529Z" fill="#E9666D"/>
<path fill-rule="evenodd" clip-rule="evenodd" d="M250.98 289.201C252.66 288.105 254.133 288.365 252.934 290.777C252.934 290.777 244.179 312.975 241.563 313.238C239.082 313.488 237.885 310.279 234.421 301.107L234.274 300.716C234.261 300.681 234.249 300.647 234.239 300.612L234.221 300.539L234.198 300.498L234.15 300.387L233.736 299.266C233.247 297.931 232.015 295.726 231.364 294.961C230.67 294.145 232.218 293.639 233.362 293.639C235.497 293.639 238.109 294.235 242.216 293.05C247.027 291.661 248.678 290.703 250.98 289.201ZM247.256 300.605L247.141 300.68C245.919 301.432 244.57 302.011 243.094 302.414C241.33 302.896 238.77 302.956 237.114 302.594L236.837 302.529L236.939 302.784C237.873 305.114 238.705 307.807 239.429 309.177L239.681 309.644C240.136 310.46 240.534 311.052 240.857 311.409L240.957 311.514L241.083 311.362C241.623 310.672 243.545 308.075 244.88 305.481L245.019 305.208C245.591 304.087 246.215 302.813 246.89 301.387L247.256 300.605ZM250.86 291.766L250.657 291.881C248.758 292.939 245.616 294.695 242.916 295.474C239.683 296.407 236.943 296.74 234.688 296.441L234.55 296.421L234.629 296.644C234.845 297.247 235.758 300.1 236.081 300.539C237.389 301.748 238.994 301.862 240.958 301.387L241.239 301.314C248.273 299.955 250.86 291.766 250.86 291.766Z" fill="#E9666D"/>
<path fill-rule="evenodd" clip-rule="evenodd" d="M497.859 369.371C498.139 369.164 498.534 369.224 498.741 369.504C500.197 371.479 502.662 371.576 505.94 369.756C506.244 369.587 506.628 369.697 506.797 370.002C506.966 370.306 506.856 370.69 506.552 370.859C502.781 372.953 499.625 372.829 497.726 370.253C497.519 369.972 497.579 369.578 497.859 369.371Z" fill="#E7EAEE"/>
<path fill-rule="evenodd" clip-rule="evenodd" d="M493.091 374.424C493.349 374.189 493.748 374.208 493.982 374.466C496.191 376.896 499.125 377.034 501.513 375.76C501.82 375.595 502.202 375.712 502.366 376.019C502.53 376.326 502.414 376.708 502.107 376.872C499.256 378.395 495.696 378.227 493.049 375.315C492.814 375.057 492.833 374.658 493.091 374.424Z" fill="#E7EAEE"/>
<path fill-rule="evenodd" clip-rule="evenodd" d="M487.926 379.428C488.18 379.19 488.579 379.202 488.818 379.455C490.946 381.716 495.274 382.822 498.234 381.253C498.542 381.09 498.924 381.207 499.087 381.515C499.25 381.823 499.133 382.205 498.825 382.368C495.319 384.226 490.39 382.967 487.899 380.32C487.66 380.066 487.672 379.667 487.926 379.428Z" fill="#E7EAEE"/>
<path fill-rule="evenodd" clip-rule="evenodd" d="M491.935 399.209C496.363 397.067 491.786 389.128 487.5 392.342C484.752 394.402 487.766 401.227 491.935 399.209Z" fill="#E7EAEE"/>
</svg>
