<svg width="88" height="88" viewBox="0 0 87 88" fill="none" xmlns="http://www.w3.org/2000/svg">
<path d="M29.8305 0.836075C21.1495 3.79633 13.594 9.50634 8.23844 17.154C2.8829 24.8016 7.12782e-05 33.9974 0 43.4335C4.52291e-05 53.6764 3.39611 63.6108 9.6238 71.5859C15.8515 79.5609 24.5358 85.0963 34.2335 87.2721V75.4646C34.2268 75.4626 34.2202 75.4606 34.2136 75.4586V53.214H21.2906V69.1781C16.4372 65.5349 12.4875 60.7583 9.7642 55.2387C7.04091 49.7191 5.62127 43.6128 5.62119 37.4188C5.62089 29.5147 7.93143 21.7945 12.2507 15.2676C16.57 8.74072 22.697 3.71095 29.8305 0.835938L29.8305 0.836075Z" fill="#E9666D"/>
<path d="M37.96 35.4412H50.9279V87.8359H37.96V35.4412Z" fill="#F5BC67"/>
<path d="M60.0054 1.9126C66.521 5.09545 72.0268 10.1219 75.8824 16.4071C79.738 22.6924 81.7849 29.9781 81.785 37.4167C81.7849 43.2876 80.5096 49.0837 78.0528 54.3789C75.5961 59.6742 72.0203 64.3339 67.5885 68.0153V21.0942H54.6591V75.0409C54.6577 75.0414 54.6562 75.0419 54.6548 75.0424V86.8105C63.9279 84.2741 72.1279 78.6448 77.9781 70.7993C83.8283 62.9538 87.0004 53.3323 87.0002 43.4331C86.9999 34.5297 84.4329 25.8276 79.6258 18.434C74.8188 11.0403 67.989 5.28933 60.0054 1.91262L60.0054 1.9126Z" fill="#6DFA7B"/>
</svg>
