<svg width="613" height="497" viewBox="0 0 613 497" fill="none" xmlns="http://www.w3.org/2000/svg">
<path fill-rule="evenodd" clip-rule="evenodd" d="M348.217 496.15C420.646 496.15 484.206 442.273 448.511 369.094C412.815 295.916 545.447 298.28 584.408 247.704C631.922 186.024 618.162 -75.7963 313.141 83.8221C264.281 109.391 138.796 57.5176 97.1717 83.2563C48.1762 113.553 -20.7576 175.592 48.1762 239.141C82.1317 270.445 -39.6067 351.693 13.7123 424.471C65.7383 495.485 102.208 427.788 181.416 442.273C260.625 456.757 294.425 496.15 348.217 496.15Z" fill="#2E2E64"/>
<path d="M281.149 358.471C281.149 358.471 297.826 350.626 304.052 345.169C310.278 339.711 318.019 326.151 318.019 326.151C318.019 326.151 403.042 387.555 458.48 378.796C471.253 376.778 496.142 368.287 497.729 353.328C502.063 312.479 442.099 302.04 455.197 281.325C463.193 268.681 488.03 287.5 488.03 287.5L591.048 338.172C591.048 338.172 555.458 425.901 469.09 429.417C362.846 433.742 281.149 358.471 281.149 358.471Z" fill="white"/>
<path fill-rule="evenodd" clip-rule="evenodd" d="M128.689 396.112L129.141 401.341C129.98 411.347 130.303 412.25 134.822 415.607C141.487 420.672 151.971 425.535 163.583 429.255C171.655 431.84 180.273 433.874 188.532 435.038C197.892 436.329 218.227 435.878 225.974 434.199C229.803 433.37 198.307 408.625 179.752 415.607C165.503 420.969 131.919 380.07 145.574 369.385C160.892 357.398 132.822 310.122 131.919 299.858C131.015 289.594 127.456 287.142 127.352 287.502C127.248 287.862 127.248 289.09 127.527 292.049C128.732 304.803 128.689 396.112 128.689 396.112Z" fill="#E7EAEE"/>
<path fill-rule="evenodd" clip-rule="evenodd" d="M199.473 14.9012C198.506 14.5216 193.313 8.16345 186.721 7.00624C183.725 6.48039 186.444 10.2948 183.147 10.3291C173.328 10.4314 157.372 8.58664 154.416 10.3291C152.219 11.6201 157.057 16.1299 154.416 16.337C129.494 18.2904 91.4743 43.1737 83.2255 55.2458C80.6004 59.0877 101.832 52.5695 98.449 54.4688C94.6522 56.6006 90.4414 70.5591 87.9237 81.3398C86.1807 88.7636 85.0833 98.3178 84.696 108.711C84.3732 117.684 84.5023 119.169 85.7934 124.075C87.2782 129.562 88.4402 131.176 90.4414 130.402C91.1515 130.143 91.4743 129.175 91.4743 127.368C91.4743 125.947 92.2489 121.687 93.2173 117.878L94.8957 111.035L95.6058 113.876C96.5096 117.168 101.803 127.368 106.58 134.791C106.838 135.185 107.946 134.684 108.946 132.268C109.857 130.066 109.487 126.549 111.034 122.78C114.559 114.193 121.48 103.028 129.494 94.0917C141.338 80.8841 145.267 65.5988 156.369 53.3289C177.088 30.4308 203.092 16.3222 199.473 14.9012Z" fill="white"/>
<path fill-rule="evenodd" clip-rule="evenodd" d="M98.7436 57.5844C95.4199 60.257 90.4864 81.9353 90.4018 82.2977C88.6588 89.7215 86.9786 115.502 88.696 120.383C90.4134 125.264 95.2224 107.669 95.2224 107.669C95.2224 107.669 102.491 126.543 108.914 131.718C109.188 131.939 101.28 108.367 98.7436 94.6055C95.3959 76.4399 100.635 56.0634 98.7436 57.5844Z" fill="#E7EAEE"/>
<path fill-rule="evenodd" clip-rule="evenodd" d="M222.624 437.247C228.821 435.892 239.278 431.171 243.282 429.557C247.285 427.942 259.485 410.715 263.875 391.284C267.038 376.953 268.652 356.554 266.844 353.132C266.577 352.647 265.601 343.37 268.2 346.399C273.978 353.132 280.837 363.702 302.478 344.762C308.373 339.603 316.185 332.945 314.128 327.06C308.373 310.592 283.423 277.432 279.62 274.92C275.072 271.916 252.087 274.468 217.88 264.372C179.086 252.922 162.933 219.205 147.752 223.594C135.475 227.144 106.06 248.956 98.6778 262.769C63.8264 327.98 106.06 373.675 115.678 386.799L125.017 390.832L125.34 399.16L125.791 404.389C126.631 414.395 126.953 415.299 131.472 418.656C142.769 427.241 165.041 435.246 185.182 438.087C194.543 439.378 214.877 438.926 222.624 437.247Z" fill="white"/>
<path fill-rule="evenodd" clip-rule="evenodd" d="M275.191 359.115C274.655 357.842 275.253 356.377 276.525 355.841L277.916 355.251C291.439 349.465 299.2 345.989 304.474 340.47C309.748 334.951 310.379 326.845 311.37 321.912C311.642 320.559 314.707 322.936 316.06 323.208C317.414 323.48 318.291 324.798 318.019 326.151C316.828 332.082 313.62 337.736 308.455 343.103C303.308 348.452 293.342 354.186 278.465 360.449C277.193 360.985 275.727 360.387 275.191 359.115Z" fill="#00160A"/>
<path fill-rule="evenodd" clip-rule="evenodd" d="M336.341 101.54C337.528 100.834 339.062 101.223 339.768 102.409C346.84 114.288 350.628 127.868 350.628 141.996C350.628 184.798 315.93 219.496 273.128 219.496C261.754 219.496 250.723 217.043 240.622 212.369C239.368 211.789 234.635 207.173 239.402 209.051C244.17 210.928 262.616 215.142 273.261 215.142C313.301 215.142 341.628 182.037 341.628 141.996C341.628 128.774 336.341 117.039 335.472 104.967C335.371 103.567 335.155 102.246 336.341 101.54Z" fill="#00160A"/>
<path fill-rule="evenodd" clip-rule="evenodd" d="M88.7466 290.752C89.6303 289.691 91.2067 287.547 92.2676 288.431C96.6197 292.056 101.264 296.256 106.232 297.066C111.402 297.91 117.534 297.91 124.623 297.052C125.993 296.886 127.239 297.863 127.405 299.233C127.571 300.604 126.594 301.85 125.224 302.016C117.696 302.927 111.1 302.927 105.427 302.001C99.5517 301.043 94.0881 298.454 89.0675 294.273C88.0066 293.389 87.863 291.812 88.7466 290.752Z" fill="#00160A"/>
<path d="M141.827 203.284C138.6 200.702 131.692 193.085 126.463 186.371C123.752 182.82 120.718 175.59 118.91 168.296C118.071 165.003 117.232 162.034 117.038 161.646C116.78 161.324 115.747 156.74 114.714 151.447C113.165 143.958 113.493 141.546 112.132 132.589C111.556 128.796 111.035 125.778 111.035 125.778L112.713 123.623C113.681 122.332 114.906 120.196 115.36 118.975C117.426 113.417 132.596 95.9938 133.048 96.4457C133.177 96.5748 132.661 99.6089 131.757 103.159C130.918 106.71 129.885 112.068 129.433 115.102C128.787 120.137 128.529 120.718 126.528 122.397C124.01 124.527 119.233 131.37 119.233 132.79C119.233 134.727 122.138 133.436 125.172 130.273L128.271 127.045V130.595C128.271 132.919 127.819 135.05 126.98 136.728C125.366 139.891 125.366 143.248 126.915 145.83C127.69 147.121 128.4 150.22 128.852 153.9C130.853 170.555 135.114 185.015 142.408 199.54C144.216 203.155 145.636 206.125 145.572 206.125C145.443 206.125 143.764 204.834 141.827 203.284Z" fill="white"/>
<path fill-rule="evenodd" clip-rule="evenodd" d="M125.327 296.928C126.682 296.664 127.994 297.549 128.258 298.904C133.13 323.935 153.739 340.881 190.59 349.742C227.661 358.656 252.911 358.176 266.216 348.661C267.339 347.858 266.502 354.736 265.679 355.263C257.002 360.828 227.499 369.131 192.291 361.626C147.274 352.031 126.137 314.179 123.35 299.86C123.086 298.504 123.971 297.192 125.327 296.928Z" fill="#FFB61D"/>
<path fill-rule="evenodd" clip-rule="evenodd" d="M106.554 251.767C107.753 251.081 152.464 302.324 213.824 313.923C275.184 325.523 290.04 318.146 292.428 302.324C292.634 300.959 293.908 300.019 295.273 300.225C296.638 300.431 297.578 301.705 297.372 303.07C294.346 323.122 265.953 327.891 212.983 318.852C160.678 309.927 124.818 288.721 105.626 255.178C104.94 253.98 105.356 252.452 106.554 251.767Z" fill="#FFB61D"/>
<path fill-rule="evenodd" clip-rule="evenodd" d="M364.091 248.925C362.413 248.344 360.605 247.053 359.443 245.568L357.506 243.179L364.349 236.401C374.872 226.072 382.941 215.485 389.913 202.897C392.237 198.701 398.112 184.693 398.112 183.337C398.112 182.885 398.822 181.077 399.661 179.205C400.952 176.494 401.92 175.461 404.696 173.912C407.988 171.975 411.733 171.33 413.347 172.427C416.445 174.493 416.445 181.013 413.347 192.245C409.925 204.576 405.342 213.42 395.852 226.137C394.367 228.074 391.591 231.882 389.59 234.529C384.232 241.63 380.746 245.052 376.034 247.698C371.386 250.281 368.674 250.603 364.091 248.925Z" fill="white"/>
<path fill-rule="evenodd" clip-rule="evenodd" d="M410.441 243.115L415.089 245.181C416.053 245.626 426.685 250.734 439.457 256.871C460.048 266.765 486.199 279.33 486.358 279.33C486.616 279.33 487.828 276.529 488.101 273.262C488.747 266.226 491.135 256.672 493.911 250.022C495.202 247.053 496.235 243.341 496.235 243.019C496.235 242.871 495.186 242.448 493.468 241.755C491.422 240.93 488.429 239.723 485.132 238.144C468.864 230.333 437.038 214.388 433.1 211.999C429.227 209.74 428.452 209.546 428.452 211.031C428.452 212.968 424.514 221.941 421.48 226.783C419.866 229.429 416.703 234.206 414.444 237.37L410.441 243.115ZM485.261 267.71C487.112 268.783 483.905 270.357 483.13 270.615C478.569 271.003 473.199 270.145 468.799 267.581C466.499 265.95 448.384 255.886 436.368 249.211C430.875 246.159 426.656 243.815 425.806 243.309C423.094 241.695 420.512 239.952 420.06 239.435C418.704 237.692 419.996 236.918 423.804 237.24C426.094 237.434 481.262 265.393 485.261 267.71Z" fill="white"/>
<path fill-rule="evenodd" clip-rule="evenodd" d="M240.476 430.287C235.554 432.364 227.824 435.626 222.844 436.716C215.098 438.394 194.763 438.846 185.402 437.555C165.261 434.715 142.99 426.71 131.692 418.124C127.174 414.767 126.851 413.863 126.012 403.857L125.56 398.628L122.59 396.498C117.878 393.076 106.58 381.973 102.836 376.873C99.7546 372.796 95.4544 363.775 93.2341 359.117C92.4311 357.432 91.9002 356.318 91.7973 356.216C90.6353 355.247 86.4392 341.561 85.4063 335.235C80.952 308.574 87.2784 277.329 101.351 256.155C111.357 241.049 126.076 229.236 140.149 224.91C144.474 223.555 152.35 222.974 151.123 224.136C150.801 224.394 147.96 225.427 144.732 226.395C124.979 232.399 111.487 244.793 100.512 267.129C87.6012 293.339 84.3089 322.459 93.6694 348.41C94.0105 349.336 94.3699 350.39 94.7599 351.534C96.4367 356.452 98.678 363.026 102.449 368.158C106.903 374.162 119.685 387.137 123.042 389.074L125.237 390.301L124.85 387.137C123.107 373.258 122.784 307.218 124.398 294.565C125.108 289.014 125.753 287.464 127.367 287.464C128.142 287.464 128.271 290.047 128.271 301.796C128.271 330.2 131.499 391.592 133.823 407.537C133.95 408.36 134.072 409.149 134.185 409.88C134.584 412.472 134.87 414.329 134.92 414.38C135.759 414.961 148.218 420.19 153.06 421.997C171.329 428.84 195.279 432.455 211.547 430.841C224.394 429.55 233.671 427.432 239.868 422.719C241.547 421.428 247.117 416.704 250.022 410.377C255.315 398.693 260.544 379.907 263.708 360.863C264.676 354.924 265.709 350.276 266.032 350.535C266.354 350.793 265.451 349.179 264.03 346.855C260.48 340.98 257.381 335.041 257.381 334.073C257.381 331.878 260.092 334.202 264.87 340.658C267.71 344.531 271.39 348.727 272.939 349.954C274.488 351.245 278.813 354.924 282.558 358.152C304.055 376.873 324.131 390.236 346.79 401.146C382.231 418.059 423.094 427.355 456.34 426C507.532 423.934 549.364 404.18 570.861 371.902C573.12 368.481 589.471 341.44 588.549 340.4C588.079 339.87 585.844 340.361 583.654 340.842C582.016 341.202 580.404 341.557 579.575 341.474C575.96 341.087 562.381 337.242 561.113 328.069C560.951 326.896 558.26 323.462 558.26 323.462C558.26 323.462 555.561 324.067 552.269 325.616C545.943 328.586 539.681 326.972 531.611 320.258C527.351 316.708 525.35 313.157 525.285 309.284C525.285 307.025 523.211 304.231 522.638 303.894C522.065 303.558 519.283 304.669 518.443 305.573C515.151 309.123 503.211 308.777 498.365 306.185C495.606 304.71 491.329 300.375 490.425 297.018C490.343 296.747 490.248 296.308 490.131 295.767C489.608 293.344 488.642 288.873 486.358 288.239C485.584 287.852 481.775 286.044 477.837 284.237C473.964 282.364 469.251 280.17 467.444 279.33C464.409 277.846 463.893 277.781 461.182 278.491C458.212 279.201 456.211 282.687 456.211 284.237C456.211 286.625 457.244 291.079 460.02 295.017C464.409 301.279 471.059 307.154 481.839 314.319C491.523 320.775 493.653 322.841 496.881 328.844C500.173 335.041 501.529 341.432 501.658 351.18C501.722 358.281 480 386.04 449.755 383.329C419.511 380.617 386.427 372.032 365.705 361.703C343.691 350.664 324.26 336.397 306.443 317.999C298.051 309.413 297.405 308.574 289.852 295.856C280.363 279.782 279.782 278.685 280.234 276.877C280.556 275.522 280.556 275.522 273.649 275.973C265.838 276.554 251.507 275.715 242.856 274.23C220.52 270.357 200.637 261.384 181.012 246.407C179.334 245.116 178.107 244.471 178.301 244.987C178.624 245.762 177.656 246.149 174.234 246.665C169.005 247.569 164.293 246.536 162.033 244.083C158.547 240.275 154.028 228.655 153.706 222.586C153.577 219.552 153.125 217.809 152.479 217.357C151.963 216.97 151.511 216.131 151.511 215.485C151.511 214.775 151.188 214.517 150.607 214.711C150.091 214.904 149.187 214.517 148.541 213.807C148.474 213.732 148.061 213.442 147.377 212.963L147.374 212.961L147.374 212.961C142.169 209.313 121.327 194.706 117.619 179.98C113.423 163.314 111.616 152.48 111.035 148.025C109.937 140.15 109.873 139.827 106.58 134.791C101.803 127.368 96.5098 117.168 95.606 113.876L94.8959 111.035L93.2175 117.878C92.2492 121.687 91.4745 125.947 91.4745 127.368C91.4745 129.175 91.1517 130.143 90.4416 130.402C88.4404 131.176 87.2784 129.562 85.7937 124.075C84.5026 119.169 84.3735 117.684 84.6962 108.711C85.0836 98.3178 86.181 88.7636 87.924 81.3398C90.4416 70.5591 94.4441 60.4239 97.4781 57.1316C98.8338 55.6468 100.512 55.195 100.512 56.357C100.512 56.7443 100.06 57.0025 99.5439 57.0025C97.0263 57.0025 91.41 75.0779 89.2796 89.732C88.2468 97.1558 87.7949 120.267 88.7632 120.267C89.0214 120.267 89.8606 118.33 90.6999 116.006C92.4428 111.035 95.0896 106.71 96.4453 106.71C97.0908 106.71 97.1554 107.033 96.768 107.743C96.0579 108.969 97.0263 112.649 98.7047 115.102C98.9302 115.453 99.4475 116.28 100.147 117.399L100.149 117.402L100.149 117.403L100.15 117.404L100.15 117.405L100.152 117.406L100.154 117.41L100.154 117.411L100.155 117.411C101.257 119.175 102.809 121.657 104.386 124.14L108.969 131.564L108.582 123.172C108.259 117.878 108.388 112.714 108.904 109.292C109.615 103.676 111.293 99.157 112.455 99.4798C113.23 99.6734 113.23 101.933 112.261 110.519C111.809 114.198 111.616 117.362 111.745 117.555C111.938 117.684 112.455 116.974 112.971 115.941C113.552 114.973 115.231 112.649 116.78 110.841C118.394 109.034 120.46 105.935 121.428 103.934C123.236 100.254 130.982 90.8939 134.92 87.6016C136.469 86.3105 137.954 83.9865 139.633 80.2423C150.542 55.3241 170.038 33.4399 193.988 19.3669C200.121 15.7518 200.573 15.3645 199.152 14.848C198.378 14.5252 195.473 13.1696 192.826 11.8785C190.932 10.9546 189.171 10.13 188.227 9.68825L188.227 9.68817C187.852 9.5126 187.606 9.39755 187.533 9.36082C187.339 9.23171 186.952 9.74815 186.693 10.4583C186.112 12.3949 185.144 12.1367 184.305 9.81271C183.917 8.71527 182.949 7.61784 182.11 7.29506C180.109 6.5204 180.109 4.84197 182.11 4.32552C183.853 3.93819 187.274 5.48752 192.826 9.23171C194.763 10.5228 197.409 12.1367 198.636 12.7822C199.863 13.4278 201.089 14.2025 201.283 14.5252C201.476 14.7835 203.8 14.0733 206.447 12.8468C225.491 4.13186 235.274 0.0484196 264.159 0.000330779C289.931 -0.0425734 300.612 4.09183 316.679 10.3109L316.679 10.3111C318.621 11.0626 320.641 11.8445 322.776 12.6531C369.943 30.52 386.436 65.9289 390.537 74.7348C390.709 75.1026 390.858 75.424 390.988 75.6958C404.48 104.1 408.569 130.854 403.276 161.905C402.566 166.101 402.114 169.651 402.243 169.78C402.372 169.909 403.857 169.264 405.6 168.36C408.182 166.94 409.279 166.746 411.603 167.069C415.606 167.65 417.349 168.618 418.834 171.007C421.028 174.622 421.093 180.303 419.027 190.18C418.64 191.923 418.64 191.923 422.126 191.923C426.516 191.923 428.065 193.02 429.421 197.023C430.195 199.411 430.324 200.96 429.872 203.736C429.336 207.015 435.241 209.632 462.483 221.707C464.74 222.708 467.144 223.773 469.703 224.909C484.873 231.623 497.591 235.175 497.914 235.175C498.301 235.175 499.269 233.754 500.044 231.947C502.691 226.072 509.146 221.876 518.184 220.198C522.317 219.43 528.249 219.587 531.676 221.295C535.54 223.222 540.52 229.881 542.005 234.658L542.779 236.982L546.459 235.304C549.622 233.819 550.978 233.561 555.949 233.561C562.34 233.561 563.372 233.884 570.474 238.596C575.251 241.695 578.349 245.826 579.834 250.991L580.867 254.412L584.224 253.121C591.389 250.41 600.04 252.669 606.431 258.931C610.046 262.611 612.693 266.193 612.693 273.779C612.693 280.186 607.657 305.863 605.592 312.318C600.879 326.649 586.747 368.158 570.861 386.04C556.698 401.982 551.523 405.045 542.837 410.188C541.78 410.814 540.671 411.47 539.487 412.185C514.569 427.226 487.133 434.069 452.338 434.069C431.615 434.069 416.187 432.197 394.496 426.903C350.986 416.381 309.09 393.916 280.944 365.963C280.043 365.062 278.733 363.717 277.271 362.217C272.449 357.266 265.975 350.619 267.064 352.6C268.872 356.022 267.258 376.421 264.095 390.753C259.705 410.184 247.506 427.41 243.502 429.025C242.715 429.342 241.68 429.779 240.476 430.287ZM325.422 327.294C358.216 354.923 403.534 372.806 441.041 376.099C452.983 377.131 468.67 374.549 477.579 370.095C482.808 367.448 488.553 362.929 490.619 359.895C493.782 355.118 496.157 349.824 496.235 347.694C496.881 330.062 479.855 317.999 469.961 311.866C457.368 304.06 450.79 292.693 450.79 286.367C450.79 280.751 453.435 277.071 454.855 275.134L456.211 273.327L454.791 272.423C445.947 267 436.651 261.771 427.871 257.253C421.997 254.218 415.154 250.41 412.701 248.667L408.117 245.633L406.504 247.117C403.534 249.958 398.176 251.959 393.722 251.959C389.848 251.959 389.461 251.83 387.395 249.764L385.136 247.505L382.36 249.377C378.293 252.153 371.579 255.187 369.578 255.187C364.607 255.187 357.894 250.926 356.151 246.73L355.376 244.858L352.665 246.859C334.266 260.738 311.478 270.486 288.045 274.489C282.493 275.392 281.331 275.78 282.687 276.167C283.978 276.49 285.075 277.716 286.56 280.299C293.661 292.887 311.607 315.609 325.422 327.294ZM99.4794 87.5371C99.7376 87.2789 98.5756 86.6979 96.8326 86.3105C94.3149 85.7295 93.9922 85.5359 95.0251 85.084C96.6389 84.4384 99.8667 81.4689 99.8667 80.6297C99.8667 80.3069 99.0275 80.7588 98.0591 81.7271C97.0908 82.6954 95.3478 83.6638 94.1858 83.8574C91.9264 84.3093 91.5391 85.4068 93.153 86.9561C94.1858 87.989 98.6401 88.3763 99.4794 87.5371ZM121.815 85.9232C124.01 85.6004 124.398 86.3105 122.526 87.3434C120.976 88.1181 119.427 88.1181 117.426 87.2789C115.876 86.6979 116.005 85.4068 117.619 85.4068C118.136 85.4068 119.233 84.1802 120.008 82.6954C121.041 80.6297 121.493 80.2423 121.686 81.0816C121.815 81.7271 121.493 82.9537 120.912 83.7929C119.491 85.9878 119.621 86.246 121.815 85.9232ZM89.5379 56.4215C93.7985 54.2912 98.6401 52.3545 100.189 52.0963C103.417 51.6444 103.934 50.8052 101.545 50.1597C99.2857 49.6432 94.1858 50.8052 89.2151 53.0646C86.8911 54.0975 85.019 54.7431 85.019 54.4203C85.019 52.871 96.7035 43.2523 106.774 36.5385C126.205 23.563 138.148 18.2694 148.477 18.2694C153.254 18.2049 153.641 18.1403 152.544 17.3011C150.542 15.8163 143.506 16.0746 137.244 17.8821C127.238 20.7871 116.457 26.4679 100.512 37.2486C83.857 48.4812 74.6902 59.4556 81.2748 60.1657C81.533 60.2303 85.2127 58.4873 89.5379 56.4215ZM131.499 55.7114C131.499 56.357 131.24 56.4215 125.172 57.6481C118.265 59.0037 117.167 58.4227 119.169 54.614C120.46 52.0318 130.853 41.5093 132.08 41.5093C132.467 41.5093 132.79 41.2511 132.79 40.9928C132.79 40.6701 131.111 40.1536 129.11 39.8308C121.88 38.6689 125.818 36.2158 135.049 36.0866C138.212 36.0221 138.923 36.2158 139.116 37.1195C139.31 38.0233 138.923 38.1524 137.18 37.8942C136.018 37.7005 134.339 37.8296 133.435 38.1524L131.821 38.7334L133.306 39.1853C135.243 39.8308 135.114 40.9283 132.725 42.4776C131.628 43.1877 128.529 46.2218 125.882 49.2559L121.041 54.7431L126.27 54.9367C129.175 55.0659 131.499 55.3886 131.499 55.7114ZM165.584 33.9563C165.455 33.0526 165.907 32.7298 167.779 32.6007L167.801 32.5989C170.168 32.407 170.229 32.402 169.199 30.7931C168.711 30.0606 168.453 29.6744 168.556 29.4708C168.671 29.2438 169.234 29.2438 170.425 29.2438C171.717 29.2438 172.943 29.5666 173.137 29.8894C173.46 30.4058 173.847 30.4058 174.363 29.9539C174.944 29.502 175.396 29.502 175.913 30.0185C176.494 30.5995 176.687 30.5349 176.687 29.7602C176.687 28.34 175.461 27.6299 174.557 28.5337C174.17 28.921 173.589 28.9856 173.201 28.6628C172.298 27.9527 165.971 27.2426 165.455 27.759C165.261 28.0173 165.648 28.7919 166.358 29.6311L167.714 31.0513L165.907 31.5032C164.938 31.6969 163.712 32.2779 163.26 32.6652C162.55 33.1817 162.679 33.5044 163.905 34.15C163.964 34.183 164.02 34.215 164.075 34.246C165.051 34.7998 165.466 35.0354 165.611 34.923C165.718 34.8397 165.676 34.5654 165.604 34.0878C165.597 34.0456 165.591 34.0018 165.584 33.9563ZM156.223 12.1367C157.192 13.105 157.966 14.5898 157.966 15.429C157.966 17.3011 157.45 17.3011 155.578 15.429C153.835 13.686 148.67 11.8139 145.507 11.8139C143.958 11.8139 142.925 11.4911 142.731 10.8456C141.505 7.61784 148.025 6.39129 160.936 7.29506C171.717 8.06972 177.333 9.16716 181.723 11.4266C184.24 12.7822 184.498 13.0405 183.143 13.0405C182.239 13.0405 179.786 12.6531 177.656 12.1367C175.525 11.5557 169.457 10.9747 164.099 10.7165L154.416 10.3292L156.223 12.1367Z" fill="#00160A"/>
<path fill-rule="evenodd" clip-rule="evenodd" d="M141.827 203.284C138.6 200.702 131.692 193.085 126.463 186.371C123.752 182.82 120.718 175.59 118.91 168.296C118.071 165.003 117.232 162.034 117.038 161.646C116.78 161.324 115.747 156.74 114.714 151.447C113.165 143.958 113.493 141.546 112.132 132.589C111.556 128.796 111.035 125.778 111.035 125.778L112.713 123.623C113.681 122.332 114.906 120.196 115.36 118.975C117.426 113.417 132.596 95.9938 133.048 96.4457C133.177 96.5748 132.661 99.6089 131.757 103.159C130.918 106.71 129.885 112.068 129.433 115.102C128.787 120.137 128.529 120.718 126.528 122.397C124.01 124.527 119.233 131.37 119.233 132.79C119.233 134.727 122.138 133.436 125.172 130.273L128.271 127.045V130.595C128.271 132.919 127.819 135.05 126.98 136.728C125.366 139.891 125.366 143.248 126.915 145.83C127.69 147.121 128.4 150.22 128.852 153.9C130.853 170.555 135.114 185.015 142.408 199.54C144.216 203.155 145.636 206.125 145.572 206.125C145.443 206.125 143.764 204.834 141.827 203.284Z" fill="white"/>
<path fill-rule="evenodd" clip-rule="evenodd" d="M388.428 247.44L387.072 246.084C387.072 246.084 409.573 217.497 413.604 206.964C416.681 198.926 418.492 196.646 420.935 196.646C422.301 196.646 423.417 196.958 423.933 197.733C424.837 199.088 425.708 200.767 424.546 206.512C422.609 215.808 419.64 221.941 410.731 235.175C408.665 238.209 406.019 241.566 404.857 242.728C402.145 245.245 396.045 247.827 392.495 248.408C390.235 248.731 389.59 248.602 388.428 247.44Z" fill="white"/>
<path d="M567.181 310.592C575.213 288.709 573.997 284.047 572.604 283.591C572.604 283.591 569.537 285.334 568.181 289.014C565.664 295.921 557.046 313.996 553.818 317.224C550.01 321.033 550.01 321.033 546.136 321.033C542.263 321.033 531.092 315.2 529.571 309.45C527.138 300.251 537.615 268.291 537.873 266.484L536.13 265.257C534.968 266.355 519.854 312.189 499.979 300.246C497.704 298.879 492.878 292.435 492.491 289.014C490.34 279.072 500.21 244.309 501.888 237.169C503.391 230.778 511.212 224.846 520.831 224.846C535.614 224.846 533.628 237.768 540.25 242.322C543.184 244.34 548.007 240.681 549.493 240.404C557.821 238.854 561.012 240.658 567.117 245.503C571.829 249.243 575.316 256.646 579.154 259.254C581.286 260.703 583.548 258.722 584.288 258.35C587.326 256.825 593.843 257.963 595.65 259.254C598.3 260.409 604.793 266.651 605.819 270.281C610.469 286.735 595.787 323.213 590.245 330.056C581.07 341.383 559.15 332.474 567.181 310.592Z" fill="white"/>
<path fill-rule="evenodd" clip-rule="evenodd" d="M195.037 249.622C212.725 260.79 230.964 268.085 251.75 270.086C268.147 271.635 290.256 269.505 306.136 264.34C319.499 260.015 337.575 248.034 349.646 237.898C373.08 218.274 387.863 187.62 394.319 155.084C395.222 150.5 396.601 138.979 396.536 127.553C396.536 114.255 390.684 77.914 372.951 56.9601C336.377 13.7428 276.257 -5.72532 225.731 10.909C207.505 16.9095 188.099 27.7812 173.445 41.9833C154.982 59.9942 141.361 84.5252 135.938 109.573C130.258 136.04 137.647 167.672 150.494 193.623C160.758 214.281 177.672 238.583 195.037 249.622ZM367.399 171.61C355.263 208.084 323.631 235.326 283.865 243.589C277.797 244.816 273.6 245.267 265.079 245.397C259.076 245.59 253.072 245.526 251.845 245.397C224.022 242.04 202.848 231.775 183.352 212.28C174.831 203.694 171.216 199.046 165.923 189.879C157.595 175.354 153.141 160.507 151.785 142.625C147.137 81.362 190.97 30.2989 252.685 25.0053C276.893 22.9396 303.748 30.3634 324.147 44.8238C331.7 50.1818 345.386 63.7384 349.646 70.0648C351.389 72.5825 368.303 97.3071 371.272 111.509C375.081 129.972 373.596 153.083 367.399 171.61Z" fill="#6DFA7B"/>
<path fill-rule="evenodd" clip-rule="evenodd" d="M397.577 128.564C397.577 171.894 377.08 219.265 350.628 239.496C338.008 249.148 321.516 260.836 307.153 265.351C286.106 271.968 252.768 271.097 252.768 271.097C252.768 271.097 286.779 266.55 299.384 261.478C335.527 246.932 355.257 224.604 367.44 203.18C391.489 160.891 397.577 127.511 397.577 128.564Z" fill="#45B64A"/>
<path fill-rule="evenodd" clip-rule="evenodd" d="M253.508 238.661C236.271 236.466 219.164 230.333 205.349 221.231C197.151 215.873 184.756 203.284 178.753 194.311C170.167 181.4 164.486 167.585 161.71 152.738C159.709 141.957 159.774 125.366 161.775 115.748C163.841 105.935 166.487 98.4469 171.2 88.9573C176.687 77.9829 182.497 69.9135 191.212 61.1986C206.06 46.3509 223.296 36.9258 243.824 32.407C250.474 30.9868 274.553 29.8248 275.392 30.9222C275.585 31.245 276.877 32.0842 278.232 32.7943C279.588 33.569 283.203 36.2803 286.173 38.927C290.627 42.8003 292.628 45.2534 296.501 51.3216C299.148 55.4532 301.278 59.1974 301.278 59.5201C301.278 60.2302 303.344 61.5213 304.506 61.5213C306.12 61.5213 307.217 56.6797 307.54 48.1584C307.734 43.4459 308.121 39.5726 308.379 39.5726C309.283 39.5726 319.225 45.0598 323.873 48.1584C332.975 54.2266 342.077 62.7479 348.791 71.6565C351.825 75.6589 352.277 76.6918 352.277 79.1449C352.277 81.4043 352.923 83.1473 354.924 86.6333C359.959 95.4128 363.897 106.452 366.285 118.653C367.835 126.851 367.835 142.344 366.221 150.93C361.831 174.557 348.791 198.055 331.813 212.968C317.417 225.556 302.118 233.303 284.042 237.111C277.845 238.467 259.253 239.371 253.508 238.661ZM207.351 194.505C207.932 193.859 208.319 192.891 208.125 192.439C208.067 192.303 207.259 191.923 206.076 191.367C203.318 190.071 198.523 187.816 196.445 185.467C188.181 176.042 185.147 169.006 183.275 154.481C181.468 140.343 182.986 130.786 186.245 115.425C187.834 107.932 192.059 101.742 194.688 97.8913C196.475 95.273 197.524 93.7359 196.505 93.6052C193.988 93.2179 193.6 93.4116 190.954 95.9292C185.273 101.352 182.691 105.677 179.979 114.005C175.783 127.045 174.972 162.286 183.275 178.172C191.578 194.059 205.866 196.183 207.351 194.505ZM299.148 140.279C298.052 150.307 293.403 164.81 287.98 171.136C285.462 174.105 276.221 179.205 268.42 178.172C260.885 177.175 254.992 173.654 249.957 166.101C245.632 159.581 243.398 151.666 241.888 141.699C239.28 124.487 250.667 104.45 255.573 99.4798C260.544 94.3799 264.095 92.5724 268.614 92.5078C273.003 92.5078 275.844 93.4761 280.298 96.6393C288.432 102.32 301.278 120.791 299.148 140.279ZM212.128 86.8915C213.419 85.4067 213.613 84.6966 213.225 81.9208C212.967 79.3386 212.451 78.3057 211.095 77.2082C208.706 75.2716 205.737 75.2716 203.542 77.3373C201.993 78.8221 201.799 79.3386 201.993 82.8891C202.186 86.6978 202.315 86.9561 204.446 88.118C207.286 89.6674 210.062 89.2155 212.128 86.8915ZM252.41 47.061C240.79 55.3886 235.755 58.81 230.526 62.0378C226.394 64.62 225.103 64.6845 225.103 62.3606C225.103 61.134 226.007 59.7783 228.331 57.648L231.559 54.6785L225.297 53.8393C218.261 52.9355 211.418 50.9988 209.933 49.5141C207.48 46.9964 209.61 46.4154 216.582 47.7065C219.681 48.223 225.684 48.8685 229.945 48.9976L237.692 49.3204L243.308 45.2534C255.638 36.3448 268.42 31.3095 274.553 32.8589C278.361 33.7626 277.909 34.7955 273.584 35.312C268.614 35.893 265.579 37.5714 252.41 47.061Z" fill="#A0F9FF"/>
<path d="M269.001 169.328C269.001 169.006 269.388 168.683 269.905 168.683C270.421 168.683 271.067 169.006 271.26 169.328C271.454 169.716 271.067 169.974 270.357 169.974C269.582 169.974 269.001 169.716 269.001 169.328Z" fill="white"/>
<path d="M272.875 168.747C272.875 168.037 274.488 167.392 276.296 167.392C277.716 167.456 277.716 167.456 276.49 168.36C275.069 169.458 272.875 169.651 272.875 168.747Z" fill="white"/>
<path d="M262.868 167.069C262.675 166.553 262.417 165.649 262.223 165.132C262.029 164.487 262.352 164.164 263.191 164.164C263.901 164.164 264.482 164.551 264.482 165.068C264.482 165.584 264.676 166.423 264.87 167.004C265.128 167.715 264.934 168.037 264.224 168.037C263.643 168.037 262.998 167.585 262.868 167.069Z" fill="white"/>
<path d="M266.29 165.455C265.967 163.518 266.677 162.873 269.001 162.873C269.711 162.873 270.292 163.518 270.551 164.616C271.067 166.488 270.228 167.392 267.968 167.392C266.935 167.392 266.484 166.94 266.29 165.455Z" fill="white"/>
<path d="M259.705 165.778C258.479 164.81 258.479 164.81 259.834 164.81C260.673 164.81 261.254 165.197 261.254 165.778C261.254 166.94 261.254 166.94 259.705 165.778Z" fill="white"/>
<path d="M272.681 165.713C271.842 164.874 272.229 162.356 273.262 161.969C275.134 161.259 275.973 161.582 276.361 163.26C276.619 164.229 276.748 165.068 276.619 165.132C276.102 165.713 273.068 166.101 272.681 165.713Z" fill="white"/>
<path d="M278.426 164.358C278.233 164.164 278.039 163.325 278.039 162.55C278.039 161.453 278.556 161.001 280.105 160.678C281.46 160.42 282.3 160.549 282.687 161.065C283.333 162.098 283.333 163.389 282.752 163.712C281.59 164.358 278.878 164.745 278.426 164.358Z" fill="white"/>
<path d="M256.736 162.356C256.736 161.582 257.317 160.936 258.156 160.743C259.834 160.291 259.77 160.226 260.093 161.905C260.222 162.873 259.899 163.26 258.543 163.389C257.123 163.583 256.736 163.325 256.736 162.356Z" fill="white"/>
<path d="M261.642 162.421C260.738 161.453 261.319 159.645 262.546 159.645C263.385 159.645 263.837 160.097 263.837 160.872C263.837 162.098 262.352 163.131 261.642 162.421Z" fill="white"/>
<path d="M265.515 160.484C264.999 159.258 266.096 158.354 268.226 158.354C269.195 158.354 269.647 158.741 269.647 159.581C269.647 160.291 269.066 160.936 268.226 161.194C266.096 161.711 265.967 161.711 265.515 160.484Z" fill="white"/>
<path d="M284.172 160.291C284.365 159.968 284.688 159.645 284.882 159.645C285.075 159.645 285.011 159.968 284.817 160.291C284.624 160.678 284.301 160.936 284.107 160.936C283.914 160.936 283.978 160.678 284.172 160.291Z" fill="white"/>
<path d="M271.325 159.193C270.809 157.902 271.454 157.257 273.52 156.934C274.682 156.805 275.198 157.063 275.328 157.967C275.779 160.097 272.1 161.259 271.325 159.193Z" fill="white"/>
<path d="M255.832 158.096C255.251 155.966 255.38 155.772 257.058 155.772C257.962 155.772 258.672 156.03 258.672 156.353C258.672 156.676 258.866 157.386 259.06 157.902C259.253 158.548 258.866 158.935 257.769 159.129C256.542 159.387 256.09 159.129 255.832 158.096Z" fill="white"/>
<path d="M277.394 157.386C277.394 156.224 277.845 155.707 279.072 155.385C280.88 154.933 281.912 155.836 281.912 157.902C281.912 158.741 281.396 159 279.653 159C277.652 159 277.394 158.806 277.394 157.386Z" fill="white"/>
<path d="M253.895 157.386C253.702 156.869 253.831 156.417 254.153 156.417C254.541 156.417 254.799 156.869 254.799 157.386C254.799 157.902 254.67 158.354 254.541 158.354C254.412 158.354 254.153 157.902 253.895 157.386Z" fill="white"/>
<path d="M260.415 157.902C259.512 157.063 260.028 155.255 261.19 154.933C261.9 154.739 262.61 154.803 262.804 154.997C263.579 155.707 263.127 157.579 262.158 157.967C260.932 158.419 260.932 158.419 260.415 157.902Z" fill="white"/>
<path d="M283.461 157.45C282.751 155.578 283.526 154.158 285.334 153.964C286.689 153.771 287.077 154.029 287.077 155.062C287.077 157.192 286.366 158.354 285.075 158.354C284.365 158.354 283.655 157.967 283.461 157.45Z" fill="white"/>
<path d="M264.934 156.611C264.16 155.901 264.418 154.61 265.515 154.223C266.742 153.771 269.324 155.062 268.614 155.772C267.71 156.546 265.386 157.127 264.934 156.611Z" fill="white"/>
<path d="M270.55 154.997C269.969 154.093 272.035 152.544 273.713 152.544C274.488 152.544 274.811 152.931 274.682 153.642C274.424 154.933 271.131 155.965 270.55 154.997Z" fill="white"/>
<path d="M252.862 154.545C252.862 154.223 252.669 153.512 252.475 152.931C252.281 152.35 252.346 151.899 252.733 151.899C253.572 151.899 254.218 154.352 253.443 154.868C253.12 155.062 252.862 154.933 252.862 154.545Z" fill="white"/>
<path d="M254.605 153.061C254.218 151.64 254.993 150.607 256.477 150.607C257.317 150.607 258.156 153.125 257.639 153.964C256.929 155.062 254.928 154.416 254.605 153.061Z" fill="white"/>
<path d="M259.124 153.383C258.156 152.415 258.737 150.091 260.028 149.768C260.996 149.51 261.513 149.833 262.029 150.995C262.416 151.834 262.61 152.673 262.481 152.802C261.835 153.383 259.511 153.835 259.124 153.383Z" fill="white"/>
<path d="M276.554 153.383C275.715 152.544 276.102 152.028 278.039 151.318C279.653 150.801 280.105 150.866 280.428 151.64C281.009 153.19 277.781 154.674 276.554 153.383Z" fill="white"/>
<path d="M282.235 151.899C281.589 150.866 282.493 149.962 284.171 149.962C286.173 149.962 286.754 151.64 284.946 152.157C283.009 152.673 282.687 152.609 282.235 151.899Z" fill="white"/>
<path d="M287.722 150.349C287.722 149.381 288.884 148.348 289.401 148.864C289.852 149.316 288.949 151.253 288.303 151.253C287.98 151.253 287.722 150.866 287.722 150.349Z" fill="white"/>
<path d="M252.023 149.51C251.765 149.316 251.571 148.477 251.636 147.767C251.636 146.54 251.7 146.54 252.281 147.961C252.927 149.51 252.798 150.285 252.023 149.51Z" fill="white"/>
<path d="M253.25 148.542C252.669 146.282 252.733 146.089 254.412 146.089C256.284 146.089 257.446 148.477 256.026 149.381C254.541 150.285 253.702 150.026 253.25 148.542Z" fill="white"/>
<path d="M275.457 149.833C275.457 149.639 275.779 148.606 276.167 147.444C277.07 144.862 279.072 144.733 279.524 147.251C279.717 148.219 279.782 149.058 279.717 149.123C279.394 149.51 275.457 150.091 275.457 149.833Z" fill="white"/>
<path d="M257.833 148.219C257.575 148.025 257.381 147.251 257.381 146.54C257.381 145.508 257.575 145.443 258.35 146.089C258.866 146.54 259.318 147.315 259.318 147.767C259.318 148.735 258.543 148.994 257.833 148.219Z" fill="white"/>
<path d="M281.073 146.928C280.686 144.927 281.525 144.023 283.526 144.281C284.494 144.41 284.817 144.991 284.817 146.411C284.817 148.025 284.559 148.413 283.139 148.542C281.719 148.735 281.396 148.413 281.073 146.928Z" fill="white"/>
<path d="M287.399 147.186C286.56 144.604 286.818 143.829 288.561 143.635C290.11 143.442 290.304 143.635 290.304 145.314C290.304 146.734 289.917 147.315 288.948 147.573C288.238 147.767 287.528 147.573 287.399 147.186Z" fill="white"/>
<path d="M251.055 143.506C251.055 142.28 251.184 141.763 251.377 142.409C251.507 142.99 251.507 144.023 251.377 144.668C251.184 145.249 251.055 144.733 251.055 143.506Z" fill="white"/>
<path d="M252.669 144.346C251.83 143.571 252.217 141.053 253.25 140.666C254.734 140.085 255.445 140.795 255.445 142.925C255.445 144.281 255.122 144.797 254.283 144.797C253.637 144.797 252.862 144.604 252.669 144.346Z" fill="white"/>
<path d="M256.542 142.603C256.284 141.634 256.155 140.601 256.413 140.408C257.058 139.762 257.446 140.795 257.252 142.667L257.058 144.475L256.542 142.603Z" fill="white"/>
<path d="M277.394 142.151C277.394 141.441 277.716 141.053 278.039 141.247C278.426 141.441 278.685 142.086 278.685 142.603C278.685 143.119 278.426 143.506 278.039 143.506C277.716 143.506 277.394 142.925 277.394 142.151Z" fill="white"/>
<path d="M280.298 142.99C279.395 142.022 280.105 140.279 281.589 139.891C283.462 139.439 283.526 139.439 284.107 141.311C284.494 142.473 284.236 142.732 282.558 142.99C281.525 143.184 280.492 143.119 280.298 142.99Z" fill="white"/>
<path d="M286.237 141.763C285.527 141.118 285.721 138.988 286.431 138.988C286.818 138.988 287.076 138.729 287.076 138.342C287.076 138.019 286.689 137.696 286.173 137.696C285.075 137.696 284.171 134.533 285.075 133.629C286.237 132.467 287.528 133.694 288.303 136.857C288.755 138.536 289.207 140.472 289.4 141.118C289.659 141.957 289.4 142.215 288.174 142.215C287.335 142.215 286.431 142.022 286.237 141.763Z" fill="white"/>
<path d="M289.723 138.342C289.271 136.405 288.109 132.532 287.27 129.692C285.979 125.56 285.85 124.527 286.56 124.075C287.012 123.752 287.593 123.494 287.787 123.494C288.497 123.494 291.079 136.728 290.821 139.31L290.627 141.892L289.723 138.342Z" fill="white"/>
<path d="M250.409 138.019C250.409 136.986 250.538 136.599 250.732 137.245C250.861 137.826 250.861 138.729 250.732 139.181C250.538 139.569 250.409 139.117 250.409 138.019Z" fill="white"/>
<path d="M251.7 137.89C251.959 135.631 253.831 135.114 254.347 137.18C254.799 138.858 254.928 138.665 252.991 139.31C251.636 139.698 251.507 139.568 251.7 137.89Z" fill="white"/>
<path d="M278.943 137.309C278.426 135.437 279.524 134.34 281.589 134.598C283.139 134.791 283.72 137.567 282.429 138.407C280.815 139.439 279.33 138.988 278.943 137.309Z" fill="white"/>
<path d="M255.444 136.793C255.444 135.695 255.767 135.114 256.477 135.114C257.123 135.114 257.381 135.566 257.252 136.534C256.929 138.6 255.444 138.794 255.444 136.793Z" fill="white"/>
<path d="M249.699 134.081C249.699 133.371 249.893 133.178 250.087 133.694C250.28 134.146 250.216 134.727 250.022 134.921C249.828 135.179 249.635 134.791 249.699 134.081Z" fill="white"/>
<path d="M250.926 133.888C250.926 132.919 251.313 132.532 252.281 132.532C253.185 132.532 253.508 132.855 253.379 133.629C253.056 135.308 250.926 135.502 250.926 133.888Z" fill="white"/>
<path d="M254.476 133.307C254.025 132.145 254.025 132.145 255.961 131.628C257.123 131.241 257.381 131.435 257.381 132.403C257.381 133.952 255.057 134.727 254.476 133.307Z" fill="white"/>
<path d="M277.845 132.403C277.393 130.789 278.232 129.95 280.492 129.95C281.589 129.95 281.912 130.337 281.912 131.564C281.912 132.532 281.525 133.178 281.008 133.178C280.492 133.178 279.653 133.371 279.136 133.565C278.555 133.759 278.103 133.371 277.845 132.403Z" fill="white"/>
<path d="M283.462 130.918C282.945 129.627 283.72 128.659 285.205 128.659C286.108 128.659 286.431 129.111 286.431 130.273C286.431 131.435 286.108 131.886 285.14 131.886C284.43 131.886 283.655 131.435 283.462 130.918Z" fill="white"/>
<path d="M250.28 130.014C250.28 128.659 251.765 127.109 252.411 127.819C252.669 128.013 252.862 128.917 252.862 129.756C252.862 130.789 252.475 131.241 251.571 131.241C250.732 131.241 250.28 130.789 250.28 130.014Z" fill="white"/>
<path d="M253.831 129.24C253.314 127.626 253.895 126.916 256.09 126.593C258.091 126.335 258.737 128.465 256.994 129.756C255.316 130.983 254.283 130.789 253.831 129.24Z" fill="white"/>
<path d="M277.2 128.852C276.748 128.465 276.554 126.077 276.942 126.077C277.006 126.077 277.974 125.818 279.136 125.496C281.073 124.915 281.202 124.979 281.138 126.722C281.073 128.013 280.686 128.659 279.717 128.917C277.974 129.369 277.716 129.369 277.2 128.852Z" fill="white"/>
<path d="M274.811 127.368C274.811 126.916 275.005 126.722 275.263 126.916C275.457 127.174 275.457 127.561 275.263 127.819C275.005 128.013 274.811 127.819 274.811 127.368Z" fill="white"/>
<path d="M282.041 126.335C282.235 125.237 284.236 123.623 284.688 124.14C284.882 124.333 285.204 125.108 285.398 125.947C285.85 127.238 285.656 127.368 283.849 127.368C282.299 127.368 281.848 127.109 282.041 126.335Z" fill="white"/>
<path d="M250.926 126.27C250.926 125.947 251.249 125.302 251.571 124.785C252.088 124.011 252.217 124.075 252.217 125.302C252.217 126.076 251.959 126.722 251.571 126.722C251.249 126.722 250.926 126.528 250.926 126.27Z" fill="white"/>
<path d="M252.862 124.85C252.862 123.042 254.218 122.461 255.251 123.817C255.896 124.785 255.896 125.108 255.251 125.56C253.895 126.399 252.862 126.141 252.862 124.85Z" fill="white"/>
<path d="M272.487 124.011C271.325 122.72 271.325 122.655 272.423 123.042C273.068 123.301 273.907 123.494 274.23 123.494C274.553 123.494 274.811 123.946 274.811 124.463C274.811 125.818 273.907 125.689 272.487 124.011Z" fill="white"/>
<path d="M258.608 123.946C255.832 121.816 255.444 117.039 258.027 117.039C259.77 117.039 261.384 119.75 261.125 122.268C260.932 124.592 260.157 125.108 258.608 123.946Z" fill="white"/>
<path d="M276.296 124.333C276.554 124.14 276.942 124.14 277.2 124.333C277.393 124.592 277.2 124.785 276.748 124.785C276.296 124.785 276.102 124.592 276.296 124.333Z" fill="white"/>
<path d="M286.044 121.816C286.237 121.235 286.431 120.654 286.431 120.525C286.431 120.396 286.754 120.267 287.077 120.267C287.464 120.267 287.722 120.848 287.722 121.558C287.722 122.332 287.27 122.849 286.689 122.849C285.979 122.849 285.786 122.526 286.044 121.816Z" fill="white"/>
<path d="M252.217 121.622C252.217 120.137 253.572 117.684 254.347 117.684C255.703 117.684 254.734 121.816 253.314 122.074C252.733 122.203 252.217 122.01 252.217 121.622Z" fill="white"/>
<path d="M266.742 120.912L264.805 120.46L266.548 120.008C268.356 119.492 269.647 119.879 269.647 120.977C269.647 121.622 269.582 121.622 266.742 120.912Z" fill="white"/>
<path d="M264.482 117.813C264.482 115.167 265.967 114.779 267.323 117.103C268.227 118.653 268.291 118.975 267.452 118.975C266.936 118.975 266.096 119.169 265.515 119.363C264.741 119.686 264.482 119.298 264.482 117.813Z" fill="white"/>
<path d="M275.715 118.717C272.81 117.426 270.938 114.005 270.938 109.938C270.938 107.033 271.196 106.323 272.939 104.709C274.036 103.676 275.134 102.837 275.456 102.837C276.877 102.837 282.106 107.807 283.849 110.906L285.85 114.457L283.719 116.716C281.266 119.298 278.555 120.008 275.715 118.717Z" fill="white"/>
<path d="M262.223 117.039C262.029 116.716 262.158 116.393 262.481 116.393C262.868 116.393 263.191 116.716 263.191 117.039C263.191 117.426 263.062 117.684 262.933 117.684C262.739 117.684 262.416 117.426 262.223 117.039Z" fill="white"/>
<path d="M253.766 116.006C253.96 115.425 254.154 114.844 254.154 114.715C254.154 114.586 254.735 114.457 255.445 114.457C257.059 114.457 257.123 115.489 255.509 116.393C253.766 117.297 253.314 117.232 253.766 116.006Z" fill="white"/>
<path d="M258.866 115.231C257.381 115.038 256.929 114.198 257.897 113.617C258.156 113.424 259.318 113.101 260.48 112.843C262.223 112.455 262.545 112.584 262.545 113.682C262.545 115.038 261.19 115.619 258.866 115.231Z" fill="white"/>
<path d="M263.837 113.036C263.837 112.262 263.901 111.81 264.031 111.939C264.095 112.068 264.612 112.714 265.063 113.359C265.838 114.263 265.774 114.457 264.87 114.457C264.224 114.457 263.837 113.94 263.837 113.036Z" fill="white"/>
<path d="M254.799 112.584C254.799 112.197 255.122 111.745 255.444 111.552C255.832 111.358 256.09 111.616 256.09 112.133C256.09 112.714 255.832 113.165 255.444 113.165C255.122 113.165 254.799 112.907 254.799 112.584Z" fill="white"/>
<path d="M257.187 111.616C256.671 110.325 261.254 108.905 262.029 110.131C262.61 111.164 262.029 111.616 259.576 112.133C258.091 112.455 257.446 112.326 257.187 111.616Z" fill="white"/>
<path d="M263.256 109.55C263.256 108.84 263.449 108.647 263.643 109.163C263.837 109.615 263.772 110.196 263.579 110.39C263.385 110.648 263.191 110.26 263.256 109.55Z" fill="white"/>
<path d="M257.769 108.518C258.543 107.097 260.803 104.773 261.384 104.773C262.029 104.773 262.094 107.807 261.448 108.195C261.125 108.324 260.093 108.647 259.124 108.905C257.704 109.228 257.381 109.163 257.769 108.518Z" fill="white"/>
<path d="M262.933 107.033C262.223 105.096 262.546 104.257 264.095 103.999C265.709 103.676 265.709 103.676 264.676 105.677C263.385 108.259 263.449 108.259 262.933 107.033Z" fill="white"/>
<path d="M262.545 103.159C262.545 103.03 263.837 102.127 265.45 101.223C267.387 100.061 268.743 99.6735 269.711 99.9317C270.873 100.319 270.55 100.577 267.71 101.933C264.547 103.353 262.545 103.87 262.545 103.159Z" fill="white"/>
<path d="M298.374 45.9636C296.631 43.4459 292.951 39.379 290.304 36.9259C287.658 34.4728 285.915 32.4716 286.431 32.4716C287.851 32.4716 298.696 35.4411 301.408 36.6031C303.667 37.5714 303.732 37.7005 303.151 39.7017C302.828 40.8637 302.57 43.7687 302.57 46.1572C302.57 48.6103 302.376 50.547 302.118 50.547C301.795 50.547 300.181 48.4812 298.374 45.9636Z" fill="#A0F9FF"/>
<path d="M167.004 241.501C164.357 240.145 163.776 239.371 160.419 232.722C155.578 223.297 155.448 221.102 160.032 226.46C161.839 228.59 166.035 232.98 169.328 236.208C174.944 241.63 175.202 242.017 173.33 241.759C171.975 241.566 171.458 241.695 171.781 242.211C172.556 243.373 170.102 243.05 167.004 241.501Z" fill="white"/>
<path fill-rule="evenodd" clip-rule="evenodd" d="M410.441 243.115L415.089 245.181C416.053 245.626 426.685 250.734 439.457 256.871C460.048 266.765 486.199 279.33 486.358 279.33C486.616 279.33 487.828 276.529 488.101 273.262C488.747 266.226 491.135 256.672 493.911 250.022C495.202 247.053 496.235 243.341 496.235 243.019C496.235 242.871 495.186 242.448 493.468 241.755C491.422 240.93 488.429 239.723 485.132 238.144C468.864 230.333 437.038 214.388 433.1 211.999C429.227 209.74 428.452 209.546 428.452 211.031C428.452 212.968 424.514 221.941 421.48 226.783C419.866 229.429 416.703 234.206 414.444 237.37L410.441 243.115ZM485.261 267.71C487.112 268.783 483.905 270.357 483.13 270.615C478.569 271.003 473.199 270.145 468.799 267.581C466.499 265.95 448.384 255.886 436.368 249.211C430.875 246.159 426.656 243.815 425.806 243.309C423.094 241.695 420.512 239.952 420.06 239.435C418.704 237.692 419.996 236.918 423.804 237.24C426.094 237.434 481.262 265.393 485.261 267.71Z" fill="#6DFA7B"/>
<path d="M364.09 248.925C362.412 248.344 360.605 247.053 359.443 245.568L357.506 243.179L364.349 236.401C374.871 226.072 382.618 214.784 389.59 202.196C391.914 198 398.821 181.077 399.66 179.205C400.951 176.494 401.92 175.461 404.696 173.912C407.988 171.975 411.732 171.33 413.346 172.427C416.445 174.493 416.445 181.013 413.346 192.245C409.925 204.576 405.341 213.42 395.852 226.137C394.367 228.074 391.591 231.882 389.59 234.529C384.232 241.63 380.746 245.052 376.033 247.698C371.385 250.281 368.674 250.603 364.09 248.925Z" fill="#6DFA7B"/>
<path d="M388.428 247.44L387.072 246.084C387.072 246.084 409.573 217.497 413.604 206.964C416.681 198.926 418.492 196.646 420.935 196.646C422.301 196.646 423.417 196.958 423.933 197.733C424.837 199.088 425.708 200.767 424.546 206.512C422.609 215.808 419.64 221.941 410.731 235.175C408.665 238.209 406.019 241.566 404.857 242.728C402.145 245.245 396.045 247.827 392.495 248.408C390.235 248.731 389.59 248.602 388.428 247.44Z" fill="#6DFA7B"/>
<path fill-rule="evenodd" clip-rule="evenodd" d="M426.223 217.547C427.525 214.569 428.453 211.971 428.453 211.031C428.453 209.546 429.227 209.74 433.1 211.999C437.038 214.388 468.864 230.333 485.132 238.144C491.2 241.049 496.235 242.696 496.235 243.019C496.235 243.341 424.843 220.705 426.223 217.547Z" fill="#45B64A"/>
<path fill-rule="evenodd" clip-rule="evenodd" d="M205.349 221.231C197.151 215.873 184.756 203.284 178.753 194.311C170.167 181.4 164.486 167.585 161.71 152.738C159.709 141.957 159.774 125.366 161.775 115.748C163.841 105.935 166.487 98.4469 171.2 88.9573C176.687 77.9829 182.497 69.9135 191.212 61.1986C199.758 52.6524 161.775 87.9944 171.2 151.229C178.753 204.219 211.213 225.094 205.349 221.231Z" fill="#77C4C9"/>
<path d="M297.5 307.5C281 343 141 322 105.5 257L109 251.5C144.5 301 278 345 292.5 301L297.5 307.5Z" fill="#6DFA7B"/>
<path d="M267.646 353.999C247 375.5 157.5 374.5 128.5 313.5L128 300C155 355.499 243 363 265 348.5L267.646 353.999Z" fill="#6DFA7B"/>
</svg>
