<svg width="69" height="69" viewBox="0 0 69 69" fill="none" xmlns="http://www.w3.org/2000/svg">
<path d="M34 34.5L67 1.125" stroke="white" stroke-width="2" stroke-linecap="round" stroke-linejoin="round"/>
<path d="M57.3342 10.9004C51.4886 5.00003 43.6662 1.53354 35.4145 1.18674C27.1629 0.839928 19.083 3.63807 12.7735 9.02757C6.46405 14.4171 2.38448 22.0054 1.34194 30.2912C0.299402 38.577 2.36983 46.9568 7.14361 53.7727C11.9174 60.5886 19.0468 65.3441 27.1214 67.0985C35.1959 68.8528 43.6275 67.4782 50.7479 63.2465C57.8683 59.0148 63.159 52.2344 65.5732 44.2466C67.9874 36.2588 67.3493 27.6455 63.785 20.1108" stroke="white" stroke-width="2" stroke-linecap="round" stroke-linejoin="round"/>
<path d="M45.6675 22.7001C42.9397 19.9414 39.3422 18.2366 35.5005 17.882C31.6587 17.5274 27.8155 18.5454 24.6389 20.7591C21.4623 22.9729 19.1531 26.2424 18.1127 29.9994C17.0722 33.7563 17.3663 37.7633 18.9438 41.3237C20.5213 44.8841 23.2825 47.773 26.7474 49.4882C30.2124 51.2033 34.1621 51.6364 37.9099 50.712C41.6578 49.7876 44.967 47.5643 47.2622 44.4285C49.5575 41.2926 50.6938 37.4425 50.4735 33.5473" stroke="white" stroke-width="2" stroke-linecap="round" stroke-linejoin="round"/>
</svg>
