<svg width="176" height="175" viewBox="0 0 176 175" fill="none" xmlns="http://www.w3.org/2000/svg">
<circle cx="88.229" cy="87.7222" r="87.2778" fill="#EF5837"/>
<path d="M126.176 120.46C126.176 121.082 125.826 121.652 125.125 122.171C124.425 122.689 123.348 123.117 121.896 123.453C120.443 123.79 118.951 124.101 117.421 124.386C115.89 124.671 113.932 124.892 111.545 125.047C109.159 125.203 107.084 125.319 105.32 125.397C103.556 125.475 101.286 125.54 98.5104 125.591C95.7348 125.643 93.6337 125.669 92.207 125.669H80.456L74.1526 125.591L67.3433 125.397L61.1176 125.047L55.2421 124.386L50.7674 123.453L47.5379 122.171L46.4873 120.46C46.5911 115.899 49.4445 111.869 55.0476 108.371C60.6507 104.872 67.7583 102.553 76.3705 101.413V98.8472C73.6727 97.6551 71.3381 95.9706 69.3666 93.7938C67.3951 91.6169 65.8387 89.0643 64.6974 86.1359C63.556 83.2075 62.7259 80.0718 62.2071 76.7288C61.6883 73.3858 61.4289 69.7706 61.4289 65.8834C61.4289 62.5663 62.0774 59.612 63.3744 57.0205C64.6714 54.429 66.4613 52.3428 68.744 50.762C71.0268 49.1812 73.6467 47.9891 76.6039 47.1858C79.5611 46.3824 82.8036 45.9807 86.3315 45.9807C89.8594 45.9807 93.1019 46.3824 96.0591 47.1858C99.0163 47.9891 101.636 49.1812 103.919 50.762C106.202 52.3428 107.992 54.429 109.289 57.0205C110.586 59.612 111.234 62.5663 111.234 65.8834C111.234 84.0238 106.254 95.0636 96.2926 99.0027V101.413C104.905 102.553 112.012 104.872 117.615 108.371C123.219 111.869 126.072 115.899 126.176 120.46Z" fill="white"/>
</svg>
