<svg width="175" height="175" viewBox="0 0 175 175" fill="none" xmlns="http://www.w3.org/2000/svg">
<circle cx="87.6176" cy="87.7222" r="87.2778" fill="#2CFF4E"/>
<path d="M87.6181 45.9807C112.773 45.9807 133.154 66.3619 133.154 91.5169C133.154 116.672 112.773 137.053 87.6181 137.053C62.463 137.053 42.0818 116.672 42.0818 91.5169C42.0818 66.3618 62.463 45.9807 87.6181 45.9807ZM72.929 76.8278C69.679 76.8278 67.0533 79.4535 67.0533 82.7035C67.0533 85.9534 69.679 88.5791 72.929 88.5791C76.1789 88.5791 78.8046 85.9534 78.8046 82.7035C78.8046 79.4535 76.1789 76.8278 72.929 76.8278ZM102.307 76.8278C99.0572 76.8278 96.4315 79.4535 96.4315 82.7035C96.4315 85.9534 99.0572 88.5791 102.307 88.5791C105.557 88.5791 108.183 85.9534 108.183 82.7035C108.183 79.4535 105.557 76.8278 102.307 76.8278ZM66.5392 108.079C71.7722 114.359 79.4472 117.957 87.6181 117.957C95.7889 117.957 103.464 114.359 108.697 108.079C111.194 105.086 106.677 101.34 104.18 104.315C100.067 109.254 94.0445 112.063 87.6181 112.063C81.1916 112.063 75.169 109.236 71.0561 104.315C68.5957 101.34 64.0604 105.086 66.5392 108.079Z" fill="white"/>
</svg>
