<svg width="175" height="175" viewBox="0 0 175 175" fill="none" xmlns="http://www.w3.org/2000/svg">
<circle cx="87.5122" cy="87.7222" r="87.2778" fill="#FF5E3B"/>
<path d="M125.076 49.7754H45.7705V57.8026H55.3706L70.0671 96.6664C70.6543 98.2136 71.7213 99.5502 73.1239 100.496C74.5265 101.441 76.1972 101.949 77.91 101.952H112.554V93.9251H77.91L74.8714 85.8979H112.554C114.223 85.8979 115.734 84.9427 116.39 83.4656L128.912 55.3704C129.186 54.7601 129.298 54.0936 129.238 53.4313C129.177 52.7689 128.946 52.1314 128.566 51.5763C128.185 51.0211 127.667 50.5658 127.058 50.2514C126.448 49.9371 125.767 49.7735 125.076 49.7754V49.7754Z" fill="white"/>
<path d="M79.6849 122.823C84.0074 122.823 87.5115 119.319 87.5115 114.997C87.5115 110.674 84.0074 107.17 79.6849 107.17C75.3625 107.17 71.8584 110.674 71.8584 114.997C71.8584 119.319 75.3625 122.823 79.6849 122.823Z" fill="white"/>
<path d="M105.774 122.823C110.096 122.823 113.6 119.319 113.6 114.997C113.6 110.674 110.096 107.17 105.774 107.17C101.451 107.17 97.9473 110.674 97.9473 114.997C97.9473 119.319 101.451 122.823 105.774 122.823Z" fill="white"/>
</svg>
