<svg width="175" height="175" viewBox="0 0 175 175" fill="none" xmlns="http://www.w3.org/2000/svg">
<circle cx="87.7221" cy="87.7222" r="87.2778" fill="#353535"/>
<path fill-rule="evenodd" clip-rule="evenodd" d="M57.3652 62.7406C57.3652 61.3148 57.9364 59.9474 58.953 58.9393C59.9696 57.9311 61.3485 57.3647 62.7862 57.3647H127.838C129.276 57.3647 130.655 57.9311 131.671 58.9393C132.688 59.9474 133.259 61.3148 133.259 62.7406C133.259 64.1663 132.688 65.5337 131.671 66.5418C130.655 67.55 129.276 68.1164 127.838 68.1164H62.7862C61.3485 68.1164 59.9696 67.55 58.953 66.5418C57.9364 65.5337 57.3652 64.1663 57.3652 62.7406Z" fill="white"/>
<path fill-rule="evenodd" clip-rule="evenodd" d="M57.3652 89.6195C57.3652 88.1938 57.9364 86.8264 58.953 85.8183C59.9696 84.8101 61.3485 84.2437 62.7862 84.2437H127.838C129.276 84.2437 130.655 84.8101 131.671 85.8183C132.688 86.8264 133.259 88.1938 133.259 89.6195C133.259 91.0453 132.688 92.4127 131.671 93.4208C130.655 94.429 129.276 94.9954 127.838 94.9954H62.7862C61.3485 94.9954 59.9696 94.429 58.953 93.4208C57.9364 92.4127 57.3652 91.0453 57.3652 89.6195Z" fill="white"/>
<path fill-rule="evenodd" clip-rule="evenodd" d="M57.3652 116.499C57.3652 115.073 57.9364 113.706 58.953 112.697C59.9696 111.689 61.3485 111.123 62.7862 111.123H127.838C129.276 111.123 130.655 111.689 131.671 112.697C132.688 113.706 133.259 115.073 133.259 116.499C133.259 117.924 132.688 119.292 131.671 120.3C130.655 121.308 129.276 121.874 127.838 121.874H62.7862C61.3485 121.874 59.9696 121.308 58.953 120.3C57.9364 119.292 57.3652 117.924 57.3652 116.499Z" fill="white"/>
<circle cx="47.8786" cy="63.0568" r="5.69203" fill="white"/>
<circle cx="47.8786" cy="89.6196" r="5.69203" fill="white"/>
<circle cx="47.8786" cy="116.182" r="5.69203" fill="white"/>
</svg>
