<svg width="175" height="175" viewBox="0 0 175 175" fill="none" xmlns="http://www.w3.org/2000/svg">
<circle cx="87.5" cy="87.5" r="87.5" fill="#F57575"/>
<path d="M113.643 48C114.71 48.0001 115.74 48.3848 116.538 49.0811C117.335 49.7774 117.845 50.7369 117.97 51.7775L118 52.278V120.727C117.999 121.817 117.574 122.866 116.811 123.659C116.049 124.452 115.007 124.929 113.898 124.993C112.79 125.057 111.698 124.702 110.846 124.003C109.995 123.303 109.447 122.31 109.316 121.227L109.286 120.727V99.3365H104.929C103.861 99.3364 102.831 98.9517 102.034 98.2554C101.236 97.5591 100.727 96.5996 100.602 95.559L100.571 95.0585V69.3902C100.571 59.9357 107.107 48 113.643 48ZM87.5 48C88.5672 48.0001 89.5973 48.3848 90.3948 49.0811C91.1923 49.7774 91.7018 50.7369 91.8266 51.7775L91.8571 52.278V73.6682C91.8566 77.4623 90.5726 81.1487 88.2066 84.1485C85.8406 87.1483 82.5269 89.2914 78.7857 90.2414V120.727C78.7845 121.817 78.3592 122.866 77.5969 123.659C76.8345 124.452 75.7926 124.929 74.6839 124.993C73.5753 125.057 72.4836 124.702 71.632 124.003C70.7804 123.303 70.2331 122.31 70.1019 121.227L70.0714 120.727V90.2414C66.4788 89.3295 63.2761 87.316 60.9291 84.4939C58.5822 81.6717 57.2134 78.1881 57.0218 74.5495L57 73.6682V52.278C57.0012 51.1877 57.4265 50.1389 58.1888 49.346C58.9512 48.5531 59.9932 48.076 61.1018 48.0121C62.2104 47.9482 63.3021 48.3023 64.1537 49.0022C65.0053 49.702 65.5526 50.6948 65.6838 51.7775L65.7143 52.278V73.6682C65.7143 75.1701 66.117 76.6455 66.8818 77.9462C67.6467 79.2468 68.7467 80.3269 70.0714 81.0778V52.278C70.0727 51.1877 70.4979 50.1389 71.2603 49.346C72.0226 48.5531 73.0646 48.076 74.1732 48.0121C75.2819 47.9482 76.3735 48.3023 77.2251 49.0022C78.0767 49.702 78.624 50.6948 78.7552 51.7775L78.7857 52.278L78.7901 81.0778C80.006 80.3877 81.034 79.4193 81.7866 78.2551C82.5392 77.0909 82.994 75.7653 83.1124 74.3912L83.1429 73.6682V52.278C83.1429 51.1434 83.6019 50.0553 84.419 49.253C85.2362 48.4507 86.3444 48 87.5 48V48Z" fill="white"/>
</svg>
