<svg width="176" height="175" viewBox="0 0 176 175" fill="none" xmlns="http://www.w3.org/2000/svg">
<circle cx="87.7416" cy="87.7222" r="87.2778" fill="#375FEF"/>
<path d="M131.393 83.2436L90.0136 43.1003C89.7156 42.8104 89.3617 42.5805 88.9722 42.4236C88.5826 42.2668 88.165 42.186 87.7432 42.186C87.3214 42.186 86.9038 42.2668 86.5142 42.4236C86.1246 42.5805 85.7708 42.8104 85.4728 43.1003L44.0937 83.2436C42.8882 84.4139 42.2051 86.0037 42.2051 87.6617C42.2051 91.1045 45.0883 93.9036 48.6345 93.9036H52.9944V122.548C52.9944 124.274 54.431 125.669 56.2091 125.669H81.3138V103.822H92.5652V125.669H119.277C121.055 125.669 122.492 124.274 122.492 122.548V93.9036H126.852C128.56 93.9036 130.197 93.2502 131.403 92.07C133.904 89.6318 133.904 85.6818 131.393 83.2436V83.2436Z" fill="white"/>
</svg>
