<svg width="175" height="175" viewBox="0 0 175 175" fill="none" xmlns="http://www.w3.org/2000/svg">
<circle cx="87.5" cy="87.5" r="87.5" fill="#BD75F5"/>
<path d="M117 68.75H104.25V67.25C104.25 57.725 96.525 50 87 50C77.475 50 69.75 57.725 69.75 67.25V68.75H57C55.3406 68.75 54 70.0906 54 71.75V122C54 123.659 55.3406 125 57 125H117C118.659 125 120 123.659 120 122V71.75C120 70.0906 118.659 68.75 117 68.75ZM97.5 68.75H76.5V67.25C76.5 61.4469 81.1969 56.75 87 56.75C92.8031 56.75 97.5 61.4469 97.5 67.25V68.75Z" fill="white"/>
</svg>
