<svg width="175" height="175" viewBox="0 0 175 175" fill="none" xmlns="http://www.w3.org/2000/svg">
<circle cx="87.3266" cy="87.7222" r="87.2778" fill="#2CFF4E"/>
<path d="M127.048 69.123C125.753 66.0795 123.885 63.3214 121.55 61.0033C119.212 58.6783 116.457 56.8307 113.432 55.5608C110.296 54.2389 106.933 53.5622 103.537 53.5701C98.7729 53.5701 94.1247 54.894 90.0854 57.3946C89.119 57.9928 88.201 58.6498 87.3313 59.3657C86.4616 58.6498 85.5435 57.9928 84.5772 57.3946C80.5378 54.894 75.8897 53.5701 71.1256 53.5701C67.6951 53.5701 64.3708 54.237 61.2302 55.5608C58.1958 56.8356 55.4611 58.6694 53.1128 61.0033C50.7742 63.3188 48.9061 66.0775 47.6143 69.123C46.2711 72.2904 45.585 75.654 45.585 79.1156C45.585 82.3811 46.2421 85.7839 47.5467 89.2456C48.6386 92.1384 50.2041 95.1392 52.2045 98.1693C55.3741 102.965 59.7323 107.966 65.1439 113.036C74.1116 121.44 82.9924 127.245 83.3693 127.48L85.6595 128.971C86.6742 129.628 87.9787 129.628 88.9934 128.971L91.2837 127.48C91.6605 127.235 100.532 121.44 109.509 113.036C114.921 107.966 119.279 102.965 122.448 98.1693C124.449 95.1392 126.024 92.1384 127.106 89.2456C128.411 85.7839 129.068 82.3811 129.068 79.1156C129.078 75.654 128.392 72.2904 127.048 69.123V69.123Z" fill="white"/>
</svg>
