<svg width="176" height="175" viewBox="0 0 176 175" fill="none" xmlns="http://www.w3.org/2000/svg">
<circle cx="88.0336" cy="87.7222" r="87.2778" fill="#FFB51B"/>
<path d="M97.0565 76.7177C104.73 76.7177 109.452 65.9028 109.452 59.0724C109.452 53.3804 106.501 46.5499 100.598 46.5499C92.9245 46.5499 88.2022 57.3648 88.2022 64.1952C88.2022 69.8872 91.1536 76.7177 97.0565 76.7177V76.7177ZM74.6257 76.7177C80.5285 76.7177 83.4799 69.8872 83.4799 64.1952C83.4799 56.7956 78.7576 45.9807 71.0839 45.9807C65.1811 45.9807 62.2297 52.8111 62.2297 58.5032C61.6394 65.9028 66.3617 76.7177 74.6257 76.7177V76.7177ZM118.307 71.0256C110.633 71.0256 105.32 81.2713 105.32 88.6709C105.32 93.7938 107.682 98.9166 112.994 98.9166C120.668 98.9166 125.98 88.6709 125.98 81.2713C125.98 76.1485 123.029 71.0256 118.307 71.0256V71.0256ZM66.952 88.6709C66.952 81.2713 61.0491 71.0256 53.9657 71.0256C48.6531 71.0256 46.292 76.1485 46.292 81.2713C46.292 88.6709 52.1948 98.9166 59.2783 98.9166C64.5908 98.9166 66.952 93.7938 66.952 88.6709ZM85.8411 87.5325C74.0354 87.5325 58.0977 105.747 58.0977 118.269C58.0977 123.962 62.2297 125.669 66.952 125.669C74.0354 125.669 79.3479 121.116 85.8411 121.116C91.7439 121.116 97.0565 125.669 103.55 125.669C108.272 125.669 113.584 124.531 113.584 118.269C113.584 105.747 97.6467 87.5325 85.8411 87.5325V87.5325Z" fill="white"/>
</svg>
