<svg width="175" height="175" viewBox="0 0 175 175" fill="none" xmlns="http://www.w3.org/2000/svg">
<circle cx="87.4487" cy="87.7222" r="87.2778" fill="#37CEEF"/>
<path d="M107.133 61.7287V69.6975C109.964 69.6975 112.679 70.9569 114.68 73.1985C116.682 75.4402 117.806 78.4806 117.806 81.6508V125.479C117.806 126.536 117.431 127.55 116.764 128.297C116.097 129.044 115.192 129.464 114.249 129.464H64.4433C63.4997 129.464 62.5949 129.044 61.9277 128.297C61.2606 127.55 60.8857 126.536 60.8857 125.479V81.6508C60.8857 78.4806 62.0102 75.4402 64.0117 73.1985C66.0132 70.9569 68.7278 69.6975 71.5583 69.6975V61.7287H107.133ZM92.9034 85.6352H85.7884V93.604H78.6733V101.573H85.7848L85.7884 109.542H92.9034L92.8998 101.573H100.018V93.604H92.9034V85.6352ZM114.249 49.7754V57.7442H64.4433V49.7754H114.249Z" fill="white"/>
</svg>
