<svg width="175" height="175" viewBox="0 0 175 175" fill="none" xmlns="http://www.w3.org/2000/svg">
<circle cx="87.394" cy="87.7222" r="87.2778" fill="#1A83FF"/>
<path d="M49.4473 105.697C49.4473 109.212 51.2972 112.368 54.1906 114.565V121.675C54.1906 123.872 56.3251 125.669 58.934 125.669H63.6773C66.2862 125.669 68.4207 123.872 68.4207 121.675V117.68H106.368V121.675C106.368 123.872 108.502 125.669 111.111 125.669H115.854C118.463 125.669 120.598 123.872 120.598 121.675V114.565C123.491 112.368 125.341 109.212 125.341 105.697V65.753C125.341 51.7726 108.36 49.7754 87.3941 49.7754C66.4285 49.7754 49.4473 51.7726 49.4473 65.753V105.697ZM66.049 109.691C62.112 109.691 58.934 107.015 58.934 103.7C58.934 100.385 62.112 97.7083 66.049 97.7083C69.986 97.7083 73.1641 100.385 73.1641 103.7C73.1641 107.015 69.986 109.691 66.049 109.691ZM108.739 109.691C104.802 109.691 101.624 107.015 101.624 103.7C101.624 100.385 104.802 97.7083 108.739 97.7083C112.676 97.7083 115.854 100.385 115.854 103.7C115.854 107.015 112.676 109.691 108.739 109.691ZM115.854 85.725H58.934V65.753H115.854V85.725Z" fill="white"/>
</svg>
