<svg width="176" height="175" viewBox="0 0 176 175" fill="none" xmlns="http://www.w3.org/2000/svg">
<circle cx="87.9106" cy="87.7222" r="87.2778" fill="#EF5837"/>
<path d="M102.474 63.1121C102.113 63.4318 100.57 64.8202 100.037 65.3486L92.5656 72.3452L55.3993 66.0035L47.0767 73.3858L76.8094 86.9964L64.0889 98.6294L51.7041 96.4861L44.7992 102.611L58.8866 112.992C58.9716 113.047 59.0594 113.098 59.1486 113.145C59.1564 113.15 59.1627 113.157 59.1667 113.166C59.2018 113.26 59.242 113.353 59.287 113.443L67.914 128.745L74.7751 122.659L74.1654 109.84L87.2497 98.7613L97.2378 129.939L105.586 122.534L103.705 84.9137L111.545 78.3331C112.141 77.8602 113.703 76.4947 114.055 76.1821C117.282 73.3202 119.518 70.5248 120.702 67.8716C122.714 63.3762 121.1 60.5475 119.959 59.2615C116.334 55.1751 109.799 56.6149 102.474 63.1121Z" fill="white"/>
</svg>
